<svg xmlns="http://www.w3.org/2000/svg" width="116.337" height="116.337" viewBox="0 0 116.337 116.337">
  <g id="cp_icon" data-name="cp icon" transform="translate(-1.028 -0.801)">
    <g id="Ellipse_8" data-name="Ellipse 8" transform="translate(6.028 5.801)" fill="#445e88" stroke="#1f3049" stroke-miterlimit="10" stroke-width="5">
      <circle cx="53.169" cy="53.169" r="53.169" stroke="none"/>
      <circle cx="53.169" cy="53.169" r="55.669" fill="none"/>
    </g>
    <path id="Path_127" data-name="Path 127" d="M58.219,118.353,35.094,95.7H84.616L84.33,36.235l.929.707,31.664,24.486S116.034,119.242,58.219,118.353Z" transform="translate(-2.23 -4.285)" fill="#1f3049"/>
    <g id="tap_and_play_black_24dp" transform="translate(26.998 24.499)">
      <path id="Path_187" data-name="Path 187" d="M0,0H69.773V69.773H0Z" fill="none"/>
      <path id="Path_188" data-name="Path 188" d="M2,44.608v5.814A14.541,14.541,0,0,1,16.536,64.958H22.35A20.335,20.335,0,0,0,2,44.608ZM2,56.237v8.722h8.722A8.71,8.71,0,0,0,2,56.237ZM2,32.979v5.814A26.167,26.167,0,0,1,28.165,64.958h5.814A31.961,31.961,0,0,0,2,32.979ZM45.608,1.029,16.536,1a5.831,5.831,0,0,0-5.814,5.814V28.24A35.673,35.673,0,0,1,16.536,30.1V12.629H45.608V50.422H36.8a37.812,37.812,0,0,1,2.762,11.629h6.047a5.831,5.831,0,0,0,5.814-5.814V6.814A5.807,5.807,0,0,0,45.608,1.029Z" transform="translate(3.814 1.907)" fill="#fff"/>
    </g>
  </g>
</svg>
