<svg xmlns="http://www.w3.org/2000/svg" width="149.727" height="149.727" viewBox="0 0 149.727 149.727">
  <g id="icon" transform="translate(-1.028 -0.801)">
    <g id="bg" transform="translate(6.028 5.801)" fill="#445e88" stroke="#1f3049" stroke-miterlimit="10" stroke-width="5">
      <circle cx="69.864" cy="69.864" r="69.864" stroke="none"/>
      <circle cx="69.864" cy="69.864" r="72.364" fill="none"/>
    </g>
    <path id="shadow" d="M68.637,141.981,24.046,86.142,117.2,84.609l1.6-42.759,26.972,25.332S144.605,143.15,68.637,141.981Z" transform="translate(3.04 6.083)" fill="#1f3049"/>
    <g id="ticket" transform="translate(25.512 45.947)">
      <g id="ticket_bg" data-name="ticket bg" opacity="0.6" style="mix-blend-mode: multiply;isolation: isolate">
        <path id="Path_2" data-name="Path 2" d="M96.438,46.412l15.888.019,0,1.193-15.888-.019Zm0,2.146,15.888.02v.874l-15.888-.019Zm0,1.75,15.888.019V51.2l-15.888-.019Zm0,1.432,15.888.019V52.95l-15.888-.019Zm0,2.464,15.888.019,0,1.748-15.888-.019Zm0,2.7,15.888.019v.8L96.421,57.7Zm0,1.352,15.888.019v.795L96.42,59.052Zm0,1.431,15.888.019V60.9l-15.889-.02Zm0,2.066,15.889.02v.795L96.414,62.55Zm0,1.352,15.888.019v.795L96.413,63.9Zm0,1.432,15.888.019v1.192L96.411,65.73Zm0,2.146L112.3,66.7V67.5l-15.888-.019Zm0,1.351,15.888.019v.795L96.406,68.83Zm0,1.432,15.888.019v1.192L96.4,70.659Zm0,2.464,15.888.019,0,1.75L96.4,73.679Zm0,2.544,15.888.019v.795L96.4,75.269Zm0,1.35,15.888.02v.795L96.4,76.62Zm0,1.432,15.888.019v1.192l-15.888-.019Zm0,2.465,15.888.019,0,1.748L96.389,81.47ZM89.725,47.857v4.456a1.153,1.153,0,1,1-2.306,0V47.857a1.153,1.153,0,1,1,2.306,0Zm0,8.914v4.456a1.153,1.153,0,1,1-2.306,0V56.771a1.153,1.153,0,1,1,2.306,0Zm0,8.914v4.456a1.153,1.153,0,0,1-2.306,0V65.685a1.153,1.153,0,1,1,2.306,0Zm0,8.914v4.456a1.153,1.153,0,0,1-2.306,0V74.6a1.153,1.153,0,1,1,2.306,0Zm-7.7-26.16a1.153,1.153,0,0,1-1.152,1.154H62.813a1.153,1.153,0,0,1,0-2.306H80.876A1.153,1.153,0,0,1,82.028,48.439Zm0,7.756a1.153,1.153,0,0,1-1.152,1.154H62.813a1.153,1.153,0,0,1,0-2.306H80.876A1.152,1.152,0,0,1,82.028,56.194Zm0,7.756A1.152,1.152,0,0,1,80.876,65.1H62.813a1.152,1.152,0,1,1,0-2.3H80.876A1.152,1.152,0,0,1,82.028,63.95Zm0,7.756a1.152,1.152,0,0,1-1.152,1.152H62.813a1.152,1.152,0,1,1,0-2.3H80.876A1.152,1.152,0,0,1,82.028,71.706Zm0,7.756a1.152,1.152,0,0,1-1.152,1.152H62.813a1.152,1.152,0,1,1,0-2.3H80.876A1.152,1.152,0,0,1,82.028,79.462Zm36.349,4.232a1.2,1.2,0,0,1-1.2,1.2H89.725V83.513a1.153,1.153,0,1,0-2.306,0V84.9H27.7a1.2,1.2,0,0,1-1.2-1.2V43.665a1.2,1.2,0,0,1,1.2-1.2H87.42V43.4a1.153,1.153,0,1,0,2.306,0v-.936h27.45a1.2,1.2,0,0,1,1.2,1.2Zm-1.2-43.536H88.7a1.15,1.15,0,0,0-.254,0H27.7a3.511,3.511,0,0,0-3.507,3.507V83.694A3.511,3.511,0,0,0,27.7,87.2h89.474a3.511,3.511,0,0,0,3.507-3.507V43.665A3.511,3.511,0,0,0,117.176,40.158ZM55.182,58.43a21.011,21.011,0,0,1-4.08,3.4,1.039,1.039,0,0,0-.445.988l1.487,12.111-1.711,1.03-2.92-10.312a1.034,1.034,0,0,0-.611-.683,1.037,1.037,0,0,0-.915.064,79.6,79.6,0,0,1-8.52,4.343c-.321.136-.631.263-.923.376a1.043,1.043,0,0,0-.662,1.021l.152,3.167-.222.134-.618-2.707a1.038,1.038,0,0,0-1.225-.79,2.746,2.746,0,0,1-.892.075,2.828,2.828,0,0,1,.486-.754,1.038,1.038,0,0,0-.123-1.45l-2.1-1.817.224-.136,2.721,1.619A1.041,1.041,0,0,0,35.5,68c.247-.213.5-.427.764-.639a79.833,79.833,0,0,1,7.828-5.5,1.042,1.042,0,0,0,.169-1.636l-7.729-7.42,1.712-1.031,9.985,6.993a1.041,1.041,0,0,0,1.082.07,20.984,20.984,0,0,1,4.9-2.014c.394-.082,1.335-.231,1.567.15h0C56.011,57.358,55.438,58.12,55.182,58.43Zm1.969-2.293c-1.277-2.1-5.042-.554-8.283,1.118L38.82,50.217a.948.948,0,0,0-1.04-.039L34.971,51.87a.953.953,0,0,0-.171,1.5l7.826,7.513a79.355,79.355,0,0,0-7.378,5.23c-.165.133-.327.269-.489.4l-2.71-1.613-.007,0a.952.952,0,0,0-.97.007l-1.329.8a.951.951,0,0,0-.138,1.538l2.381,2.062a2.041,2.041,0,0,0-.338,2.195l0,.008a2.043,2.043,0,0,0,2.092.725l.7,3.064a.95.95,0,0,0,1.419.61L37.2,75.1a.952.952,0,0,0,.456-.859l-.152-3.156q.286-.116.586-.242a79.719,79.719,0,0,0,8.073-4.072L49.12,77.218l0,.007a.957.957,0,0,0,.913.686.956.956,0,0,0,.491-.137l2.816-1.695a.952.952,0,0,0,.449-.929l-1.5-12.194c3-2.086,6.134-4.7,4.862-6.814Z" transform="translate(-22.447 -40.151)" fill="#bbbdbf" opacity="0.05"/>
        <path id="Path_3" data-name="Path 3" d="M96.37,46.412l15.888.019,0,1.193-15.888-.019Zm0,2.146,15.888.02v.874l-15.888-.019Zm0,1.75,15.888.019V51.2l-15.888-.019Zm0,1.432,15.888.019V52.95L96.36,52.931Zm0,2.464,15.889.019,0,1.748-15.888-.019Zm0,2.7,15.888.019v.8L96.353,57.7Zm0,1.352,15.888.019v.795l-15.888-.019Zm0,1.431,15.888.019V60.9L96.35,60.88Zm0,2.066,15.888.02v.795L96.347,62.55Zm0,1.352,15.888.019v.795L96.345,63.9Zm0,1.432,15.888.019v1.192L96.343,65.73Zm0,2.146,15.888.019V67.5L96.34,67.479Zm0,1.351,15.888.019v.795L96.338,68.83Zm0,1.432,15.888.019v1.192l-15.888-.019Zm0,2.464,15.889.019,0,1.75-15.888-.02Zm0,2.544,15.889.019v.795l-15.889-.019Zm0,1.35,15.888.02v.795L96.328,76.62Zm0,1.432,15.888.019v1.192l-15.888-.019Zm0,2.465,15.888.019,0,1.748L96.32,81.47ZM89.657,47.857v4.456a1.153,1.153,0,1,1-2.306,0V47.857a1.153,1.153,0,1,1,2.306,0Zm0,8.914v4.456a1.153,1.153,0,1,1-2.306,0V56.771a1.153,1.153,0,1,1,2.306,0Zm0,8.914v4.456a1.153,1.153,0,0,1-2.306,0V65.685a1.153,1.153,0,1,1,2.306,0Zm0,8.914v4.456a1.153,1.153,0,0,1-2.306,0V74.6a1.153,1.153,0,1,1,2.306,0Zm-7.7-26.16a1.153,1.153,0,0,1-1.152,1.154H62.745a1.153,1.153,0,0,1,0-2.306H80.808A1.152,1.152,0,0,1,81.96,48.439Zm0,7.756a1.153,1.153,0,0,1-1.152,1.154H62.745a1.153,1.153,0,0,1,0-2.306H80.808A1.152,1.152,0,0,1,81.96,56.194Zm0,7.756A1.152,1.152,0,0,1,80.808,65.1H62.745a1.152,1.152,0,0,1,0-2.3H80.808A1.152,1.152,0,0,1,81.96,63.95Zm0,7.756a1.152,1.152,0,0,1-1.152,1.152H62.745a1.152,1.152,0,0,1,0-2.3H80.808A1.152,1.152,0,0,1,81.96,71.706Zm0,7.756a1.152,1.152,0,0,1-1.152,1.152H62.745a1.152,1.152,0,0,1,0-2.3H80.808A1.152,1.152,0,0,1,81.96,79.462Zm36.349,4.232a1.2,1.2,0,0,1-1.2,1.2H89.657V83.513a1.153,1.153,0,1,0-2.306,0V84.9H27.633a1.2,1.2,0,0,1-1.2-1.2V43.665a1.2,1.2,0,0,1,1.2-1.2H87.352V43.4a1.153,1.153,0,1,0,2.306,0v-.936h27.45a1.2,1.2,0,0,1,1.2,1.2Zm-1.2-43.536H88.631a1.15,1.15,0,0,0-.254,0H27.633a3.511,3.511,0,0,0-3.507,3.507V83.694A3.511,3.511,0,0,0,27.633,87.2h89.474a3.511,3.511,0,0,0,3.507-3.507V43.665A3.511,3.511,0,0,0,117.108,40.158ZM55.114,58.43a21.012,21.012,0,0,1-4.08,3.4,1.039,1.039,0,0,0-.445.988l1.487,12.111-1.711,1.03-2.92-10.312a1.034,1.034,0,0,0-.611-.683,1.037,1.037,0,0,0-.915.064,79.6,79.6,0,0,1-8.52,4.343c-.321.136-.631.263-.923.376a1.043,1.043,0,0,0-.662,1.021l.152,3.167-.222.134-.618-2.707a1.038,1.038,0,0,0-1.225-.79,2.746,2.746,0,0,1-.892.075,2.828,2.828,0,0,1,.486-.754,1.038,1.038,0,0,0-.123-1.45l-2.1-1.817.224-.136,2.721,1.619A1.041,1.041,0,0,0,35.43,68c.247-.213.5-.427.764-.639a79.832,79.832,0,0,1,7.828-5.5,1.042,1.042,0,0,0,.169-1.636l-7.729-7.42,1.712-1.031,9.985,6.993a1.041,1.041,0,0,0,1.082.07,20.984,20.984,0,0,1,4.9-2.014c.394-.082,1.335-.231,1.567.15h0C55.943,57.358,55.37,58.12,55.114,58.43Zm1.969-2.293c-1.277-2.1-5.042-.554-8.282,1.118l-10.05-7.038a.948.948,0,0,0-1.04-.039L34.9,51.87a.953.953,0,0,0-.171,1.5l7.827,7.513a79.229,79.229,0,0,0-7.379,5.23c-.165.133-.327.269-.487.4l-2.711-1.613-.007,0a.952.952,0,0,0-.97.007l-1.329.8a.951.951,0,0,0-.138,1.538l2.381,2.062A2.051,2.051,0,0,0,31.58,71.5l0,.008a2.04,2.04,0,0,0,2.092.725l.7,3.064a.95.95,0,0,0,1.419.61l1.338-.805a.952.952,0,0,0,.456-.859l-.152-3.156q.286-.116.586-.242A79.719,79.719,0,0,0,46.1,66.776l2.956,10.442,0,.007a.957.957,0,0,0,.913.686.963.963,0,0,0,.492-.137l2.814-1.695a.952.952,0,0,0,.449-.929l-1.5-12.194c3-2.086,6.134-4.7,4.862-6.814Z" transform="translate(-22.458 -40.151)" fill="#bcbec0" opacity="0.093"/>
        <path id="Path_4" data-name="Path 4" d="M96.3,46.412l15.888.019,0,1.193L96.3,47.605Zm0,2.146,15.888.02v.874L96.3,49.433Zm0,1.75,15.888.019V51.2l-15.888-.019Zm0,1.432,15.889.019,0,1.192-15.888-.019Zm0,2.464,15.888.019,0,1.748-15.889-.019Zm0,2.7,15.888.019v.8L96.285,57.7Zm0,1.352,15.888.019v.795l-15.888-.019Zm0,1.431,15.888.019V60.9l-15.888-.02Zm0,2.066,15.888.02v.795L96.279,62.55Zm0,1.352,15.888.019v.795L96.277,63.9Zm0,1.432,15.888.019v1.192L96.275,65.73Zm0,2.146,15.888.019V67.5l-15.888-.019Zm0,1.351,15.888.019v.795L96.27,68.83Zm0,1.432,15.889.019,0,1.192-15.888-.019Zm0,2.464,15.888.019,0,1.75-15.889-.02Zm0,2.544,15.888.019v.795l-15.888-.019Zm0,1.35,15.888.02v.795L96.26,76.62Zm0,1.432,15.888.019v1.192l-15.888-.019Zm0,2.465,15.888.019,0,1.748L96.252,81.47ZM89.589,47.857v4.456a1.153,1.153,0,1,1-2.306,0V47.857a1.153,1.153,0,1,1,2.306,0Zm0,8.914v4.456a1.153,1.153,0,1,1-2.306,0V56.771a1.153,1.153,0,1,1,2.306,0Zm0,8.914v4.456a1.153,1.153,0,0,1-2.306,0V65.685a1.153,1.153,0,1,1,2.306,0Zm0,8.914v4.456a1.153,1.153,0,0,1-2.306,0V74.6a1.153,1.153,0,1,1,2.306,0Zm-7.7-26.16a1.153,1.153,0,0,1-1.152,1.154H62.677a1.153,1.153,0,0,1,0-2.306H80.74A1.152,1.152,0,0,1,81.892,48.439Zm0,7.756a1.153,1.153,0,0,1-1.152,1.154H62.677a1.153,1.153,0,0,1,0-2.306H80.74A1.152,1.152,0,0,1,81.892,56.194Zm0,7.756A1.152,1.152,0,0,1,80.74,65.1H62.677a1.152,1.152,0,0,1,0-2.3H80.74A1.152,1.152,0,0,1,81.892,63.95Zm0,7.756a1.152,1.152,0,0,1-1.152,1.152H62.677a1.152,1.152,0,0,1,0-2.3H80.74A1.152,1.152,0,0,1,81.892,71.706Zm0,7.756a1.152,1.152,0,0,1-1.152,1.152H62.677a1.152,1.152,0,0,1,0-2.3H80.74A1.152,1.152,0,0,1,81.892,79.462Zm36.35,4.232a1.2,1.2,0,0,1-1.2,1.2H89.589V83.513a1.153,1.153,0,1,0-2.306,0V84.9H27.565a1.2,1.2,0,0,1-1.2-1.2V43.665a1.2,1.2,0,0,1,1.2-1.2H87.284V43.4a1.153,1.153,0,1,0,2.306,0v-.936h27.45a1.2,1.2,0,0,1,1.2,1.2Zm-1.2-43.536H88.563a1.15,1.15,0,0,0-.254,0H27.565a3.511,3.511,0,0,0-3.507,3.507V83.694A3.511,3.511,0,0,0,27.565,87.2H117.04a3.511,3.511,0,0,0,3.507-3.507V43.665A3.511,3.511,0,0,0,117.04,40.158ZM55.046,58.43a21.011,21.011,0,0,1-4.08,3.4,1.041,1.041,0,0,0-.445.988l1.488,12.111L50.3,75.954l-2.92-10.312a1.034,1.034,0,0,0-.611-.683,1.037,1.037,0,0,0-.915.064,79.6,79.6,0,0,1-8.52,4.343c-.321.136-.631.263-.923.376a1.043,1.043,0,0,0-.662,1.021l.153,3.167-.223.134-.618-2.707a1.038,1.038,0,0,0-1.225-.79,2.74,2.74,0,0,1-.891.075,2.778,2.778,0,0,1,.485-.754,1.038,1.038,0,0,0-.123-1.45l-2.1-1.817.223-.136,2.721,1.619A1.041,1.041,0,0,0,35.362,68c.247-.213.5-.427.764-.639a79.833,79.833,0,0,1,7.828-5.5,1.042,1.042,0,0,0,.169-1.636L36.4,52.806l1.712-1.031,9.985,6.993a1.041,1.041,0,0,0,1.082.07,21,21,0,0,1,4.9-2.014c.394-.082,1.335-.231,1.567.15h0C55.875,57.358,55.3,58.12,55.046,58.43Zm1.969-2.293c-1.277-2.1-5.042-.554-8.282,1.118l-10.05-7.038a.948.948,0,0,0-1.04-.039L34.835,51.87a.952.952,0,0,0-.169,1.5l7.826,7.513a79.229,79.229,0,0,0-7.379,5.23c-.165.133-.327.269-.487.4l-2.711-1.613-.007,0a.952.952,0,0,0-.97.007l-1.329.8a.951.951,0,0,0-.138,1.538l2.381,2.062a2.051,2.051,0,0,0-.338,2.195l0,.008a2.04,2.04,0,0,0,2.092.725l.7,3.064a.95.95,0,0,0,1.419.61l1.338-.805a.952.952,0,0,0,.456-.859L37.37,71.09q.286-.116.586-.242a79.718,79.718,0,0,0,8.073-4.072l2.956,10.442,0,.007a.957.957,0,0,0,.913.686.963.963,0,0,0,.492-.137l2.814-1.695a.952.952,0,0,0,.449-.929l-1.5-12.194c3-2.086,6.134-4.7,4.862-6.814Z" transform="translate(-22.47 -40.151)" fill="#bdbfc1" opacity="0.136"/>
        <path id="Path_5" data-name="Path 5" d="M96.234,46.412l15.888.019,0,1.193-15.888-.019Zm0,2.146,15.888.02v.874l-15.888-.019Zm0,1.75,15.888.019V51.2l-15.888-.019Zm0,1.432,15.888.019,0,1.192-15.888-.019Zm0,2.464,15.888.019,0,1.748-15.888-.019Zm0,2.7,15.888.019v.8L96.217,57.7Zm0,1.352,15.888.019v.795l-15.888-.019Zm0,1.431,15.888.019V60.9l-15.888-.02Zm0,2.066,15.888.02v.795L96.211,62.55Zm0,1.352,15.888.019v.795L96.209,63.9Zm0,1.432,15.888.019v1.192L96.207,65.73Zm0,2.146,15.888.019V67.5L96.2,67.479Zm0,1.351,15.888.019v.795L96.2,68.83Zm0,1.432,15.889.019,0,1.192L96.2,70.659Zm0,2.464,15.888.019,0,1.75L96.2,73.679Zm0,2.544,15.888.019v.795l-15.888-.019Zm0,1.35,15.888.02v.795L96.192,76.62Zm0,1.432,15.888.019v1.192l-15.888-.019Zm0,2.465,15.888.019,0,1.748L96.185,81.47ZM89.521,47.857v4.456a1.153,1.153,0,1,1-2.306,0V47.857a1.153,1.153,0,1,1,2.306,0Zm0,8.914v4.456a1.153,1.153,0,1,1-2.306,0V56.771a1.153,1.153,0,1,1,2.306,0Zm0,8.914v4.456a1.153,1.153,0,0,1-2.306,0V65.685a1.153,1.153,0,1,1,2.306,0Zm0,8.914v4.456a1.153,1.153,0,0,1-2.306,0V74.6a1.153,1.153,0,1,1,2.306,0Zm-7.7-26.16a1.153,1.153,0,0,1-1.152,1.154H62.609a1.153,1.153,0,0,1,0-2.306H80.672A1.152,1.152,0,0,1,81.824,48.439Zm0,7.756a1.153,1.153,0,0,1-1.152,1.154H62.609a1.153,1.153,0,0,1,0-2.306H80.672A1.152,1.152,0,0,1,81.824,56.194Zm0,7.756A1.152,1.152,0,0,1,80.672,65.1H62.609a1.152,1.152,0,0,1,0-2.3H80.672A1.152,1.152,0,0,1,81.824,63.95Zm0,7.756a1.152,1.152,0,0,1-1.152,1.152H62.609a1.152,1.152,0,0,1,0-2.3H80.672A1.152,1.152,0,0,1,81.824,71.706Zm0,7.756a1.152,1.152,0,0,1-1.152,1.152H62.609a1.152,1.152,0,0,1,0-2.3H80.672A1.152,1.152,0,0,1,81.824,79.462Zm36.35,4.232a1.2,1.2,0,0,1-1.2,1.2H89.521V83.513a1.153,1.153,0,1,0-2.306,0V84.9H27.5a1.2,1.2,0,0,1-1.2-1.2V43.665a1.2,1.2,0,0,1,1.2-1.2H87.216V43.4a1.153,1.153,0,1,0,2.306,0v-.936h27.45a1.2,1.2,0,0,1,1.2,1.2Zm-1.2-43.536H88.5a1.142,1.142,0,0,0-.126-.007,1.111,1.111,0,0,0-.126.007H27.5a3.511,3.511,0,0,0-3.507,3.507V83.694A3.511,3.511,0,0,0,27.5,87.2h89.474a3.511,3.511,0,0,0,3.507-3.507V43.665A3.511,3.511,0,0,0,116.972,40.158ZM54.978,58.43a20.975,20.975,0,0,1-4.08,3.4,1.043,1.043,0,0,0-.445.988l1.488,12.111-1.712,1.03-2.92-10.312a1.034,1.034,0,0,0-.611-.683,1.037,1.037,0,0,0-.915.064,79.6,79.6,0,0,1-8.52,4.343c-.32.136-.631.263-.923.376a1.043,1.043,0,0,0-.662,1.021l.153,3.167-.223.134-.618-2.707a1.038,1.038,0,0,0-1.225-.79,2.74,2.74,0,0,1-.891.075,2.778,2.778,0,0,1,.485-.754,1.038,1.038,0,0,0-.123-1.45l-2.1-1.817.223-.136,2.721,1.619A1.041,1.041,0,0,0,35.294,68c.247-.213.5-.427.764-.639a79.833,79.833,0,0,1,7.828-5.5,1.042,1.042,0,0,0,.169-1.636l-7.729-7.42,1.712-1.031,9.985,6.993a1.041,1.041,0,0,0,1.082.07,21,21,0,0,1,4.9-2.014c.394-.082,1.335-.231,1.567.15h0C55.807,57.358,55.234,58.12,54.978,58.43Zm1.969-2.293c-1.277-2.1-5.042-.554-8.282,1.118l-10.05-7.038a.948.948,0,0,0-1.04-.039L34.767,51.87a.952.952,0,0,0-.169,1.5l7.826,7.513a79.229,79.229,0,0,0-7.379,5.23c-.165.133-.327.269-.487.4l-2.711-1.613-.007,0a.952.952,0,0,0-.97.007l-1.329.8a.951.951,0,0,0-.138,1.538l2.382,2.062a2.049,2.049,0,0,0-.339,2.195l.006.008a2.038,2.038,0,0,0,2.091.725l.7,3.064a.95.95,0,0,0,1.419.61L37,75.1a.95.95,0,0,0,.456-.859L37.3,71.09q.286-.116.586-.242a79.719,79.719,0,0,0,8.073-4.072l2.956,10.442,0,.007a.957.957,0,0,0,.913.686.963.963,0,0,0,.492-.137l2.814-1.695a.955.955,0,0,0,.45-.929l-1.5-12.194c3-2.086,6.132-4.7,4.861-6.814Z" transform="translate(-22.481 -40.151)" fill="#bec0c2" opacity="0.18"/>
        <path id="Path_6" data-name="Path 6" d="M96.166,46.412l15.888.019v1.193l-15.889-.019Zm0,2.146,15.888.02v.874l-15.888-.019Zm0,1.75,15.888.019V51.2l-15.888-.019Zm0,1.432,15.888.019,0,1.192-15.888-.019Zm0,2.464,15.888.019,0,1.748-15.888-.019Zm0,2.7,15.889.019v.8L96.15,57.7Zm0,1.352,15.888.019v.795l-15.888-.019Zm0,1.431,15.888.019V60.9l-15.888-.02Zm0,2.066,15.888.02v.795L96.143,62.55Zm0,1.352,15.888.019v.795L96.141,63.9Zm0,1.432,15.889.019,0,1.192L96.139,65.73Zm0,2.146,15.888.019V67.5l-15.888-.019Zm0,1.351,15.888.019v.795L96.134,68.83Zm0,1.432,15.888.019,0,1.192-15.888-.019Zm0,2.464,15.888.019,0,1.75-15.888-.02Zm0,2.544,15.888.019v.795l-15.888-.019Zm0,1.35,15.888.02v.795L96.124,76.62Zm0,1.432,15.888.019v1.192l-15.888-.019Zm0,2.465,15.889.019,0,1.748L96.117,81.47ZM89.453,47.857v4.456a1.152,1.152,0,1,1-2.3,0V47.857a1.152,1.152,0,1,1,2.3,0Zm0,8.914v4.456a1.152,1.152,0,1,1-2.3,0V56.771a1.152,1.152,0,1,1,2.3,0Zm0,8.914v4.456a1.152,1.152,0,0,1-2.3,0V65.685a1.152,1.152,0,1,1,2.3,0Zm0,8.914v4.456a1.152,1.152,0,1,1-2.3,0V74.6a1.152,1.152,0,1,1,2.3,0Zm-7.7-26.16A1.153,1.153,0,0,1,80.6,49.592H62.541a1.153,1.153,0,0,1,0-2.306H80.6A1.152,1.152,0,0,1,81.756,48.439Zm0,7.756A1.153,1.153,0,0,1,80.6,57.348H62.541a1.153,1.153,0,0,1,0-2.306H80.6A1.152,1.152,0,0,1,81.756,56.194Zm0,7.756A1.152,1.152,0,0,1,80.6,65.1H62.541a1.152,1.152,0,0,1,0-2.3H80.6A1.152,1.152,0,0,1,81.756,63.95Zm0,7.756A1.152,1.152,0,0,1,80.6,72.858H62.541a1.152,1.152,0,0,1,0-2.3H80.6A1.152,1.152,0,0,1,81.756,71.706Zm0,7.756A1.152,1.152,0,0,1,80.6,80.614H62.541a1.152,1.152,0,0,1,0-2.3H80.6A1.152,1.152,0,0,1,81.756,79.462Zm36.35,4.232a1.2,1.2,0,0,1-1.2,1.2H89.453V83.513a1.152,1.152,0,1,0-2.3,0V84.9H27.429a1.2,1.2,0,0,1-1.2-1.2V43.665a1.2,1.2,0,0,1,1.2-1.2H87.149V43.4a1.152,1.152,0,1,0,2.3,0v-.936H116.9a1.2,1.2,0,0,1,1.2,1.2Zm-1.2-43.536H88.427a1.141,1.141,0,0,0-.126-.007,1.111,1.111,0,0,0-.126.007H27.429a3.511,3.511,0,0,0-3.507,3.507V83.694A3.511,3.511,0,0,0,27.429,87.2H116.9a3.511,3.511,0,0,0,3.507-3.507V43.665A3.511,3.511,0,0,0,116.9,40.158ZM54.91,58.43a21,21,0,0,1-4.079,3.4,1.042,1.042,0,0,0-.446.988l1.488,12.111-1.712,1.03-2.92-10.312a1.034,1.034,0,0,0-.611-.683,1.037,1.037,0,0,0-.915.064,79.6,79.6,0,0,1-8.52,4.343c-.32.136-.631.263-.923.376a1.041,1.041,0,0,0-.66,1.021l.152,3.167-.223.134-.618-2.707a1.037,1.037,0,0,0-1.225-.79,2.74,2.74,0,0,1-.891.075,2.779,2.779,0,0,1,.485-.754,1.038,1.038,0,0,0-.123-1.45l-2.1-1.817.224-.136,2.72,1.619A1.041,1.041,0,0,0,35.226,68c.248-.213.5-.427.764-.639a79.974,79.974,0,0,1,7.828-5.5,1.042,1.042,0,0,0,.169-1.636l-7.729-7.42,1.712-1.031,9.985,6.993a1.041,1.041,0,0,0,1.082.07,21,21,0,0,1,4.9-2.014c.394-.082,1.335-.231,1.567.15h0C55.739,57.358,55.167,58.12,54.91,58.43Zm1.969-2.293c-1.277-2.1-5.042-.554-8.282,1.118l-10.05-7.038a.948.948,0,0,0-1.04-.039L34.7,51.87a.952.952,0,0,0-.169,1.5l7.826,7.513a79.229,79.229,0,0,0-7.379,5.23c-.165.133-.327.269-.487.4l-2.711-1.613-.007,0a.952.952,0,0,0-.97.007l-1.329.8a.951.951,0,0,0-.138,1.538l2.382,2.062a2.049,2.049,0,0,0-.339,2.195l.006.008a2.038,2.038,0,0,0,2.091.725l.7,3.064a.95.95,0,0,0,1.419.61L36.93,75.1a.95.95,0,0,0,.456-.859l-.152-3.156q.286-.116.586-.242a79.6,79.6,0,0,0,8.073-4.072l2.956,10.442,0,.007a.957.957,0,0,0,.913.686.963.963,0,0,0,.492-.137l2.814-1.695a.955.955,0,0,0,.45-.929l-1.5-12.194c3-2.086,6.132-4.7,4.861-6.814Z" transform="translate(-22.493 -40.151)" fill="#bfc1c3" opacity="0.223"/>
        <path id="Path_7" data-name="Path 7" d="M96.1,46.412l15.888.019v1.193L96.1,47.605Zm0,2.146,15.889.02,0,.874-15.888-.019Zm0,1.75,15.888.019V51.2l-15.888-.019Zm0,1.432,15.888.019,0,1.192-15.888-.019Zm0,2.464,15.888.019,0,1.748-15.888-.019Zm0,2.7,15.888.019v.8L96.082,57.7Zm0,1.352,15.888.019v.795L96.08,59.052Zm0,1.431,15.888.019V60.9l-15.888-.02Zm0,2.066,15.888.02v.795L96.075,62.55Zm0,1.352,15.888.019v.795L96.073,63.9Zm0,1.432,15.889.019,0,1.192L96.071,65.73Zm0,2.146,15.888.019V67.5l-15.888-.019Zm0,1.351,15.888.019v.795L96.066,68.83Zm0,1.432,15.888.019,0,1.192-15.888-.019Zm0,2.464,15.888.019,0,1.75-15.888-.02Zm0,2.544,15.888.019v.795l-15.888-.019Zm0,1.35,15.888.02v.795L96.056,76.62Zm0,1.432,15.889.019,0,1.192-15.888-.019Zm0,2.465,15.889.019,0,1.748L96.049,81.47ZM89.385,47.857v4.456a1.152,1.152,0,1,1-2.3,0V47.857a1.152,1.152,0,1,1,2.3,0Zm0,8.914v4.456a1.152,1.152,0,1,1-2.3,0V56.771a1.152,1.152,0,1,1,2.3,0Zm0,8.914v4.456a1.152,1.152,0,0,1-2.3,0V65.685a1.152,1.152,0,1,1,2.3,0Zm0,8.914v4.456a1.152,1.152,0,1,1-2.3,0V74.6a1.152,1.152,0,1,1,2.3,0Zm-7.7-26.16a1.153,1.153,0,0,1-1.152,1.154H62.473a1.153,1.153,0,0,1,0-2.306H80.536A1.152,1.152,0,0,1,81.688,48.439Zm0,7.756a1.153,1.153,0,0,1-1.152,1.154H62.473a1.153,1.153,0,0,1,0-2.306H80.536A1.152,1.152,0,0,1,81.688,56.194Zm0,7.756A1.152,1.152,0,0,1,80.536,65.1H62.473a1.152,1.152,0,1,1,0-2.3H80.536A1.152,1.152,0,0,1,81.688,63.95Zm0,7.756a1.152,1.152,0,0,1-1.152,1.152H62.473a1.152,1.152,0,1,1,0-2.3H80.536A1.152,1.152,0,0,1,81.688,71.706Zm0,7.756a1.152,1.152,0,0,1-1.152,1.152H62.473a1.152,1.152,0,1,1,0-2.3H80.536A1.152,1.152,0,0,1,81.688,79.462Zm36.35,4.232a1.2,1.2,0,0,1-1.2,1.2H89.385V83.513a1.152,1.152,0,1,0-2.3,0V84.9H27.361a1.2,1.2,0,0,1-1.2-1.2V43.665a1.2,1.2,0,0,1,1.2-1.2H87.081V43.4a1.152,1.152,0,1,0,2.3,0v-.936h27.45a1.2,1.2,0,0,1,1.2,1.2Zm-1.2-43.536H88.359a1.14,1.14,0,0,0-.252,0H27.361a3.511,3.511,0,0,0-3.507,3.507V83.694A3.511,3.511,0,0,0,27.361,87.2h89.474a3.511,3.511,0,0,0,3.507-3.507V43.665A3.511,3.511,0,0,0,116.836,40.158ZM54.842,58.43a21,21,0,0,1-4.079,3.4,1.042,1.042,0,0,0-.446.988L51.8,74.925l-1.712,1.03L47.174,65.642a1.042,1.042,0,0,0-1.528-.618,79.6,79.6,0,0,1-8.52,4.343c-.32.136-.631.263-.923.376a1.042,1.042,0,0,0-.66,1.021l.152,3.167-.223.134-.618-2.707a1.037,1.037,0,0,0-1.225-.79,2.74,2.74,0,0,1-.891.075,2.778,2.778,0,0,1,.485-.754,1.038,1.038,0,0,0-.123-1.45L31,66.623l.224-.136,2.721,1.619A1.039,1.039,0,0,0,35.158,68c.248-.213.5-.427.764-.639a79.975,79.975,0,0,1,7.828-5.5,1.042,1.042,0,0,0,.169-1.636l-7.728-7.42L37.9,51.775l9.985,6.993a1.041,1.041,0,0,0,1.082.07,21.024,21.024,0,0,1,4.9-2.014c.394-.082,1.335-.231,1.567.15h0C55.671,57.358,55.1,58.12,54.842,58.43Zm1.969-2.293c-1.277-2.1-5.041-.554-8.282,1.118L38.48,50.217a.946.946,0,0,0-1.039-.039l-2.81,1.691a.952.952,0,0,0-.169,1.5l7.826,7.513a79.386,79.386,0,0,0-7.379,5.23c-.164.133-.327.269-.487.4l-2.711-1.613-.007,0a.952.952,0,0,0-.97.007l-1.329.8a.951.951,0,0,0-.138,1.538l2.382,2.062a2.049,2.049,0,0,0-.339,2.195l.006.008a2.038,2.038,0,0,0,2.091.725l.7,3.064a.95.95,0,0,0,1.419.61l1.338-.805a.95.95,0,0,0,.456-.859l-.152-3.156q.286-.116.586-.242a79.6,79.6,0,0,0,8.073-4.072L48.78,77.218l0,.007a.957.957,0,0,0,.913.686.963.963,0,0,0,.492-.137L53,76.079a.955.955,0,0,0,.45-.929l-1.5-12.194c3-2.086,6.132-4.7,4.861-6.814Z" transform="translate(-22.504 -40.151)" fill="#c0c2c4" opacity="0.266"/>
        <path id="Path_8" data-name="Path 8" d="M96.03,46.412l15.888.019v1.193l-15.888-.019Zm0,2.146,15.889.02v.874l-15.889-.019Zm0,1.75,15.889.019,0,.874-15.888-.019Zm0,1.432,15.888.019,0,1.192L96.02,52.931Zm0,2.464,15.888.019,0,1.748-15.888-.019Zm0,2.7,15.888.019v.8L96.014,57.7Zm0,1.352,15.888.019v.795l-15.888-.019Zm0,1.431,15.888.019V60.9L96.01,60.88Zm0,2.066,15.888.02v.795L96.007,62.55Zm0,1.352,15.888.019v.795L96.005,63.9Zm0,1.432,15.888.019,0,1.192L96,65.73Zm0,2.146,15.888.019V67.5L96,67.479Zm0,1.351,15.889.019v.795L96,68.83Zm0,1.432,15.888.019,0,1.192L96,70.659Zm0,2.464,15.888.019,0,1.75-15.888-.02Zm0,2.544,15.888.019v.795L95.99,75.269Zm0,1.35,15.888.02v.795L95.988,76.62Zm0,1.432,15.889.019,0,1.192-15.888-.019Zm0,2.465,15.888.019,0,1.748L95.981,81.47ZM89.317,47.857v4.456a1.152,1.152,0,1,1-2.3,0V47.857a1.152,1.152,0,1,1,2.3,0Zm0,8.914v4.456a1.152,1.152,0,1,1-2.3,0V56.771a1.152,1.152,0,1,1,2.3,0Zm0,8.914v4.456a1.152,1.152,0,0,1-2.3,0V65.685a1.152,1.152,0,1,1,2.3,0Zm0,8.914v4.456a1.152,1.152,0,1,1-2.3,0V74.6a1.152,1.152,0,1,1,2.3,0Zm-7.7-26.16a1.154,1.154,0,0,1-1.154,1.154H62.4a1.153,1.153,0,0,1,0-2.306H80.468A1.153,1.153,0,0,1,81.621,48.439Zm0,7.756a1.154,1.154,0,0,1-1.154,1.154H62.4a1.153,1.153,0,0,1,0-2.306H80.468A1.153,1.153,0,0,1,81.621,56.194Zm0,7.756A1.153,1.153,0,0,1,80.468,65.1H62.4a1.152,1.152,0,1,1,0-2.3H80.468A1.153,1.153,0,0,1,81.621,63.95Zm0,7.756a1.153,1.153,0,0,1-1.154,1.152H62.4a1.152,1.152,0,1,1,0-2.3H80.468A1.153,1.153,0,0,1,81.621,71.706Zm0,7.756a1.153,1.153,0,0,1-1.154,1.152H62.4a1.152,1.152,0,1,1,0-2.3H80.468A1.153,1.153,0,0,1,81.621,79.462Zm36.349,4.232a1.2,1.2,0,0,1-1.2,1.2H89.317V83.513a1.152,1.152,0,1,0-2.3,0V84.9H27.293a1.2,1.2,0,0,1-1.2-1.2V43.665a1.2,1.2,0,0,1,1.2-1.2H87.013V43.4a1.152,1.152,0,1,0,2.3,0v-.936h27.451a1.2,1.2,0,0,1,1.2,1.2Zm-1.2-43.536H88.291a1.14,1.14,0,0,0-.252,0H27.293a3.511,3.511,0,0,0-3.507,3.507V83.694A3.511,3.511,0,0,0,27.293,87.2h89.476a3.511,3.511,0,0,0,3.506-3.507V43.665A3.511,3.511,0,0,0,116.769,40.158ZM54.774,58.43a21,21,0,0,1-4.079,3.4,1.039,1.039,0,0,0-.445.988l1.487,12.111-1.712,1.03L47.106,65.642a1.042,1.042,0,0,0-1.528-.618,79.705,79.705,0,0,1-8.519,4.343c-.321.136-.632.263-.924.376a1.042,1.042,0,0,0-.66,1.021l.152,3.167-.223.134-.618-2.707a1.037,1.037,0,0,0-1.225-.79,2.738,2.738,0,0,1-.891.075,2.81,2.81,0,0,1,.485-.754,1.038,1.038,0,0,0-.123-1.45l-2.1-1.817.224-.136,2.721,1.619A1.041,1.041,0,0,0,35.091,68c.247-.213.5-.427.764-.639a79.8,79.8,0,0,1,7.827-5.5,1.043,1.043,0,0,0,.171-1.636l-7.729-7.42,1.711-1.031,9.985,6.993a1.041,1.041,0,0,0,1.082.07,21.024,21.024,0,0,1,4.9-2.014c.394-.082,1.335-.231,1.567.15h0C55.6,57.358,55.031,58.12,54.774,58.43Zm1.969-2.293c-1.277-2.1-5.041-.554-8.282,1.118l-10.05-7.038a.946.946,0,0,0-1.039-.039L34.564,51.87a.951.951,0,0,0-.171,1.5l7.826,7.513a79.386,79.386,0,0,0-7.379,5.23c-.164.133-.327.269-.487.4l-2.711-1.613-.007,0a.952.952,0,0,0-.97.007l-1.328.8a.95.95,0,0,0-.139,1.538l2.382,2.062A2.049,2.049,0,0,0,31.24,71.5l.006.008a2.038,2.038,0,0,0,2.091.725l.7,3.064a.951.951,0,0,0,1.42.61l1.337-.805a.95.95,0,0,0,.456-.859L37.1,71.09q.286-.116.586-.242a79.476,79.476,0,0,0,8.073-4.072l2.956,10.442,0,.007a.957.957,0,0,0,.914.686.962.962,0,0,0,.491-.137l2.816-1.695a.956.956,0,0,0,.449-.929l-1.5-12.194c3-2.086,6.132-4.7,4.861-6.814Z" transform="translate(-22.516 -40.151)" fill="#c1c3c4" opacity="0.309"/>
        <path id="Path_9" data-name="Path 9" d="M95.962,46.412l15.888.019v1.193L95.96,47.605Zm0,2.146,15.888.02v.874l-15.888-.019Zm0,1.75,15.889.019V51.2l-15.889-.019Zm0,1.432,15.888.019,0,1.192-15.888-.019Zm0,2.464,15.888.019,0,1.748-15.888-.019Zm0,2.7,15.888.019v.8L95.946,57.7Zm0,1.352,15.888.019v.795l-15.888-.019Zm0,1.431,15.888.019V60.9l-15.888-.02Zm0,2.066,15.888.02v.795L95.939,62.55Zm0,1.352,15.888.019v.795L95.937,63.9Zm0,1.432,15.888.019,0,1.192L95.935,65.73Zm0,2.146,15.888.019V67.5l-15.888-.019Zm0,1.351,15.889.019v.795L95.931,68.83Zm0,1.432,15.888.019,0,1.192-15.888-.019Zm0,2.464,15.888.019,0,1.75-15.888-.02Zm0,2.544,15.888.019v.795l-15.888-.019Zm0,1.35,15.888.02v.795L95.92,76.62Zm0,1.432,15.888.019,0,1.192-15.888-.019Zm0,2.465,15.888.019,0,1.748L95.914,81.47ZM89.249,47.857v4.456a1.152,1.152,0,1,1-2.3,0V47.857a1.152,1.152,0,1,1,2.3,0Zm0,8.914v4.456a1.152,1.152,0,1,1-2.3,0V56.771a1.152,1.152,0,1,1,2.3,0Zm0,8.914v4.456a1.152,1.152,0,0,1-2.3,0V65.685a1.152,1.152,0,1,1,2.3,0Zm0,8.914v4.456a1.152,1.152,0,1,1-2.3,0V74.6a1.152,1.152,0,1,1,2.3,0Zm-7.7-26.16A1.154,1.154,0,0,1,80.4,49.592H62.337a1.153,1.153,0,0,1,0-2.306H80.4A1.153,1.153,0,0,1,81.553,48.439Zm0,7.756A1.154,1.154,0,0,1,80.4,57.348H62.337a1.153,1.153,0,0,1,0-2.306H80.4A1.153,1.153,0,0,1,81.553,56.194Zm0,7.756A1.153,1.153,0,0,1,80.4,65.1H62.337a1.152,1.152,0,0,1,0-2.3H80.4A1.153,1.153,0,0,1,81.553,63.95Zm0,7.756A1.153,1.153,0,0,1,80.4,72.858H62.337a1.152,1.152,0,0,1,0-2.3H80.4A1.153,1.153,0,0,1,81.553,71.706Zm0,7.756A1.153,1.153,0,0,1,80.4,80.614H62.337a1.152,1.152,0,0,1,0-2.3H80.4A1.153,1.153,0,0,1,81.553,79.462ZM117.9,83.694a1.2,1.2,0,0,1-1.2,1.2H89.249V83.513a1.152,1.152,0,1,0-2.3,0V84.9H27.225a1.2,1.2,0,0,1-1.2-1.2V43.665a1.2,1.2,0,0,1,1.2-1.2H86.945V43.4a1.152,1.152,0,1,0,2.3,0v-.936H116.7a1.2,1.2,0,0,1,1.2,1.2Zm-1.2-43.536H88.223a1.14,1.14,0,0,0-.252,0H27.225a3.511,3.511,0,0,0-3.507,3.507V83.694A3.511,3.511,0,0,0,27.225,87.2H116.7a3.512,3.512,0,0,0,3.507-3.507V43.665A3.512,3.512,0,0,0,116.7,40.158ZM54.706,58.43a20.959,20.959,0,0,1-4.079,3.4,1.039,1.039,0,0,0-.445.988l1.487,12.111-1.712,1.03L47.038,65.642a1.042,1.042,0,0,0-1.528-.618,79.705,79.705,0,0,1-8.519,4.343c-.321.136-.632.263-.923.376a1.042,1.042,0,0,0-.662,1.021l.152,3.167-.223.134-.618-2.707a1.037,1.037,0,0,0-1.225-.79,2.738,2.738,0,0,1-.891.075,2.81,2.81,0,0,1,.485-.754,1.038,1.038,0,0,0-.123-1.45l-2.1-1.817.224-.136,2.721,1.619A1.041,1.041,0,0,0,35.023,68c.247-.213.5-.427.764-.639a79.8,79.8,0,0,1,7.827-5.5,1.043,1.043,0,0,0,.171-1.636l-7.729-7.42,1.711-1.031,9.985,6.993a1.041,1.041,0,0,0,1.082.07,21.008,21.008,0,0,1,4.9-2.014c.394-.082,1.335-.231,1.566.15h0C55.535,57.358,54.963,58.12,54.706,58.43Zm1.969-2.293c-1.277-2.1-5.041-.554-8.282,1.118l-10.05-7.038a.946.946,0,0,0-1.039-.039L34.5,51.87a.951.951,0,0,0-.171,1.5l7.826,7.513a79.386,79.386,0,0,0-7.379,5.23c-.164.133-.327.269-.487.4l-2.711-1.613-.007,0a.952.952,0,0,0-.97.007l-1.328.8a.95.95,0,0,0-.139,1.538l2.382,2.062a2.046,2.046,0,0,0-.338,2.195l0,.008a2.039,2.039,0,0,0,2.091.725l.7,3.064a.951.951,0,0,0,1.42.61l1.337-.805a.95.95,0,0,0,.456-.859l-.151-3.156q.284-.116.584-.242a79.475,79.475,0,0,0,8.073-4.072l2.956,10.442,0,.007a.957.957,0,0,0,.914.686.962.962,0,0,0,.491-.137l2.816-1.695a.954.954,0,0,0,.449-.929l-1.5-12.194c3-2.086,6.132-4.7,4.861-6.814Z" transform="translate(-22.527 -40.151)" fill="#c2c4c5" opacity="0.352"/>
        <path id="Path_10" data-name="Path 10" d="M95.894,46.412l15.888.019v1.193l-15.888-.019Zm0,2.146,15.888.02v.874L95.89,49.433Zm0,1.75,15.888.019V51.2l-15.888-.019Zm0,1.432,15.888.019V52.95l-15.889-.019Zm0,2.464,15.888.019,0,1.748-15.888-.019Zm0,2.7,15.888.019v.8L95.878,57.7Zm0,1.352,15.888.019v.795l-15.888-.019Zm0,1.431,15.889.019,0,1.193-15.888-.02Zm0,2.066,15.888.02v.795L95.871,62.55Zm0,1.352,15.888.019v.795L95.869,63.9Zm0,1.432,15.888.019,0,1.192L95.867,65.73Zm0,2.146,15.888.019V67.5l-15.888-.019Zm0,1.351,15.888.019v.795L95.863,68.83Zm0,1.432,15.888.019v1.192L95.86,70.659Zm0,2.464,15.888.019,0,1.75-15.888-.02Zm0,2.544,15.888.019v.795l-15.888-.019Zm0,1.35,15.888.02v.795L95.852,76.62Zm0,1.432,15.888.019,0,1.192-15.888-.019Zm0,2.465,15.888.019,0,1.748L95.846,81.47ZM89.181,47.857v4.456a1.152,1.152,0,1,1-2.3,0V47.857a1.152,1.152,0,1,1,2.3,0Zm0,8.914v4.456a1.152,1.152,0,1,1-2.3,0V56.771a1.152,1.152,0,1,1,2.3,0Zm0,8.914v4.456a1.152,1.152,0,1,1-2.3,0V65.685a1.152,1.152,0,1,1,2.3,0Zm0,8.914v4.456a1.152,1.152,0,1,1-2.3,0V74.6a1.152,1.152,0,1,1,2.3,0Zm-7.7-26.16a1.154,1.154,0,0,1-1.154,1.154H62.27a1.153,1.153,0,1,1,0-2.306H80.332A1.153,1.153,0,0,1,81.485,48.439Zm0,7.756a1.154,1.154,0,0,1-1.154,1.154H62.27a1.153,1.153,0,1,1,0-2.306H80.332A1.153,1.153,0,0,1,81.485,56.194Zm0,7.756A1.153,1.153,0,0,1,80.332,65.1H62.27a1.152,1.152,0,1,1,0-2.3H80.332A1.153,1.153,0,0,1,81.485,63.95Zm0,7.756a1.153,1.153,0,0,1-1.154,1.152H62.27a1.152,1.152,0,1,1,0-2.3H80.332A1.153,1.153,0,0,1,81.485,71.706Zm0,7.756a1.153,1.153,0,0,1-1.154,1.152H62.27a1.152,1.152,0,1,1,0-2.3H80.332A1.153,1.153,0,0,1,81.485,79.462Zm36.349,4.232a1.2,1.2,0,0,1-1.2,1.2H89.181V83.513a1.152,1.152,0,1,0-2.3,0V84.9H27.157a1.2,1.2,0,0,1-1.2-1.2V43.665a1.2,1.2,0,0,1,1.2-1.2H86.877V43.4a1.152,1.152,0,1,0,2.3,0v-.936h27.451a1.2,1.2,0,0,1,1.2,1.2Zm-1.2-43.536H88.155a1.111,1.111,0,0,0-.126-.007,1.126,1.126,0,0,0-.126.007H27.157a3.511,3.511,0,0,0-3.507,3.507V83.694A3.511,3.511,0,0,0,27.157,87.2h89.476a3.512,3.512,0,0,0,3.507-3.507V43.665A3.512,3.512,0,0,0,116.633,40.158ZM54.638,58.43a20.96,20.96,0,0,1-4.079,3.4,1.039,1.039,0,0,0-.445.988L51.6,74.925l-1.711,1.03L46.97,65.642a1.042,1.042,0,0,0-1.528-.618,79.706,79.706,0,0,1-8.519,4.343c-.321.136-.632.263-.923.376a1.042,1.042,0,0,0-.662,1.021l.152,3.167-.223.134-.618-2.707a1.037,1.037,0,0,0-1.225-.79,2.738,2.738,0,0,1-.891.075,2.81,2.81,0,0,1,.485-.754,1.036,1.036,0,0,0-.123-1.45l-2.1-1.817.224-.136,2.721,1.619A1.041,1.041,0,0,0,34.955,68c.247-.213.5-.427.764-.639a79.8,79.8,0,0,1,7.827-5.5,1.043,1.043,0,0,0,.171-1.636l-7.729-7.42L37.7,51.775l9.985,6.993a1.041,1.041,0,0,0,1.082.07,21.008,21.008,0,0,1,4.9-2.014c.394-.082,1.335-.231,1.566.15h0C55.467,57.358,54.9,58.12,54.638,58.43Zm1.969-2.293c-1.277-2.1-5.041-.554-8.282,1.118l-10.05-7.038a.946.946,0,0,0-1.039-.039L34.428,51.87a.951.951,0,0,0-.171,1.5l7.826,7.513a79.544,79.544,0,0,0-7.379,5.23c-.164.133-.327.269-.487.4l-2.711-1.613-.007,0a.952.952,0,0,0-.97.007l-1.328.8a.952.952,0,0,0-.139,1.538l2.382,2.062a2.051,2.051,0,0,0-.338,2.195l0,.008a2.039,2.039,0,0,0,2.091.725l.7,3.064a.951.951,0,0,0,1.42.61l1.337-.805a.95.95,0,0,0,.456-.859l-.151-3.156q.284-.116.584-.242a79.476,79.476,0,0,0,8.073-4.072l2.956,10.442,0,.007a.957.957,0,0,0,.914.686.962.962,0,0,0,.491-.137L52.8,76.079a.954.954,0,0,0,.449-.929l-1.5-12.194c3-2.086,6.132-4.7,4.862-6.814Z" transform="translate(-22.539 -40.151)" fill="#c3c5c6" opacity="0.395"/>
        <path id="Path_11" data-name="Path 11" d="M95.826,46.412l15.888.019v1.193l-15.888-.019Zm0,2.146,15.888.02v.874l-15.888-.019Zm0,1.75,15.888.019V51.2L95.82,51.182Zm0,1.432,15.888.019V52.95l-15.888-.019Zm0,2.464,15.888.019,0,1.748-15.888-.019Zm0,2.7,15.888.019v.8L95.81,57.7Zm0,1.352,15.888.019v.795l-15.888-.019Zm0,1.431,15.888.019,0,1.193-15.888-.02Zm0,2.066,15.888.02v.795L95.8,62.55Zm0,1.352,15.889.019v.795L95.8,63.9Zm0,1.432,15.888.019,0,1.192L95.8,65.73Zm0,2.146,15.888.019V67.5L95.8,67.479Zm0,1.351,15.888.019v.795L95.8,68.83Zm0,1.432,15.888.019v1.192l-15.888-.019Zm0,2.464,15.888.019,0,1.75-15.888-.02Zm0,2.544,15.888.019v.795l-15.888-.019Zm0,1.35,15.888.02v.795L95.784,76.62Zm0,1.432,15.888.019,0,1.192-15.888-.019Zm0,2.465,15.888.019,0,1.748L95.778,81.47ZM89.115,47.857v4.456a1.153,1.153,0,1,1-2.306,0V47.857a1.153,1.153,0,1,1,2.306,0Zm0,8.914v4.456a1.153,1.153,0,1,1-2.306,0V56.771a1.153,1.153,0,1,1,2.306,0Zm0,8.914v4.456a1.153,1.153,0,0,1-2.306,0V65.685a1.153,1.153,0,1,1,2.306,0Zm0,8.914v4.456a1.153,1.153,0,0,1-2.306,0V74.6a1.153,1.153,0,1,1,2.306,0Zm-7.7-26.16a1.154,1.154,0,0,1-1.154,1.154H62.2a1.153,1.153,0,1,1,0-2.306H80.264A1.153,1.153,0,0,1,81.417,48.439Zm0,7.756a1.154,1.154,0,0,1-1.154,1.154H62.2a1.153,1.153,0,1,1,0-2.306H80.264A1.153,1.153,0,0,1,81.417,56.194Zm0,7.756A1.153,1.153,0,0,1,80.264,65.1H62.2a1.152,1.152,0,1,1,0-2.3H80.264A1.153,1.153,0,0,1,81.417,63.95Zm0,7.756a1.153,1.153,0,0,1-1.154,1.152H62.2a1.152,1.152,0,1,1,0-2.3H80.264A1.153,1.153,0,0,1,81.417,71.706Zm0,7.756a1.153,1.153,0,0,1-1.154,1.152H62.2a1.152,1.152,0,1,1,0-2.3H80.264A1.153,1.153,0,0,1,81.417,79.462Zm36.349,4.232a1.2,1.2,0,0,1-1.2,1.2H89.115V83.513a1.153,1.153,0,1,0-2.306,0V84.9H27.089a1.2,1.2,0,0,1-1.2-1.2V43.665a1.2,1.2,0,0,1,1.2-1.2H86.809V43.4a1.153,1.153,0,1,0,2.306,0v-.936h27.45a1.2,1.2,0,0,1,1.2,1.2Zm-1.2-43.536H88.087a1.111,1.111,0,0,0-.126-.007,1.142,1.142,0,0,0-.126.007H27.089a3.511,3.511,0,0,0-3.507,3.507V83.694A3.511,3.511,0,0,0,27.089,87.2h89.476a3.512,3.512,0,0,0,3.507-3.507V43.665A3.512,3.512,0,0,0,116.565,40.158ZM54.57,58.43a20.96,20.96,0,0,1-4.079,3.4,1.039,1.039,0,0,0-.445.988l1.487,12.111-1.711,1.03L46.9,65.642a1.036,1.036,0,0,0-.611-.683,1.037,1.037,0,0,0-.915.064,79.823,79.823,0,0,1-8.52,4.343c-.321.136-.632.263-.923.376a1.042,1.042,0,0,0-.662,1.021l.152,3.167-.223.134-.617-2.707a1.038,1.038,0,0,0-1.226-.79,2.738,2.738,0,0,1-.891.075,2.811,2.811,0,0,1,.485-.754,1.036,1.036,0,0,0-.123-1.45l-2.1-1.817.224-.136,2.721,1.619A1.041,1.041,0,0,0,34.887,68c.247-.213.5-.427.764-.639a79.8,79.8,0,0,1,7.827-5.5,1.043,1.043,0,0,0,.171-1.636l-7.729-7.42,1.712-1.031,9.983,6.993a1.041,1.041,0,0,0,1.082.07,21.008,21.008,0,0,1,4.9-2.014c.394-.082,1.335-.231,1.566.15h0C55.4,57.358,54.827,58.12,54.57,58.43Zm1.969-2.293c-1.277-2.1-5.041-.554-8.282,1.118l-10.05-7.038a.946.946,0,0,0-1.039-.039L34.36,51.87a.951.951,0,0,0-.171,1.5l7.826,7.513a79.543,79.543,0,0,0-7.379,5.23c-.164.133-.327.269-.487.4l-2.711-1.613-.007,0a.952.952,0,0,0-.97.007l-1.328.8a.952.952,0,0,0-.139,1.538l2.382,2.062a2.051,2.051,0,0,0-.338,2.195l0,.008a2.039,2.039,0,0,0,2.091.725l.7,3.064a.951.951,0,0,0,1.42.61L36.59,75.1a.95.95,0,0,0,.456-.859L36.9,71.09c.189-.077.386-.158.584-.242a79.476,79.476,0,0,0,8.073-4.072l2.957,10.442v.007a.957.957,0,0,0,.914.686.962.962,0,0,0,.491-.137l2.816-1.695a.954.954,0,0,0,.449-.929l-1.5-12.194c3-2.086,6.132-4.7,4.862-6.814Z" transform="translate(-22.55 -40.151)" fill="#c4c6c7" opacity="0.439"/>
        <path id="Path_12" data-name="Path 12" d="M95.758,46.412l15.888.019v1.193l-15.888-.019Zm0,2.146,15.888.02v.874l-15.888-.019Zm0,1.75,15.888.019V51.2l-15.888-.019Zm0,1.432,15.888.019V52.95l-15.888-.019Zm0,2.464,15.888.019,0,1.748-15.888-.019Zm0,2.7,15.888.019v.8L95.742,57.7Zm0,1.352,15.888.019v.795L95.74,59.052Zm0,1.431,15.888.019,0,1.193-15.888-.02Zm0,2.066,15.888.02v.795L95.735,62.55Zm0,1.352,15.888.019v.795L95.734,63.9Zm0,1.432,15.888.019v1.192L95.731,65.73Zm0,2.146,15.888.019V67.5l-15.888-.019Zm0,1.351,15.888.019v.795L95.727,68.83Zm0,1.432,15.888.019v1.192l-15.888-.019Zm0,2.464,15.888.019,0,1.75-15.888-.02Zm0,2.544,15.888.019v.795l-15.888-.019Zm0,1.35,15.889.02v.795L95.717,76.62Zm0,1.432,15.888.019,0,1.192-15.888-.019Zm0,2.465,15.888.019,0,1.748L95.71,81.47ZM89.047,47.857v4.456a1.153,1.153,0,1,1-2.306,0V47.857a1.153,1.153,0,1,1,2.306,0Zm0,8.914v4.456a1.153,1.153,0,1,1-2.306,0V56.771a1.153,1.153,0,1,1,2.306,0Zm0,8.914v4.456a1.153,1.153,0,0,1-2.306,0V65.685a1.153,1.153,0,1,1,2.306,0Zm0,8.914v4.456a1.153,1.153,0,0,1-2.306,0V74.6a1.153,1.153,0,1,1,2.306,0Zm-7.7-26.16A1.154,1.154,0,0,1,80.2,49.592H62.134a1.153,1.153,0,1,1,0-2.306H80.2A1.153,1.153,0,0,1,81.349,48.439Zm0,7.756A1.154,1.154,0,0,1,80.2,57.348H62.134a1.153,1.153,0,1,1,0-2.306H80.2A1.153,1.153,0,0,1,81.349,56.194Zm0,7.756A1.153,1.153,0,0,1,80.2,65.1H62.134a1.152,1.152,0,1,1,0-2.3H80.2A1.153,1.153,0,0,1,81.349,63.95Zm0,7.756A1.153,1.153,0,0,1,80.2,72.858H62.134a1.152,1.152,0,1,1,0-2.3H80.2A1.153,1.153,0,0,1,81.349,71.706Zm0,7.756A1.153,1.153,0,0,1,80.2,80.614H62.134a1.152,1.152,0,1,1,0-2.3H80.2A1.153,1.153,0,0,1,81.349,79.462ZM117.7,83.694a1.2,1.2,0,0,1-1.2,1.2H89.047V83.513a1.153,1.153,0,1,0-2.306,0V84.9H27.021a1.2,1.2,0,0,1-1.2-1.2V43.665a1.2,1.2,0,0,1,1.2-1.2H86.741V43.4a1.153,1.153,0,1,0,2.306,0v-.936H116.5a1.2,1.2,0,0,1,1.2,1.2Zm-1.2-43.536H88.019a1.111,1.111,0,0,0-.126-.007,1.142,1.142,0,0,0-.126.007H27.021a3.512,3.512,0,0,0-3.507,3.507V83.694A3.512,3.512,0,0,0,27.021,87.2H116.5A3.511,3.511,0,0,0,120,83.694V43.665A3.511,3.511,0,0,0,116.5,40.158ZM54.5,58.43a20.96,20.96,0,0,1-4.079,3.4,1.039,1.039,0,0,0-.445.988l1.487,12.111-1.711,1.03-2.92-10.312a1.036,1.036,0,0,0-.611-.683,1.037,1.037,0,0,0-.915.064,79.823,79.823,0,0,1-8.52,4.343c-.321.136-.632.263-.923.376a1.043,1.043,0,0,0-.662,1.021l.152,3.167-.223.134-.617-2.707a1.038,1.038,0,0,0-1.226-.79,2.739,2.739,0,0,1-.891.075,2.811,2.811,0,0,1,.485-.754,1.036,1.036,0,0,0-.123-1.45l-2.1-1.817.224-.136,2.721,1.619A1.041,1.041,0,0,0,34.819,68c.247-.213.5-.427.764-.639a79.8,79.8,0,0,1,7.827-5.5,1.043,1.043,0,0,0,.171-1.636l-7.729-7.42,1.712-1.031,9.983,6.993a1.041,1.041,0,0,0,1.082.07,21.008,21.008,0,0,1,4.9-2.014c.394-.082,1.335-.231,1.566.15h0C55.331,57.358,54.759,58.12,54.5,58.43Zm1.969-2.293c-1.277-2.1-5.041-.554-8.282,1.118L38.14,50.217a.946.946,0,0,0-1.039-.039L34.292,51.87a.953.953,0,0,0-.171,1.5l7.826,7.513a79.543,79.543,0,0,0-7.379,5.23c-.164.133-.327.269-.487.4l-2.71-1.613-.008,0a.952.952,0,0,0-.97.007l-1.328.8a.951.951,0,0,0-.138,1.538l2.381,2.062a2.051,2.051,0,0,0-.338,2.195l0,.008a2.039,2.039,0,0,0,2.091.725l.7,3.064a.951.951,0,0,0,1.42.61l1.337-.805a.948.948,0,0,0,.456-.859l-.151-3.156c.189-.077.386-.158.584-.242a79.6,79.6,0,0,0,8.074-4.072l2.956,10.442v.007a.951.951,0,0,0,1.4.549l2.816-1.695a.952.952,0,0,0,.449-.929l-1.5-12.194c3-2.086,6.132-4.7,4.862-6.814Z" transform="translate(-22.561 -40.151)" fill="#c5c7c8" opacity="0.482"/>
        <path id="Path_13" data-name="Path 13" d="M95.69,46.412l15.888.019v1.193l-15.888-.019Zm0,2.146,15.888.02v.874l-15.888-.019Zm0,1.75,15.888.019V51.2l-15.888-.019Zm0,1.432,15.888.019V52.95l-15.888-.019Zm0,2.464,15.888.019,0,1.748-15.888-.019Zm0,2.7,15.888.019v.8L95.674,57.7Zm0,1.352,15.888.019v.795l-15.889-.019Zm0,1.431,15.888.019,0,1.193L95.67,60.88Zm0,2.066,15.888.02v.795L95.667,62.55Zm0,1.352,15.888.019v.795L95.666,63.9Zm0,1.432,15.888.019v1.192L95.663,65.73Zm0,2.146,15.888.019V67.5L95.66,67.479Zm0,1.351,15.888.019v.795L95.659,68.83Zm0,1.432,15.888.019v1.192l-15.888-.019Zm0,2.464,15.888.019,0,1.75-15.888-.02Zm0,2.544,15.888.019v.795L95.65,75.269Zm0,1.35,15.888.02v.795L95.649,76.62Zm0,1.432,15.888.019v1.192l-15.889-.019Zm0,2.465,15.888.019,0,1.748L95.642,81.47ZM88.979,47.857v4.456a1.153,1.153,0,1,1-2.306,0V47.857a1.153,1.153,0,1,1,2.306,0Zm0,8.914v4.456a1.153,1.153,0,1,1-2.306,0V56.771a1.153,1.153,0,1,1,2.306,0Zm0,8.914v4.456a1.153,1.153,0,0,1-2.306,0V65.685a1.153,1.153,0,1,1,2.306,0Zm0,8.914v4.456a1.153,1.153,0,0,1-2.306,0V74.6a1.153,1.153,0,1,1,2.306,0Zm-7.7-26.16a1.153,1.153,0,0,1-1.152,1.154H62.066a1.153,1.153,0,1,1,0-2.306H80.129A1.153,1.153,0,0,1,81.281,48.439Zm0,7.756a1.153,1.153,0,0,1-1.152,1.154H62.066a1.153,1.153,0,1,1,0-2.306H80.129A1.152,1.152,0,0,1,81.281,56.194Zm0,7.756A1.152,1.152,0,0,1,80.129,65.1H62.066a1.152,1.152,0,1,1,0-2.3H80.129A1.152,1.152,0,0,1,81.281,63.95Zm0,7.756a1.152,1.152,0,0,1-1.152,1.152H62.066a1.152,1.152,0,1,1,0-2.3H80.129A1.152,1.152,0,0,1,81.281,71.706Zm0,7.756a1.152,1.152,0,0,1-1.152,1.152H62.066a1.152,1.152,0,1,1,0-2.3H80.129A1.152,1.152,0,0,1,81.281,79.462Zm36.349,4.232a1.2,1.2,0,0,1-1.2,1.2H88.979V83.513a1.153,1.153,0,1,0-2.306,0V84.9H26.953a1.2,1.2,0,0,1-1.2-1.2V43.665a1.2,1.2,0,0,1,1.2-1.2H86.673V43.4a1.153,1.153,0,1,0,2.306,0v-.936h27.45a1.2,1.2,0,0,1,1.2,1.2Zm-1.2-43.536H87.952a1.15,1.15,0,0,0-.254,0H26.953a3.512,3.512,0,0,0-3.507,3.507V83.694A3.512,3.512,0,0,0,26.953,87.2h89.476a3.511,3.511,0,0,0,3.507-3.507V43.665A3.511,3.511,0,0,0,116.429,40.158ZM54.434,58.43a20.96,20.96,0,0,1-4.079,3.4,1.039,1.039,0,0,0-.445.988L51.4,74.925l-1.711,1.03-2.92-10.312a1.036,1.036,0,0,0-.611-.683,1.037,1.037,0,0,0-.915.064,79.822,79.822,0,0,1-8.52,4.343c-.321.136-.632.263-.923.376a1.043,1.043,0,0,0-.662,1.021l.152,3.167-.222.134-.618-2.707a1.038,1.038,0,0,0-1.226-.79,2.738,2.738,0,0,1-.891.075,2.81,2.81,0,0,1,.485-.754,1.036,1.036,0,0,0-.123-1.45l-2.1-1.817.224-.136,2.721,1.619A1.041,1.041,0,0,0,34.751,68c.247-.213.5-.427.764-.639a79.945,79.945,0,0,1,7.827-5.5,1.043,1.043,0,0,0,.171-1.636l-7.729-7.42L37.5,51.775l9.983,6.993a1.041,1.041,0,0,0,1.082.07,21.008,21.008,0,0,1,4.9-2.014c.394-.082,1.335-.231,1.566.15h0C55.263,57.358,54.691,58.12,54.434,58.43ZM56.4,56.137c-1.276-2.1-5.041-.554-8.282,1.118l-10.05-7.038a.946.946,0,0,0-1.039-.039L34.224,51.87a.953.953,0,0,0-.171,1.5l7.826,7.513a79.544,79.544,0,0,0-7.379,5.23c-.164.133-.327.269-.487.4L31.3,64.906l-.008,0a.952.952,0,0,0-.97.007l-1.328.8a.951.951,0,0,0-.138,1.538l2.381,2.062A2.051,2.051,0,0,0,30.9,71.5l0,.008A2.04,2.04,0,0,0,33,72.235l.7,3.064a.951.951,0,0,0,1.42.61l1.337-.805a.951.951,0,0,0,.457-.859l-.152-3.156c.189-.077.386-.158.584-.242a79.6,79.6,0,0,0,8.074-4.072l2.956,10.442v.007a.951.951,0,0,0,1.4.549l2.816-1.695a.952.952,0,0,0,.449-.929l-1.5-12.194c3-2.086,6.132-4.7,4.862-6.814Z" transform="translate(-22.573 -40.151)" fill="#c5c8c9" opacity="0.525"/>
        <path id="Path_14" data-name="Path 14" d="M95.622,46.412l15.889.019,0,1.193L95.62,47.605Zm0,2.146,15.888.02v.874l-15.888-.019Zm0,1.75,15.888.019V51.2l-15.888-.019Zm0,1.432,15.888.019V52.95l-15.888-.019Zm0,2.464,15.888.019,0,1.748-15.888-.019Zm0,2.7,15.888.019v.8L95.606,57.7Zm0,1.352,15.889.019v.795L95.6,59.052Zm0,1.431,15.888.019,0,1.193L95.6,60.88Zm0,2.066,15.888.02v.795L95.6,62.55Zm0,1.352,15.888.019v.795L95.6,63.9Zm0,1.432,15.888.019v1.192L95.6,65.73Zm0,2.146,15.889.019V67.5l-15.889-.019Zm0,1.351,15.888.019v.795L95.591,68.83Zm0,1.432,15.888.019v1.192l-15.888-.019Zm0,2.464,15.888.019,0,1.75-15.888-.02Zm0,2.544,15.888.019v.795l-15.888-.019Zm0,1.35,15.888.02v.795L95.581,76.62Zm0,1.432,15.888.019v1.192l-15.889-.019Zm0,2.465,15.888.019,0,1.748L95.574,81.47ZM88.911,47.857v4.456a1.153,1.153,0,1,1-2.306,0V47.857a1.153,1.153,0,1,1,2.306,0Zm0,8.914v4.456a1.153,1.153,0,1,1-2.306,0V56.771a1.153,1.153,0,1,1,2.306,0Zm0,8.914v4.456a1.153,1.153,0,0,1-2.306,0V65.685a1.153,1.153,0,1,1,2.306,0Zm0,8.914v4.456a1.153,1.153,0,0,1-2.306,0V74.6a1.153,1.153,0,1,1,2.306,0Zm-7.7-26.16a1.153,1.153,0,0,1-1.152,1.154H62a1.153,1.153,0,1,1,0-2.306H80.061A1.153,1.153,0,0,1,81.213,48.439Zm0,7.756a1.153,1.153,0,0,1-1.152,1.154H62a1.153,1.153,0,1,1,0-2.306H80.061A1.152,1.152,0,0,1,81.213,56.194Zm0,7.756A1.152,1.152,0,0,1,80.061,65.1H62a1.152,1.152,0,1,1,0-2.3H80.061A1.152,1.152,0,0,1,81.213,63.95Zm0,7.756a1.152,1.152,0,0,1-1.152,1.152H62a1.152,1.152,0,1,1,0-2.3H80.061A1.152,1.152,0,0,1,81.213,71.706Zm0,7.756a1.152,1.152,0,0,1-1.152,1.152H62a1.152,1.152,0,1,1,0-2.3H80.061A1.152,1.152,0,0,1,81.213,79.462Zm36.349,4.232a1.2,1.2,0,0,1-1.2,1.2H88.911V83.513a1.153,1.153,0,1,0-2.306,0V84.9H26.885a1.2,1.2,0,0,1-1.2-1.2V43.665a1.2,1.2,0,0,1,1.2-1.2H86.6V43.4a1.153,1.153,0,1,0,2.306,0v-.936h27.45a1.2,1.2,0,0,1,1.2,1.2Zm-1.2-43.536H87.884a1.15,1.15,0,0,0-.254,0H26.885a3.512,3.512,0,0,0-3.507,3.507V83.694A3.512,3.512,0,0,0,26.885,87.2h89.476a3.511,3.511,0,0,0,3.507-3.507V43.665A3.511,3.511,0,0,0,116.361,40.158ZM54.367,58.43a21.011,21.011,0,0,1-4.08,3.4,1.039,1.039,0,0,0-.445.988l1.487,12.111-1.711,1.03L46.7,65.642a1.036,1.036,0,0,0-.611-.683,1.037,1.037,0,0,0-.915.064,79.823,79.823,0,0,1-8.52,4.343c-.321.136-.632.263-.923.376a1.043,1.043,0,0,0-.662,1.021l.152,3.167L35,74.067l-.618-2.707a1.038,1.038,0,0,0-1.226-.79,2.738,2.738,0,0,1-.891.075,2.811,2.811,0,0,1,.485-.754,1.037,1.037,0,0,0-.122-1.45l-2.1-1.817.224-.136,2.721,1.619A1.041,1.041,0,0,0,34.683,68c.247-.213.5-.427.764-.639a79.945,79.945,0,0,1,7.827-5.5,1.043,1.043,0,0,0,.171-1.636l-7.729-7.42,1.712-1.031,9.985,6.993a1.041,1.041,0,0,0,1.082.07,20.984,20.984,0,0,1,4.9-2.014c.394-.082,1.335-.231,1.567.15h0C55.2,57.358,54.623,58.12,54.367,58.43Zm1.968-2.293c-1.276-2.1-5.041-.554-8.282,1.118L38,50.217a.946.946,0,0,0-1.039-.039L34.156,51.87a.953.953,0,0,0-.171,1.5l7.826,7.513a79.355,79.355,0,0,0-7.378,5.23c-.165.133-.328.269-.489.4l-2.71-1.613-.008,0a.95.95,0,0,0-.969.007l-1.329.8a.951.951,0,0,0-.138,1.538l2.381,2.062a2.051,2.051,0,0,0-.338,2.195l0,.008a2.04,2.04,0,0,0,2.092.725l.7,3.064a.952.952,0,0,0,1.42.61l1.338-.805a.952.952,0,0,0,.456-.859l-.152-3.156c.189-.077.386-.158.584-.242a79.6,79.6,0,0,0,8.074-4.072L48.3,77.218l0,.007a.955.955,0,0,0,.913.686.959.959,0,0,0,.491-.137l2.816-1.695a.952.952,0,0,0,.449-.929l-1.5-12.194c3-2.086,6.132-4.7,4.862-6.814Z" transform="translate(-22.584 -40.151)" fill="#c6c8ca" opacity="0.568"/>
        <path id="Path_15" data-name="Path 15" d="M95.555,46.412l15.888.019,0,1.193-15.888-.019Zm0,2.146,15.888.02v.874L95.55,49.433Zm0,1.75,15.888.019V51.2l-15.888-.019Zm0,1.432,15.888.019V52.95l-15.888-.019Zm0,2.464,15.888.019,0,1.748-15.888-.019Zm0,2.7,15.888.019v.8L95.538,57.7Zm0,1.352,15.889.019v.795l-15.888-.019Zm0,1.431,15.888.019,0,1.193-15.888-.02Zm0,2.066,15.888.02v.795L95.531,62.55Zm0,1.352,15.888.019v.795L95.53,63.9Zm0,1.432,15.888.019v1.192L95.528,65.73Zm0,2.146,15.888.019V67.5l-15.888-.019Zm0,1.351,15.888.019v.795L95.523,68.83Zm0,1.432,15.888.019v1.192l-15.888-.019Zm0,2.464,15.888.019,0,1.75-15.888-.02Zm0,2.544,15.888.019v.795l-15.888-.019Zm0,1.35,15.888.02v.795L95.513,76.62Zm0,1.432,15.888.019v1.192L95.51,78.448Zm0,2.465,15.888.019,0,1.748L95.506,81.47ZM88.842,47.857v4.456a1.153,1.153,0,1,1-2.306,0V47.857a1.153,1.153,0,1,1,2.306,0Zm0,8.914v4.456a1.153,1.153,0,1,1-2.306,0V56.771a1.153,1.153,0,1,1,2.306,0Zm0,8.914v4.456a1.153,1.153,0,0,1-2.306,0V65.685a1.153,1.153,0,1,1,2.306,0Zm0,8.914v4.456a1.153,1.153,0,0,1-2.306,0V74.6a1.153,1.153,0,1,1,2.306,0Zm-7.7-26.16a1.153,1.153,0,0,1-1.152,1.154H61.93a1.153,1.153,0,0,1,0-2.306H79.993A1.153,1.153,0,0,1,81.145,48.439Zm0,7.756a1.153,1.153,0,0,1-1.152,1.154H61.93a1.153,1.153,0,0,1,0-2.306H79.993A1.152,1.152,0,0,1,81.145,56.194Zm0,7.756A1.152,1.152,0,0,1,79.993,65.1H61.93a1.152,1.152,0,1,1,0-2.3H79.993A1.152,1.152,0,0,1,81.145,63.95Zm0,7.756a1.152,1.152,0,0,1-1.152,1.152H61.93a1.152,1.152,0,1,1,0-2.3H79.993A1.152,1.152,0,0,1,81.145,71.706Zm0,7.756a1.152,1.152,0,0,1-1.152,1.152H61.93a1.152,1.152,0,1,1,0-2.3H79.993A1.152,1.152,0,0,1,81.145,79.462Zm36.349,4.232a1.2,1.2,0,0,1-1.2,1.2H88.842V83.513a1.153,1.153,0,1,0-2.306,0V84.9H26.818a1.2,1.2,0,0,1-1.2-1.2V43.665a1.2,1.2,0,0,1,1.2-1.2H86.537V43.4a1.153,1.153,0,1,0,2.306,0v-.936h27.45a1.2,1.2,0,0,1,1.2,1.2Zm-1.2-43.536H87.816a1.15,1.15,0,0,0-.254,0H26.818a3.511,3.511,0,0,0-3.507,3.507V83.694A3.511,3.511,0,0,0,26.818,87.2h89.474a3.511,3.511,0,0,0,3.507-3.507V43.665A3.511,3.511,0,0,0,116.293,40.158ZM54.3,58.43a21.011,21.011,0,0,1-4.08,3.4,1.039,1.039,0,0,0-.445.988L51.26,74.925l-1.711,1.03L46.63,65.642a1.034,1.034,0,0,0-.611-.683,1.037,1.037,0,0,0-.915.064,79.6,79.6,0,0,1-8.52,4.343c-.321.136-.632.263-.923.376A1.043,1.043,0,0,0,35,70.765l.152,3.167-.222.134L34.31,71.36a1.038,1.038,0,0,0-1.225-.79,2.746,2.746,0,0,1-.892.075,2.843,2.843,0,0,1,.485-.754,1.037,1.037,0,0,0-.122-1.45l-2.1-1.817.224-.136L33.4,68.106A1.041,1.041,0,0,0,34.615,68c.247-.213.5-.427.764-.639a79.832,79.832,0,0,1,7.828-5.5,1.044,1.044,0,0,0,.169-1.636l-7.729-7.42,1.712-1.031,9.985,6.993a1.041,1.041,0,0,0,1.082.07,20.984,20.984,0,0,1,4.9-2.014c.394-.082,1.335-.231,1.567.15h0C55.128,57.358,54.555,58.12,54.3,58.43Zm1.968-2.293c-1.276-2.1-5.041-.554-8.282,1.118l-10.05-7.038a.946.946,0,0,0-1.039-.039L34.088,51.87a.953.953,0,0,0-.171,1.5l7.826,7.513a79.355,79.355,0,0,0-7.378,5.23c-.165.133-.327.269-.489.4l-2.71-1.613-.007,0a.952.952,0,0,0-.97.007l-1.329.8a.951.951,0,0,0-.138,1.538L31.1,69.308a2.051,2.051,0,0,0-.338,2.195l0,.008a2.04,2.04,0,0,0,2.092.725l.7,3.064a.952.952,0,0,0,1.42.61l1.338-.805a.952.952,0,0,0,.456-.859l-.152-3.156c.189-.077.386-.158.584-.242a79.6,79.6,0,0,0,8.074-4.072l2.956,10.442,0,.007a.955.955,0,0,0,.913.686.959.959,0,0,0,.491-.137l2.816-1.695a.952.952,0,0,0,.449-.929l-1.5-12.194c3-2.086,6.134-4.7,4.862-6.814Z" transform="translate(-22.596 -40.151)" fill="#c7c9cb" opacity="0.611"/>
        <path id="Path_16" data-name="Path 16" d="M95.487,46.412l15.888.019,0,1.193-15.888-.019Zm0,2.146,15.888.02v.874l-15.888-.019Zm0,1.75,15.888.019V51.2L95.48,51.182Zm0,1.432,15.888.019V52.95l-15.888-.019Zm0,2.464,15.888.019,0,1.748-15.888-.019Zm0,2.7,15.888.019v.8L95.47,57.7Zm0,1.352,15.888.019v.795l-15.888-.019Zm0,1.431,15.888.019V60.9l-15.889-.02Zm0,2.066,15.889.02v.795L95.463,62.55Zm0,1.352,15.888.019v.795L95.462,63.9Zm0,1.432,15.888.019v1.192L95.46,65.73Zm0,2.146,15.888.019V67.5l-15.888-.019Zm0,1.351,15.888.019v.795L95.455,68.83Zm0,1.432,15.888.019v1.192l-15.888-.019Zm0,2.464,15.888.019,0,1.75-15.888-.02Zm0,2.544,15.888.019v.795l-15.889-.019Zm0,1.35,15.888.02v.795L95.445,76.62Zm0,1.432,15.888.019v1.192l-15.888-.019Zm0,2.465,15.888.019,0,1.748L95.438,81.47ZM88.774,47.857v4.456a1.153,1.153,0,1,1-2.306,0V47.857a1.153,1.153,0,1,1,2.306,0Zm0,8.914v4.456a1.153,1.153,0,1,1-2.306,0V56.771a1.153,1.153,0,1,1,2.306,0Zm0,8.914v4.456a1.153,1.153,0,0,1-2.306,0V65.685a1.153,1.153,0,1,1,2.306,0Zm0,8.914v4.456a1.153,1.153,0,0,1-2.306,0V74.6a1.153,1.153,0,1,1,2.306,0Zm-7.7-26.16a1.153,1.153,0,0,1-1.152,1.154H61.862a1.153,1.153,0,0,1,0-2.306H79.925A1.153,1.153,0,0,1,81.077,48.439Zm0,7.756a1.153,1.153,0,0,1-1.152,1.154H61.862a1.153,1.153,0,0,1,0-2.306H79.925A1.152,1.152,0,0,1,81.077,56.194Zm0,7.756A1.152,1.152,0,0,1,79.925,65.1H61.862a1.152,1.152,0,0,1,0-2.3H79.925A1.152,1.152,0,0,1,81.077,63.95Zm0,7.756a1.152,1.152,0,0,1-1.152,1.152H61.862a1.152,1.152,0,0,1,0-2.3H79.925A1.152,1.152,0,0,1,81.077,71.706Zm0,7.756a1.152,1.152,0,0,1-1.152,1.152H61.862a1.152,1.152,0,0,1,0-2.3H79.925A1.152,1.152,0,0,1,81.077,79.462Zm36.349,4.232a1.2,1.2,0,0,1-1.2,1.2H88.774V83.513a1.153,1.153,0,1,0-2.306,0V84.9H26.75a1.2,1.2,0,0,1-1.2-1.2V43.665a1.2,1.2,0,0,1,1.2-1.2H86.469V43.4a1.153,1.153,0,1,0,2.306,0v-.936h27.45a1.2,1.2,0,0,1,1.2,1.2Zm-1.2-43.536H87.748a1.15,1.15,0,0,0-.254,0H26.75a3.511,3.511,0,0,0-3.507,3.507V83.694A3.511,3.511,0,0,0,26.75,87.2h89.474a3.511,3.511,0,0,0,3.507-3.507V43.665A3.511,3.511,0,0,0,116.225,40.158ZM54.231,58.43a21.011,21.011,0,0,1-4.08,3.4,1.039,1.039,0,0,0-.445.988l1.487,12.111-1.711,1.03-2.92-10.312a1.034,1.034,0,0,0-.611-.683,1.037,1.037,0,0,0-.915.064,79.6,79.6,0,0,1-8.52,4.343c-.321.136-.632.263-.923.376a1.043,1.043,0,0,0-.662,1.021l.152,3.167-.222.134-.618-2.707a1.038,1.038,0,0,0-1.225-.79,2.746,2.746,0,0,1-.892.075,2.828,2.828,0,0,1,.486-.754,1.038,1.038,0,0,0-.123-1.45l-2.1-1.817.224-.136,2.721,1.619A1.041,1.041,0,0,0,34.547,68c.247-.213.5-.427.764-.639a79.833,79.833,0,0,1,7.828-5.5,1.042,1.042,0,0,0,.169-1.636l-7.729-7.42,1.712-1.031,9.985,6.993a1.041,1.041,0,0,0,1.082.07,20.984,20.984,0,0,1,4.9-2.014c.394-.082,1.335-.231,1.567.15h0C55.06,57.358,54.487,58.12,54.231,58.43ZM56.2,56.137c-1.277-2.1-5.042-.554-8.283,1.118l-10.05-7.038a.946.946,0,0,0-1.039-.039L34.02,51.87a.953.953,0,0,0-.171,1.5l7.826,7.513a79.355,79.355,0,0,0-7.378,5.23c-.165.133-.327.269-.489.4L31.1,64.906l-.007,0a.952.952,0,0,0-.97.007l-1.329.8a.951.951,0,0,0-.138,1.538l2.381,2.062A2.051,2.051,0,0,0,30.7,71.5l0,.008a2.04,2.04,0,0,0,2.092.725l.7,3.064a.95.95,0,0,0,1.419.61l1.338-.805a.952.952,0,0,0,.456-.859l-.152-3.156q.286-.116.586-.242a79.718,79.718,0,0,0,8.073-4.072l2.956,10.442,0,.007a.95.95,0,0,0,1.4.549l2.816-1.695a.952.952,0,0,0,.449-.929l-1.5-12.194c3-2.086,6.134-4.7,4.862-6.814Z" transform="translate(-22.607 -40.151)" fill="#c8cacc" opacity="0.655"/>
        <path id="Path_17" data-name="Path 17" d="M95.419,46.412l15.888.019,0,1.193-15.888-.019Zm0,2.146,15.888.02v.874l-15.888-.019Zm0,1.75,15.888.019V51.2l-15.888-.019Zm0,1.432,15.888.019V52.95l-15.888-.019Zm0,2.464,15.889.019,0,1.748L95.4,55.951Zm0,2.7,15.888.019v.8L95.4,57.7Zm0,1.352,15.888.019v.795L95.4,59.052Zm0,1.431,15.888.019V60.9L95.4,60.88Zm0,2.066,15.889.02v.795L95.4,62.55Zm0,1.352,15.888.019v.795L95.394,63.9Zm0,1.432,15.888.019v1.192L95.392,65.73Zm0,2.146,15.888.019V67.5l-15.888-.019Zm0,1.351,15.888.019v.795L95.387,68.83Zm0,1.432,15.888.019v1.192l-15.888-.019Zm0,2.464,15.889.019,0,1.75-15.888-.02Zm0,2.544,15.889.019v.795l-15.889-.019Zm0,1.35,15.888.02v.795L95.377,76.62Zm0,1.432,15.888.019v1.192l-15.888-.019Zm0,2.465,15.888.019,0,1.748L95.369,81.47ZM88.706,47.857v4.456a1.153,1.153,0,1,1-2.306,0V47.857a1.153,1.153,0,1,1,2.306,0Zm0,8.914v4.456a1.153,1.153,0,1,1-2.306,0V56.771a1.153,1.153,0,1,1,2.306,0Zm0,8.914v4.456a1.153,1.153,0,0,1-2.306,0V65.685a1.153,1.153,0,1,1,2.306,0Zm0,8.914v4.456a1.153,1.153,0,0,1-2.306,0V74.6a1.153,1.153,0,1,1,2.306,0Zm-7.7-26.16a1.153,1.153,0,0,1-1.152,1.154H61.794a1.153,1.153,0,0,1,0-2.306H79.857A1.152,1.152,0,0,1,81.009,48.439Zm0,7.756a1.153,1.153,0,0,1-1.152,1.154H61.794a1.153,1.153,0,0,1,0-2.306H79.857A1.152,1.152,0,0,1,81.009,56.194Zm0,7.756A1.152,1.152,0,0,1,79.857,65.1H61.794a1.152,1.152,0,0,1,0-2.3H79.857A1.152,1.152,0,0,1,81.009,63.95Zm0,7.756a1.152,1.152,0,0,1-1.152,1.152H61.794a1.152,1.152,0,0,1,0-2.3H79.857A1.152,1.152,0,0,1,81.009,71.706Zm0,7.756a1.152,1.152,0,0,1-1.152,1.152H61.794a1.152,1.152,0,0,1,0-2.3H79.857A1.152,1.152,0,0,1,81.009,79.462Zm36.349,4.232a1.2,1.2,0,0,1-1.2,1.2H88.706V83.513a1.153,1.153,0,1,0-2.306,0V84.9H26.682a1.2,1.2,0,0,1-1.2-1.2V43.665a1.2,1.2,0,0,1,1.2-1.2H86.4V43.4a1.153,1.153,0,1,0,2.306,0v-.936h27.45a1.2,1.2,0,0,1,1.2,1.2Zm-1.2-43.536H87.68a1.15,1.15,0,0,0-.254,0H26.682a3.511,3.511,0,0,0-3.507,3.507V83.694A3.511,3.511,0,0,0,26.682,87.2h89.474a3.511,3.511,0,0,0,3.507-3.507V43.665A3.511,3.511,0,0,0,116.157,40.158ZM54.163,58.43a21.011,21.011,0,0,1-4.08,3.4,1.039,1.039,0,0,0-.445.988l1.487,12.111-1.711,1.03-2.92-10.312a1.034,1.034,0,0,0-.611-.683,1.037,1.037,0,0,0-.915.064,79.6,79.6,0,0,1-8.52,4.343c-.321.136-.631.263-.923.376a1.043,1.043,0,0,0-.662,1.021l.152,3.167-.222.134-.618-2.707a1.038,1.038,0,0,0-1.225-.79,2.746,2.746,0,0,1-.892.075,2.828,2.828,0,0,1,.486-.754,1.038,1.038,0,0,0-.123-1.45l-2.1-1.817.224-.136,2.721,1.619A1.041,1.041,0,0,0,34.479,68c.247-.213.5-.427.764-.639a79.832,79.832,0,0,1,7.828-5.5,1.042,1.042,0,0,0,.169-1.636l-7.729-7.42,1.712-1.031,9.985,6.993a1.041,1.041,0,0,0,1.082.07,20.984,20.984,0,0,1,4.9-2.014c.394-.082,1.335-.231,1.567.15h0C54.992,57.358,54.419,58.12,54.163,58.43Zm1.969-2.293c-1.277-2.1-5.042-.554-8.283,1.118L37.8,50.217a.948.948,0,0,0-1.04-.039L33.952,51.87a.953.953,0,0,0-.171,1.5l7.827,7.513a79.229,79.229,0,0,0-7.379,5.23c-.165.133-.327.269-.487.4L31.03,64.906l-.007,0a.952.952,0,0,0-.97.007l-1.329.8a.951.951,0,0,0-.138,1.538l2.381,2.062a2.051,2.051,0,0,0-.338,2.195l0,.008a2.04,2.04,0,0,0,2.092.725l.7,3.064a.95.95,0,0,0,1.419.61l1.338-.805a.952.952,0,0,0,.456-.859l-.152-3.156q.286-.116.586-.242a79.719,79.719,0,0,0,8.073-4.072L48.1,77.218l0,.007a.957.957,0,0,0,.913.686.963.963,0,0,0,.492-.137l2.814-1.695a.952.952,0,0,0,.449-.929l-1.5-12.194c3-2.086,6.134-4.7,4.862-6.814Z" transform="translate(-22.619 -40.151)" fill="#c9cbcd" opacity="0.698"/>
        <path id="Path_18" data-name="Path 18" d="M95.351,46.412l15.888.019,0,1.193-15.888-.019Zm0,2.146,15.888.02v.874l-15.888-.019Zm0,1.75,15.888.019V51.2l-15.888-.019Zm0,1.432,15.889.019,0,1.192-15.888-.019Zm0,2.464,15.888.019,0,1.748-15.889-.019Zm0,2.7,15.888.019v.8L95.334,57.7Zm0,1.352,15.888.019v.795l-15.888-.019Zm0,1.431,15.888.019V60.9l-15.888-.02Zm0,2.066,15.888.02v.795L95.328,62.55Zm0,1.352,15.888.019v.795L95.326,63.9Zm0,1.432,15.888.019v1.192L95.324,65.73Zm0,2.146,15.888.019V67.5l-15.888-.019Zm0,1.351,15.888.019v.795L95.319,68.83Zm0,1.432,15.889.019,0,1.192-15.888-.019Zm0,2.464,15.889.019,0,1.75-15.889-.02Zm0,2.544,15.889.019v.795l-15.888-.019Zm0,1.35,15.888.02v.795L95.309,76.62Zm0,1.432,15.888.019v1.192l-15.888-.019Zm0,2.465,15.888.019,0,1.748L95.3,81.47ZM88.638,47.857v4.456a1.153,1.153,0,1,1-2.306,0V47.857a1.153,1.153,0,1,1,2.306,0Zm0,8.914v4.456a1.153,1.153,0,1,1-2.306,0V56.771a1.153,1.153,0,1,1,2.306,0Zm0,8.914v4.456a1.153,1.153,0,0,1-2.306,0V65.685a1.153,1.153,0,1,1,2.306,0Zm0,8.914v4.456a1.153,1.153,0,0,1-2.306,0V74.6a1.153,1.153,0,1,1,2.306,0Zm-7.7-26.16a1.153,1.153,0,0,1-1.152,1.154H61.726a1.153,1.153,0,0,1,0-2.306H79.789A1.152,1.152,0,0,1,80.941,48.439Zm0,7.756a1.153,1.153,0,0,1-1.152,1.154H61.726a1.153,1.153,0,0,1,0-2.306H79.789A1.152,1.152,0,0,1,80.941,56.194Zm0,7.756A1.152,1.152,0,0,1,79.789,65.1H61.726a1.152,1.152,0,0,1,0-2.3H79.789A1.152,1.152,0,0,1,80.941,63.95Zm0,7.756a1.152,1.152,0,0,1-1.152,1.152H61.726a1.152,1.152,0,0,1,0-2.3H79.789A1.152,1.152,0,0,1,80.941,71.706Zm0,7.756a1.152,1.152,0,0,1-1.152,1.152H61.726a1.152,1.152,0,0,1,0-2.3H79.789A1.152,1.152,0,0,1,80.941,79.462Zm36.35,4.232a1.2,1.2,0,0,1-1.2,1.2H88.638V83.513a1.153,1.153,0,1,0-2.306,0V84.9H26.614a1.2,1.2,0,0,1-1.2-1.2V43.665a1.2,1.2,0,0,1,1.2-1.2H86.333V43.4a1.153,1.153,0,1,0,2.306,0v-.936h27.45a1.2,1.2,0,0,1,1.2,1.2Zm-1.2-43.536H87.612a1.15,1.15,0,0,0-.254,0H26.614a3.511,3.511,0,0,0-3.507,3.507V83.694A3.511,3.511,0,0,0,26.614,87.2h89.474a3.511,3.511,0,0,0,3.507-3.507V43.665A3.511,3.511,0,0,0,116.089,40.158ZM54.1,58.43a21.011,21.011,0,0,1-4.08,3.4,1.039,1.039,0,0,0-.445.988l1.488,12.111-1.712,1.03-2.92-10.312a1.034,1.034,0,0,0-.611-.683,1.037,1.037,0,0,0-.915.064,79.6,79.6,0,0,1-8.52,4.343c-.321.136-.631.263-.923.376a1.043,1.043,0,0,0-.662,1.021l.153,3.167-.223.134-.618-2.707a1.038,1.038,0,0,0-1.225-.79,2.74,2.74,0,0,1-.891.075,2.778,2.778,0,0,1,.485-.754,1.038,1.038,0,0,0-.123-1.45l-2.1-1.817.223-.136L33.2,68.106A1.041,1.041,0,0,0,34.411,68c.247-.213.5-.427.764-.639A79.833,79.833,0,0,1,43,61.863a1.042,1.042,0,0,0,.169-1.636l-7.729-7.42,1.712-1.031,9.985,6.993a1.041,1.041,0,0,0,1.082.07,21,21,0,0,1,4.9-2.014c.394-.082,1.335-.231,1.567.15h0C54.924,57.358,54.351,58.12,54.1,58.43Zm1.969-2.293c-1.277-2.1-5.042-.554-8.282,1.118l-10.05-7.038a.948.948,0,0,0-1.04-.039L33.884,51.87a.952.952,0,0,0-.169,1.5l7.826,7.513a79.229,79.229,0,0,0-7.379,5.23c-.165.133-.327.269-.487.4l-2.711-1.613-.007,0a.952.952,0,0,0-.97.007l-1.329.8a.951.951,0,0,0-.138,1.538L30.9,69.308a2.051,2.051,0,0,0-.338,2.195l0,.008a2.04,2.04,0,0,0,2.092.725l.7,3.064a.95.95,0,0,0,1.419.61l1.338-.805a.952.952,0,0,0,.456-.859l-.152-3.156q.286-.116.586-.242a79.719,79.719,0,0,0,8.073-4.072l2.956,10.442,0,.007a.957.957,0,0,0,.913.686.963.963,0,0,0,.492-.137l2.814-1.695a.952.952,0,0,0,.449-.929l-1.5-12.194c3-2.086,6.134-4.7,4.862-6.814Z" transform="translate(-22.63 -40.151)" fill="#caccce" opacity="0.741"/>
        <path id="Path_19" data-name="Path 19" d="M95.283,46.412l15.888.019,0,1.193L95.28,47.605Zm0,2.146,15.888.02v.874l-15.888-.019Zm0,1.75,15.888.019V51.2l-15.888-.019Zm0,1.432,15.889.019,0,1.192-15.888-.019Zm0,2.464,15.888.019,0,1.748L95.27,55.951Zm0,2.7,15.888.019v.8L95.266,57.7Zm0,1.352,15.888.019v.795l-15.888-.019Zm0,1.431,15.888.019V60.9l-15.888-.02Zm0,2.066,15.888.02v.795L95.26,62.55Zm0,1.352,15.888.019v.795L95.258,63.9Zm0,1.432,15.888.019v1.192L95.256,65.73Zm0,2.146,15.888.019V67.5l-15.888-.019Zm0,1.351,15.888.019v.795L95.251,68.83Zm0,1.432,15.889.019,0,1.192-15.888-.019Zm0,2.464,15.888.019,0,1.75-15.889-.02Zm0,2.544,15.888.019v.795l-15.888-.019Zm0,1.35,15.888.02v.795L95.241,76.62Zm0,1.432,15.888.019v1.192l-15.888-.019Zm0,2.465,15.888.019,0,1.748L95.233,81.47ZM88.57,47.857v4.456a1.153,1.153,0,1,1-2.306,0V47.857a1.153,1.153,0,1,1,2.306,0Zm0,8.914v4.456a1.153,1.153,0,1,1-2.306,0V56.771a1.153,1.153,0,1,1,2.306,0Zm0,8.914v4.456a1.153,1.153,0,0,1-2.306,0V65.685a1.153,1.153,0,1,1,2.306,0Zm0,8.914v4.456a1.153,1.153,0,0,1-2.306,0V74.6a1.153,1.153,0,1,1,2.306,0Zm-7.7-26.16a1.153,1.153,0,0,1-1.152,1.154H61.658a1.153,1.153,0,0,1,0-2.306H79.721A1.152,1.152,0,0,1,80.873,48.439Zm0,7.756a1.153,1.153,0,0,1-1.152,1.154H61.658a1.153,1.153,0,0,1,0-2.306H79.721A1.152,1.152,0,0,1,80.873,56.194Zm0,7.756A1.152,1.152,0,0,1,79.721,65.1H61.658a1.152,1.152,0,0,1,0-2.3H79.721A1.152,1.152,0,0,1,80.873,63.95Zm0,7.756a1.152,1.152,0,0,1-1.152,1.152H61.658a1.152,1.152,0,0,1,0-2.3H79.721A1.152,1.152,0,0,1,80.873,71.706Zm0,7.756a1.152,1.152,0,0,1-1.152,1.152H61.658a1.152,1.152,0,0,1,0-2.3H79.721A1.152,1.152,0,0,1,80.873,79.462Zm36.35,4.232a1.2,1.2,0,0,1-1.2,1.2H88.57V83.513a1.153,1.153,0,1,0-2.306,0V84.9H26.546a1.2,1.2,0,0,1-1.2-1.2V43.665a1.2,1.2,0,0,1,1.2-1.2H86.265V43.4a1.153,1.153,0,1,0,2.306,0v-.936h27.45a1.2,1.2,0,0,1,1.2,1.2Zm-1.2-43.536H87.544a1.142,1.142,0,0,0-.126-.007,1.111,1.111,0,0,0-.126.007H26.546a3.511,3.511,0,0,0-3.507,3.507V83.694A3.511,3.511,0,0,0,26.546,87.2h89.474a3.511,3.511,0,0,0,3.507-3.507V43.665A3.511,3.511,0,0,0,116.021,40.158ZM54.027,58.43a20.975,20.975,0,0,1-4.08,3.4,1.043,1.043,0,0,0-.445.988L50.99,74.925l-1.712,1.03-2.92-10.312a1.034,1.034,0,0,0-.611-.683,1.037,1.037,0,0,0-.915.064,79.6,79.6,0,0,1-8.52,4.343c-.32.136-.631.263-.923.376a1.043,1.043,0,0,0-.662,1.021l.153,3.167-.223.134-.618-2.707a1.038,1.038,0,0,0-1.225-.79,2.74,2.74,0,0,1-.891.075,2.778,2.778,0,0,1,.485-.754,1.038,1.038,0,0,0-.123-1.45l-2.1-1.817.223-.136,2.721,1.619A1.041,1.041,0,0,0,34.343,68c.247-.213.5-.427.764-.639a79.833,79.833,0,0,1,7.828-5.5,1.042,1.042,0,0,0,.169-1.636l-7.729-7.42,1.712-1.031,9.985,6.993a1.041,1.041,0,0,0,1.082.07,21,21,0,0,1,4.9-2.014c.394-.082,1.335-.231,1.567.15h0C54.856,57.358,54.283,58.12,54.027,58.43ZM56,56.137c-1.277-2.1-5.042-.554-8.282,1.118l-10.05-7.038a.948.948,0,0,0-1.04-.039L33.816,51.87a.952.952,0,0,0-.169,1.5l7.826,7.513a79.228,79.228,0,0,0-7.379,5.23c-.165.133-.327.269-.487.4l-2.711-1.613-.007,0a.952.952,0,0,0-.97.007l-1.329.8a.951.951,0,0,0-.138,1.538l2.382,2.062a2.049,2.049,0,0,0-.339,2.195l.006.008a2.038,2.038,0,0,0,2.091.725l.7,3.064a.95.95,0,0,0,1.419.61l1.338-.805a.95.95,0,0,0,.456-.859l-.152-3.156q.286-.116.586-.242a79.719,79.719,0,0,0,8.073-4.072l2.956,10.442,0,.007a.957.957,0,0,0,.913.686.963.963,0,0,0,.492-.137l2.814-1.695a.955.955,0,0,0,.45-.929l-1.5-12.194c3-2.086,6.132-4.7,4.861-6.814Z" transform="translate(-22.642 -40.151)" fill="#cbcdce" opacity="0.784"/>
        <path id="Path_20" data-name="Path 20" d="M95.215,46.412l15.888.019v1.193l-15.889-.019Zm0,2.146,15.888.02v.874L95.21,49.433Zm0,1.75,15.888.019V51.2l-15.888-.019Zm0,1.432,15.888.019,0,1.192-15.888-.019Zm0,2.464,15.888.019,0,1.748L95.2,55.951Zm0,2.7,15.889.019v.8L95.2,57.7Zm0,1.352,15.888.019v.795L95.2,59.052Zm0,1.431,15.888.019V60.9l-15.888-.02Zm0,2.066,15.888.02v.795L95.192,62.55Zm0,1.352,15.888.019v.795L95.19,63.9Zm0,1.432,15.888.019v1.192L95.188,65.73Zm0,2.146,15.888.019V67.5l-15.888-.019Zm0,1.351,15.888.019v.795L95.183,68.83Zm0,1.432,15.888.019,0,1.192-15.888-.019Zm0,2.464,15.888.019,0,1.75-15.888-.02Zm0,2.544,15.888.019v.795l-15.888-.019Zm0,1.35,15.888.02v.795L95.173,76.62Zm0,1.432,15.888.019v1.192L95.17,78.448Zm0,2.465,15.889.019,0,1.748L95.165,81.47ZM88.5,47.857v4.456a1.153,1.153,0,1,1-2.306,0V47.857a1.153,1.153,0,1,1,2.306,0Zm0,8.914v4.456a1.153,1.153,0,1,1-2.306,0V56.771a1.153,1.153,0,1,1,2.306,0Zm0,8.914v4.456a1.153,1.153,0,0,1-2.306,0V65.685a1.153,1.153,0,1,1,2.306,0Zm0,8.914v4.456a1.153,1.153,0,0,1-2.306,0V74.6a1.153,1.153,0,1,1,2.306,0Zm-7.7-26.16a1.153,1.153,0,0,1-1.152,1.154H61.59a1.153,1.153,0,0,1,0-2.306H79.653A1.152,1.152,0,0,1,80.805,48.439Zm0,7.756a1.153,1.153,0,0,1-1.152,1.154H61.59a1.153,1.153,0,0,1,0-2.306H79.653A1.152,1.152,0,0,1,80.805,56.194Zm0,7.756A1.152,1.152,0,0,1,79.653,65.1H61.59a1.152,1.152,0,0,1,0-2.3H79.653A1.152,1.152,0,0,1,80.805,63.95Zm0,7.756a1.152,1.152,0,0,1-1.152,1.152H61.59a1.152,1.152,0,0,1,0-2.3H79.653A1.152,1.152,0,0,1,80.805,71.706Zm0,7.756a1.152,1.152,0,0,1-1.152,1.152H61.59a1.152,1.152,0,0,1,0-2.3H79.653A1.152,1.152,0,0,1,80.805,79.462Zm36.35,4.232a1.2,1.2,0,0,1-1.2,1.2H88.5V83.513a1.153,1.153,0,1,0-2.306,0V84.9H26.478a1.2,1.2,0,0,1-1.2-1.2V43.665a1.2,1.2,0,0,1,1.2-1.2H86.2V43.4a1.153,1.153,0,1,0,2.306,0v-.936h27.45a1.2,1.2,0,0,1,1.2,1.2Zm-1.2-43.536H87.476a1.142,1.142,0,0,0-.126-.007,1.111,1.111,0,0,0-.126.007H26.478a3.511,3.511,0,0,0-3.507,3.507V83.694A3.511,3.511,0,0,0,26.478,87.2h89.474a3.511,3.511,0,0,0,3.507-3.507V43.665A3.511,3.511,0,0,0,115.953,40.158ZM53.959,58.43a21,21,0,0,1-4.079,3.4,1.042,1.042,0,0,0-.446.988l1.488,12.111-1.712,1.03L46.29,65.642a1.034,1.034,0,0,0-.611-.683,1.037,1.037,0,0,0-.915.064,79.6,79.6,0,0,1-8.52,4.343c-.32.136-.631.263-.923.376a1.041,1.041,0,0,0-.66,1.021l.152,3.167-.223.134L33.97,71.36a1.037,1.037,0,0,0-1.225-.79,2.74,2.74,0,0,1-.891.075,2.778,2.778,0,0,1,.485-.754,1.038,1.038,0,0,0-.123-1.45l-2.1-1.817.224-.136,2.72,1.619A1.041,1.041,0,0,0,34.275,68c.247-.213.5-.427.764-.639a79.974,79.974,0,0,1,7.828-5.5,1.042,1.042,0,0,0,.169-1.636l-7.729-7.42,1.712-1.031,9.985,6.993a1.041,1.041,0,0,0,1.082.07,21,21,0,0,1,4.9-2.014c.394-.082,1.335-.231,1.567.15h0C54.788,57.358,54.216,58.12,53.959,58.43Zm1.969-2.293c-1.277-2.1-5.042-.554-8.282,1.118L37.6,50.217a.948.948,0,0,0-1.04-.039L33.748,51.87a.952.952,0,0,0-.169,1.5L41.4,60.886a79.228,79.228,0,0,0-7.379,5.23c-.165.133-.327.269-.487.4l-2.711-1.613-.007,0a.952.952,0,0,0-.97.007l-1.329.8a.951.951,0,0,0-.138,1.538l2.382,2.062a2.049,2.049,0,0,0-.339,2.195l.006.008a2.038,2.038,0,0,0,2.091.725l.7,3.064a.95.95,0,0,0,1.419.61l1.338-.805a.95.95,0,0,0,.456-.859l-.152-3.156q.286-.116.586-.242a79.6,79.6,0,0,0,8.073-4.072L47.9,77.218l0,.007a.957.957,0,0,0,.913.686.963.963,0,0,0,.492-.137l2.814-1.695a.955.955,0,0,0,.45-.929l-1.5-12.194c3-2.086,6.132-4.7,4.861-6.814Z" transform="translate(-22.653 -40.151)" fill="#cccecf" opacity="0.827"/>
        <path id="Path_21" data-name="Path 21" d="M95.147,46.412l15.888.019v1.193l-15.888-.019Zm0,2.146,15.889.02,0,.874-15.888-.019Zm0,1.75,15.888.019V51.2L95.14,51.182Zm0,1.432,15.888.019,0,1.192-15.888-.019Zm0,2.464,15.888.019,0,1.748-15.888-.019Zm0,2.7,15.888.019v.8L95.131,57.7Zm0,1.352,15.888.019v.795l-15.888-.019Zm0,1.431,15.888.019V60.9l-15.888-.02Zm0,2.066,15.888.02v.795L95.124,62.55Zm0,1.352,15.888.019v.795L95.122,63.9Zm0,1.432,15.889.019,0,1.192L95.12,65.73Zm0,2.146,15.888.019V67.5l-15.888-.019Zm0,1.351L111,68.054v.795L95.115,68.83Zm0,1.432L111,69.485l0,1.192-15.888-.019Zm0,2.464L111,71.949l0,1.75-15.888-.02Zm0,2.544L111,74.493v.795l-15.888-.019Zm0,1.35,15.888.02v.795L95.1,76.62Zm0,1.432,15.889.019,0,1.192L95.1,78.448Zm0,2.465,15.889.019,0,1.748L95.1,81.47ZM88.434,47.857v4.456a1.152,1.152,0,1,1-2.3,0V47.857a1.152,1.152,0,1,1,2.3,0Zm0,8.914v4.456a1.152,1.152,0,1,1-2.3,0V56.771a1.152,1.152,0,1,1,2.3,0Zm0,8.914v4.456a1.152,1.152,0,0,1-2.3,0V65.685a1.152,1.152,0,1,1,2.3,0Zm0,8.914v4.456a1.152,1.152,0,1,1-2.3,0V74.6a1.152,1.152,0,1,1,2.3,0Zm-7.7-26.16a1.153,1.153,0,0,1-1.152,1.154H61.522a1.153,1.153,0,0,1,0-2.306H79.585A1.152,1.152,0,0,1,80.737,48.439Zm0,7.756a1.153,1.153,0,0,1-1.152,1.154H61.522a1.153,1.153,0,0,1,0-2.306H79.585A1.152,1.152,0,0,1,80.737,56.194Zm0,7.756A1.152,1.152,0,0,1,79.585,65.1H61.522a1.152,1.152,0,1,1,0-2.3H79.585A1.152,1.152,0,0,1,80.737,63.95Zm0,7.756a1.152,1.152,0,0,1-1.152,1.152H61.522a1.152,1.152,0,1,1,0-2.3H79.585A1.152,1.152,0,0,1,80.737,71.706Zm0,7.756a1.152,1.152,0,0,1-1.152,1.152H61.522a1.152,1.152,0,1,1,0-2.3H79.585A1.152,1.152,0,0,1,80.737,79.462Zm36.35,4.232a1.2,1.2,0,0,1-1.2,1.2H88.434V83.513a1.152,1.152,0,1,0-2.3,0V84.9H26.41a1.2,1.2,0,0,1-1.2-1.2V43.665a1.2,1.2,0,0,1,1.2-1.2H86.13V43.4a1.152,1.152,0,1,0,2.3,0v-.936h27.45a1.2,1.2,0,0,1,1.2,1.2Zm-1.2-43.536H87.408a1.14,1.14,0,0,0-.252,0H26.41A3.511,3.511,0,0,0,22.9,43.665V83.694A3.511,3.511,0,0,0,26.41,87.2h89.474a3.511,3.511,0,0,0,3.507-3.507V43.665A3.511,3.511,0,0,0,115.885,40.158ZM53.891,58.43a21,21,0,0,1-4.079,3.4,1.042,1.042,0,0,0-.446.988l1.488,12.111-1.712,1.03-2.92-10.312a1.034,1.034,0,0,0-.611-.683,1.037,1.037,0,0,0-.915.064,79.6,79.6,0,0,1-8.52,4.343c-.32.136-.631.263-.923.376a1.042,1.042,0,0,0-.66,1.021l.152,3.167-.223.134L33.9,71.36a1.037,1.037,0,0,0-1.225-.79,2.74,2.74,0,0,1-.891.075,2.778,2.778,0,0,1,.485-.754,1.038,1.038,0,0,0-.123-1.45l-2.1-1.817.224-.136L33,68.106A1.039,1.039,0,0,0,34.207,68c.248-.213.5-.427.764-.639a79.975,79.975,0,0,1,7.828-5.5,1.042,1.042,0,0,0,.169-1.636l-7.728-7.42,1.711-1.031,9.985,6.993a1.041,1.041,0,0,0,1.082.07,21.024,21.024,0,0,1,4.9-2.014c.394-.082,1.335-.231,1.567.15h0C54.72,57.358,54.148,58.12,53.891,58.43Zm1.969-2.293c-1.277-2.1-5.042-.554-8.282,1.118l-10.05-7.038a.946.946,0,0,0-1.039-.039L33.68,51.87a.952.952,0,0,0-.169,1.5l7.826,7.513a79.386,79.386,0,0,0-7.379,5.23c-.164.133-.327.269-.487.4l-2.711-1.613-.007,0a.952.952,0,0,0-.97.007l-1.329.8a.951.951,0,0,0-.138,1.538L30.7,69.308a2.049,2.049,0,0,0-.339,2.195l.006.008a2.038,2.038,0,0,0,2.091.725l.7,3.064a.95.95,0,0,0,1.419.61l1.338-.805a.95.95,0,0,0,.456-.859l-.152-3.156q.286-.116.586-.242a79.6,79.6,0,0,0,8.073-4.072l2.956,10.442,0,.007a.957.957,0,0,0,.913.686.963.963,0,0,0,.492-.137l2.814-1.695a.955.955,0,0,0,.45-.929L51,62.957c3-2.086,6.132-4.7,4.861-6.814Z" transform="translate(-22.665 -40.151)" fill="#cdcfd0" opacity="0.87"/>
        <path id="Path_22" data-name="Path 22" d="M95.079,46.412l15.888.019v1.193l-15.888-.019Zm0,2.146,15.889.02v.874l-15.889-.019Zm0,1.75,15.888.019V51.2l-15.888-.019Zm0,1.432,15.888.019,0,1.192-15.888-.019Zm0,2.464,15.888.019,0,1.748-15.888-.019Zm0,2.7,15.888.019v.8L95.063,57.7Zm0,1.352,15.888.019v.795l-15.888-.019Zm0,1.431,15.888.019V60.9l-15.888-.02Zm0,2.066,15.888.02v.795L95.056,62.55Zm0,1.352,15.888.019v.795L95.054,63.9Zm0,1.432,15.888.019,0,1.192L95.052,65.73Zm0,2.146,15.888.019V67.5l-15.888-.019Zm0,1.351,15.888.019v.795L95.047,68.83Zm0,1.432,15.888.019,0,1.192-15.888-.019Zm0,2.464,15.888.019,0,1.75-15.888-.02Zm0,2.544,15.888.019v.795l-15.888-.019Zm0,1.35,15.888.02v.795L95.037,76.62Zm0,1.432,15.889.019,0,1.192-15.888-.019Zm0,2.465,15.888.019,0,1.748L95.03,81.47ZM88.366,47.857v4.456a1.152,1.152,0,1,1-2.3,0V47.857a1.152,1.152,0,1,1,2.3,0Zm0,8.914v4.456a1.152,1.152,0,1,1-2.3,0V56.771a1.152,1.152,0,1,1,2.3,0Zm0,8.914v4.456a1.152,1.152,0,0,1-2.3,0V65.685a1.152,1.152,0,1,1,2.3,0Zm0,8.914v4.456a1.152,1.152,0,1,1-2.3,0V74.6a1.152,1.152,0,1,1,2.3,0Zm-7.7-26.16a1.154,1.154,0,0,1-1.154,1.154H61.454a1.153,1.153,0,0,1,0-2.306H79.517A1.153,1.153,0,0,1,80.67,48.439Zm0,7.756a1.154,1.154,0,0,1-1.154,1.154H61.454a1.153,1.153,0,0,1,0-2.306H79.517A1.153,1.153,0,0,1,80.67,56.194Zm0,7.756A1.153,1.153,0,0,1,79.517,65.1H61.454a1.152,1.152,0,0,1,0-2.3H79.517A1.153,1.153,0,0,1,80.67,63.95Zm0,7.756a1.153,1.153,0,0,1-1.154,1.152H61.454a1.152,1.152,0,0,1,0-2.3H79.517A1.153,1.153,0,0,1,80.67,71.706Zm0,7.756a1.153,1.153,0,0,1-1.154,1.152H61.454a1.152,1.152,0,0,1,0-2.3H79.517A1.153,1.153,0,0,1,80.67,79.462Zm36.349,4.232a1.2,1.2,0,0,1-1.2,1.2H88.366V83.513a1.152,1.152,0,1,0-2.3,0V84.9H26.342a1.2,1.2,0,0,1-1.2-1.2V43.665a1.2,1.2,0,0,1,1.2-1.2H86.062V43.4a1.152,1.152,0,1,0,2.3,0v-.936h27.45a1.2,1.2,0,0,1,1.2,1.2Zm-1.2-43.536H87.34a1.14,1.14,0,0,0-.252,0H26.342a3.511,3.511,0,0,0-3.507,3.507V83.694A3.511,3.511,0,0,0,26.342,87.2h89.474a3.511,3.511,0,0,0,3.507-3.507V43.665A3.511,3.511,0,0,0,115.817,40.158ZM53.823,58.43a21,21,0,0,1-4.079,3.4,1.039,1.039,0,0,0-.445.988l1.487,12.111-1.712,1.03L46.155,65.642a1.042,1.042,0,0,0-1.528-.618,79.705,79.705,0,0,1-8.519,4.343c-.321.136-.632.263-.924.376a1.042,1.042,0,0,0-.66,1.021l.152,3.167-.223.134-.618-2.707a1.037,1.037,0,0,0-1.225-.79,2.738,2.738,0,0,1-.891.075,2.778,2.778,0,0,1,.485-.754,1.038,1.038,0,0,0-.123-1.45l-2.1-1.817.224-.136,2.721,1.619A1.041,1.041,0,0,0,34.14,68c.247-.213.5-.427.764-.639a79.8,79.8,0,0,1,7.827-5.5,1.043,1.043,0,0,0,.171-1.636l-7.729-7.42,1.711-1.031,9.985,6.993a1.041,1.041,0,0,0,1.082.07,21.024,21.024,0,0,1,4.9-2.014c.394-.082,1.335-.231,1.567.15h0C54.652,57.358,54.08,58.12,53.823,58.43Zm1.969-2.293c-1.277-2.1-5.041-.554-8.282,1.118l-10.05-7.038a.946.946,0,0,0-1.039-.039l-2.81,1.691a.952.952,0,0,0-.169,1.5l7.826,7.513a79.386,79.386,0,0,0-7.379,5.23c-.164.133-.327.269-.487.4L30.69,64.906l-.007,0a.952.952,0,0,0-.97.007l-1.328.8a.95.95,0,0,0-.139,1.538l2.382,2.062a2.049,2.049,0,0,0-.339,2.195l.006.008a2.038,2.038,0,0,0,2.091.725l.7,3.064a.951.951,0,0,0,1.42.61l1.337-.805a.95.95,0,0,0,.456-.859l-.152-3.156q.286-.116.586-.242a79.476,79.476,0,0,0,8.073-4.072l2.956,10.442,0,.007a.957.957,0,0,0,.914.686.962.962,0,0,0,.491-.137l2.816-1.695a.956.956,0,0,0,.449-.929l-1.5-12.194c3-2.086,6.132-4.7,4.861-6.814Z" transform="translate(-22.676 -40.151)" fill="#ced0d1" opacity="0.914"/>
        <path id="Path_23" data-name="Path 23" d="M95.011,46.412l15.888.019v1.193l-15.888-.019Zm0,2.146,15.888.02v.874l-15.888-.019Zm0,1.75,15.889.019V51.2L95,51.182Zm0,1.432,15.888.019,0,1.192L95,52.931ZM95,54.2l15.888.019,0,1.748L95,55.951Zm0,2.7,15.888.019v.8L95,57.7Zm0,1.352,15.888.019v.795l-15.888-.019Zm0,1.431,15.888.019V60.9l-15.888-.02Zm0,2.066,15.888.02v.795L94.988,62.55Zm0,1.352,15.888.019v.795L94.986,63.9Zm0,1.432,15.888.019,0,1.192L94.984,65.73Zm0,2.146,15.888.019V67.5l-15.888-.019Zm0,1.351,15.889.019v.795L94.98,68.83Zm0,1.432,15.888.019,0,1.192-15.888-.019Zm0,2.464,15.888.019,0,1.75-15.888-.02Zm0,2.544,15.888.019v.795l-15.888-.019Zm0,1.35,15.888.02v.795L94.969,76.62Zm0,1.432,15.888.019,0,1.192-15.888-.019Zm0,2.465,15.888.019,0,1.748L94.963,81.47ZM88.3,47.857v4.456a1.152,1.152,0,1,1-2.3,0V47.857a1.152,1.152,0,1,1,2.3,0Zm0,8.914v4.456a1.152,1.152,0,1,1-2.3,0V56.771a1.152,1.152,0,1,1,2.3,0Zm0,8.914v4.456a1.152,1.152,0,0,1-2.3,0V65.685a1.152,1.152,0,1,1,2.3,0Zm0,8.914v4.456a1.152,1.152,0,1,1-2.3,0V74.6a1.152,1.152,0,1,1,2.3,0Zm-7.7-26.16a1.154,1.154,0,0,1-1.154,1.154H61.386a1.153,1.153,0,0,1,0-2.306H79.449A1.153,1.153,0,0,1,80.6,48.439Zm0,7.756a1.154,1.154,0,0,1-1.154,1.154H61.386a1.153,1.153,0,0,1,0-2.306H79.449A1.153,1.153,0,0,1,80.6,56.194Zm0,7.756A1.153,1.153,0,0,1,79.449,65.1H61.386a1.152,1.152,0,0,1,0-2.3H79.449A1.153,1.153,0,0,1,80.6,63.95Zm0,7.756a1.153,1.153,0,0,1-1.154,1.152H61.386a1.152,1.152,0,0,1,0-2.3H79.449A1.153,1.153,0,0,1,80.6,71.706Zm0,7.756a1.153,1.153,0,0,1-1.154,1.152H61.386a1.152,1.152,0,0,1,0-2.3H79.449A1.153,1.153,0,0,1,80.6,79.462Zm36.349,4.232a1.2,1.2,0,0,1-1.2,1.2H88.3V83.513a1.152,1.152,0,1,0-2.3,0V84.9H26.274a1.2,1.2,0,0,1-1.2-1.2V43.665a1.2,1.2,0,0,1,1.2-1.2H85.994V43.4a1.152,1.152,0,1,0,2.3,0v-.936H115.75a1.2,1.2,0,0,1,1.2,1.2Zm-1.2-43.536H87.272a1.14,1.14,0,0,0-.252,0H26.274a3.511,3.511,0,0,0-3.507,3.507V83.694A3.511,3.511,0,0,0,26.274,87.2H115.75a3.512,3.512,0,0,0,3.507-3.507V43.665A3.512,3.512,0,0,0,115.75,40.158ZM53.755,58.43a21,21,0,0,1-4.079,3.4,1.039,1.039,0,0,0-.445.988l1.487,12.111-1.712,1.03L46.087,65.642a1.042,1.042,0,0,0-1.528-.618,79.7,79.7,0,0,1-8.519,4.343c-.321.136-.632.263-.923.376a1.042,1.042,0,0,0-.662,1.021l.152,3.167-.223.134-.618-2.707a1.037,1.037,0,0,0-1.225-.79,2.739,2.739,0,0,1-.891.075,2.81,2.81,0,0,1,.485-.754,1.038,1.038,0,0,0-.123-1.45l-2.1-1.817.224-.136,2.721,1.619A1.041,1.041,0,0,0,34.072,68c.247-.213.5-.427.764-.639a79.8,79.8,0,0,1,7.827-5.5,1.043,1.043,0,0,0,.171-1.636l-7.729-7.42,1.711-1.031L46.8,58.768a1.041,1.041,0,0,0,1.082.07,21.008,21.008,0,0,1,4.9-2.014c.394-.082,1.335-.231,1.566.15h0C54.584,57.358,54.012,58.12,53.755,58.43Zm1.969-2.293c-1.277-2.1-5.041-.554-8.282,1.118l-10.05-7.038a.946.946,0,0,0-1.039-.039L33.545,51.87a.951.951,0,0,0-.171,1.5L41.2,60.886a79.385,79.385,0,0,0-7.379,5.23c-.164.133-.327.269-.487.4l-2.711-1.613-.007,0a.952.952,0,0,0-.97.007l-1.328.8a.95.95,0,0,0-.139,1.538l2.382,2.062a2.051,2.051,0,0,0-.339,2.195l.006.008a2.039,2.039,0,0,0,2.091.725l.7,3.064a.951.951,0,0,0,1.42.61l1.337-.805a.95.95,0,0,0,.456-.859L36.08,71.09q.284-.116.584-.242a79.475,79.475,0,0,0,8.073-4.072l2.956,10.442,0,.007a.957.957,0,0,0,.914.686.962.962,0,0,0,.491-.137l2.816-1.695a.954.954,0,0,0,.449-.929l-1.5-12.194c3-2.086,6.132-4.7,4.861-6.814Z" transform="translate(-22.688 -40.151)" fill="#cfd1d2" opacity="0.957"/>
        <path id="Path_24" data-name="Path 24" d="M94.943,46.412l15.888.019v1.193l-15.888-.019Zm0,2.146,15.888.02v.874l-15.888-.019Zm0,1.75,15.888.019V51.2l-15.889-.019Zm0,1.432,15.888.019V52.95l-15.889-.019Zm0,2.464,15.888.019,0,1.748L94.93,55.951Zm0,2.7,15.888.019v.8L94.927,57.7Zm0,1.352,15.888.019v.795l-15.888-.019Zm0,1.431,15.889.019,0,1.193-15.888-.02Zm0,2.066,15.888.02v.795L94.92,62.55Zm0,1.352,15.888.019v.795L94.918,63.9Zm0,1.432,15.888.019,0,1.192L94.916,65.73Zm0,2.146L110.8,66.7V67.5l-15.888-.019Zm0,1.351,15.888.019v.795L94.912,68.83Zm0,1.432,15.888.019v1.192l-15.889-.019Zm0,2.464,15.888.019,0,1.75-15.888-.02Zm0,2.544,15.888.019v.795L94.9,75.269Zm0,1.35,15.888.02v.795L94.9,76.62Zm0,1.432,15.888.019,0,1.192L94.9,78.448Zm0,2.465,15.888.019,0,1.748L94.895,81.47ZM88.23,47.857v4.456a1.152,1.152,0,1,1-2.3,0V47.857a1.152,1.152,0,1,1,2.3,0Zm0,8.914v4.456a1.152,1.152,0,1,1-2.3,0V56.771a1.152,1.152,0,1,1,2.3,0Zm0,8.914v4.456a1.152,1.152,0,0,1-2.3,0V65.685a1.152,1.152,0,1,1,2.3,0Zm0,8.914v4.456a1.152,1.152,0,1,1-2.3,0V74.6a1.152,1.152,0,1,1,2.3,0Zm-7.7-26.16a1.154,1.154,0,0,1-1.154,1.154H61.319a1.153,1.153,0,1,1,0-2.306H79.381A1.153,1.153,0,0,1,80.534,48.439Zm0,7.756a1.154,1.154,0,0,1-1.154,1.154H61.319a1.153,1.153,0,1,1,0-2.306H79.381A1.153,1.153,0,0,1,80.534,56.194Zm0,7.756A1.153,1.153,0,0,1,79.381,65.1H61.319a1.152,1.152,0,1,1,0-2.3H79.381A1.153,1.153,0,0,1,80.534,63.95Zm0,7.756a1.153,1.153,0,0,1-1.154,1.152H61.319a1.152,1.152,0,1,1,0-2.3H79.381A1.153,1.153,0,0,1,80.534,71.706Zm0,7.756a1.153,1.153,0,0,1-1.154,1.152H61.319a1.152,1.152,0,1,1,0-2.3H79.381A1.153,1.153,0,0,1,80.534,79.462Zm36.349,4.232a1.2,1.2,0,0,1-1.2,1.2H88.23V83.513a1.152,1.152,0,1,0-2.3,0V84.9H26.206a1.2,1.2,0,0,1-1.2-1.2V43.665a1.2,1.2,0,0,1,1.2-1.2H85.926V43.4a1.152,1.152,0,1,0,2.3,0v-.936h27.451a1.2,1.2,0,0,1,1.2,1.2Zm-1.2-43.536H87.2a1.111,1.111,0,0,0-.126-.007,1.126,1.126,0,0,0-.126.007H26.206A3.511,3.511,0,0,0,22.7,43.665V83.694A3.511,3.511,0,0,0,26.206,87.2h89.476a3.512,3.512,0,0,0,3.507-3.507V43.665A3.512,3.512,0,0,0,115.682,40.158ZM53.687,58.43a20.96,20.96,0,0,1-4.079,3.4,1.039,1.039,0,0,0-.445.988L50.65,74.925l-1.711,1.03-2.92-10.312a1.042,1.042,0,0,0-1.528-.618,79.706,79.706,0,0,1-8.519,4.343c-.321.136-.632.263-.923.376a1.042,1.042,0,0,0-.662,1.021l.152,3.167-.223.134L33.7,71.36a1.037,1.037,0,0,0-1.225-.79,2.739,2.739,0,0,1-.891.075,2.811,2.811,0,0,1,.485-.754,1.036,1.036,0,0,0-.123-1.45l-2.1-1.817.224-.136,2.721,1.619A1.041,1.041,0,0,0,34,68c.247-.213.5-.427.764-.639a79.8,79.8,0,0,1,7.827-5.5,1.043,1.043,0,0,0,.171-1.636l-7.729-7.42,1.711-1.031,9.985,6.993a1.041,1.041,0,0,0,1.082.07,21.008,21.008,0,0,1,4.9-2.014c.394-.082,1.335-.231,1.566.15h0C54.516,57.358,53.944,58.12,53.687,58.43Zm1.969-2.293c-1.277-2.1-5.041-.554-8.282,1.118l-10.05-7.038a.946.946,0,0,0-1.039-.039L33.477,51.87a.951.951,0,0,0-.171,1.5l7.826,7.513a79.543,79.543,0,0,0-7.379,5.23c-.164.133-.327.269-.487.4l-2.711-1.613-.007,0a.952.952,0,0,0-.97.007l-1.328.8a.952.952,0,0,0-.139,1.538l2.382,2.062a2.041,2.041,0,0,0-.338,2.195l0,.008a2.042,2.042,0,0,0,2.091.725l.7,3.064a.951.951,0,0,0,1.42.61l1.337-.805a.95.95,0,0,0,.456-.859l-.151-3.156q.284-.116.584-.242a79.476,79.476,0,0,0,8.073-4.072l2.956,10.442,0,.007a.942.942,0,0,0,.561.617.945.945,0,0,0,.844-.068l2.816-1.695a.954.954,0,0,0,.449-.929L50.8,62.957c3-2.086,6.132-4.7,4.862-6.814Z" transform="translate(-22.699 -40.151)" fill="#d0d2d3"/>
      </g>
      <g id="ticket-2" data-name="ticket">
        <path id="Path_25" data-name="Path 25" d="M115.682,40.158H87.2a1.111,1.111,0,0,0-.126-.007,1.126,1.126,0,0,0-.126.007H26.206A3.511,3.511,0,0,0,22.7,43.665V83.694A3.511,3.511,0,0,0,26.206,87.2h89.476a3.512,3.512,0,0,0,3.507-3.507V43.665A3.512,3.512,0,0,0,115.682,40.158Zm1.2,43.536a1.2,1.2,0,0,1-1.2,1.2H88.23V83.513a1.152,1.152,0,1,0-2.3,0V84.9H26.206a1.2,1.2,0,0,1-1.2-1.2V43.665a1.2,1.2,0,0,1,1.2-1.2H85.926V43.4a1.152,1.152,0,1,0,2.3,0v-.936h27.451a1.2,1.2,0,0,1,1.2,1.2Z" transform="translate(-22.699 -40.151)" fill="#fff"/>
        <path id="Path_26" data-name="Path 26" d="M77.949,53.384A1.153,1.153,0,0,0,76.8,54.538v4.456a1.152,1.152,0,1,0,2.3,0V54.538A1.153,1.153,0,0,0,77.949,53.384Z" transform="translate(-13.57 -37.918)" fill="#fff"/>
        <path id="Path_27" data-name="Path 27" d="M77.949,45.757A1.153,1.153,0,0,0,76.8,46.911v4.456a1.152,1.152,0,1,0,2.3,0V46.911A1.153,1.153,0,0,0,77.949,45.757Z" transform="translate(-13.57 -39.205)" fill="#fff"/>
        <path id="Path_28" data-name="Path 28" d="M77.949,68.638A1.153,1.153,0,0,0,76.8,69.792v4.456a1.152,1.152,0,1,0,2.3,0V69.792A1.153,1.153,0,0,0,77.949,68.638Z" transform="translate(-13.57 -35.344)" fill="#fff"/>
        <path id="Path_29" data-name="Path 29" d="M77.949,61.011A1.153,1.153,0,0,0,76.8,62.165v4.456a1.152,1.152,0,0,0,2.3,0V62.165A1.153,1.153,0,0,0,77.949,61.011Z" transform="translate(-13.57 -36.631)" fill="#fff"/>
        <rect id="Rectangle_1" data-name="Rectangle 1" width="1.748" height="15.888" transform="translate(72.195 41.318) rotate(-89.932)" fill="#231f20"/>
        <rect id="Rectangle_2" data-name="Rectangle 2" width="1.192" height="15.888" transform="matrix(0.001, -1, 1, 0.001, 72.2, 38.298)" fill="#231f20"/>
        <rect id="Rectangle_3" data-name="Rectangle 3" width="0.795" height="15.888" transform="translate(72.202 36.469) rotate(-89.932)" fill="#231f20"/>
        <rect id="Rectangle_4" data-name="Rectangle 4" width="0.795" height="15.888" transform="translate(72.204 35.118) rotate(-89.932)" fill="#231f20"/>
        <rect id="Rectangle_5" data-name="Rectangle 5" width="1.192" height="15.888" transform="translate(72.217 25.579) rotate(-89.932)" fill="#fff"/>
        <rect id="Rectangle_6" data-name="Rectangle 6" width="0.795" height="15.888" transform="translate(72.22 23.75) rotate(-89.932)" fill="#fff"/>
        <rect id="Rectangle_7" data-name="Rectangle 7" width="0.795" height="15.888" transform="translate(72.222 22.398) rotate(-89.932)" fill="#fff"/>
        <rect id="Rectangle_8" data-name="Rectangle 8" width="1.192" height="15.888" transform="translate(72.224 20.729) rotate(-89.932)" fill="#fff"/>
        <rect id="Rectangle_9" data-name="Rectangle 9" width="0.795" height="15.888" transform="translate(72.226 18.901) rotate(-89.932)" fill="#fff"/>
        <rect id="Rectangle_10" data-name="Rectangle 10" width="0.796" height="15.888" transform="translate(72.228 17.55) rotate(-89.932)" fill="#fff"/>
        <rect id="Rectangle_11" data-name="Rectangle 11" width="1.749" height="15.888" transform="translate(72.206 33.528) rotate(-89.932)" fill="#231f20"/>
        <rect id="Rectangle_12" data-name="Rectangle 12" width="1.192" height="15.888" transform="translate(72.21 30.507) rotate(-89.932)" fill="#fff"/>
        <rect id="Rectangle_13" data-name="Rectangle 13" width="1.749" height="15.888" transform="translate(72.231 15.801) rotate(-89.932)" fill="#fff"/>
        <rect id="Rectangle_14" data-name="Rectangle 14" width="1.192" height="15.888" transform="translate(72.235 12.78) rotate(-89.932)" fill="#fff"/>
        <rect id="Rectangle_15" data-name="Rectangle 15" width="1.192" height="15.888" transform="translate(72.242 7.454) rotate(-89.932)" fill="#fff"/>
        <rect id="Rectangle_16" data-name="Rectangle 16" width="0.874" height="15.888" transform="translate(72.237 11.031) rotate(-89.932)" fill="#fff"/>
        <rect id="Rectangle_17" data-name="Rectangle 17" width="0.875" height="15.888" transform="translate(72.24 9.282) rotate(-89.932)" fill="#fff"/>
        <rect id="Rectangle_18" data-name="Rectangle 18" width="0.795" height="15.888" transform="translate(72.213 28.679) rotate(-89.932)" fill="#fff"/>
        <rect id="Rectangle_19" data-name="Rectangle 19" width="0.795" height="15.888" transform="translate(72.215 27.327) rotate(-89.932)" fill="#fff"/>
        <path id="Path_30" data-name="Path 30" d="M54.922,54.709c-1.277-2.1-5.041-.554-8.282,1.118l-10.05-7.038a.946.946,0,0,0-1.039-.039l-2.808,1.691a.951.951,0,0,0-.171,1.5L40.4,59.458a79.541,79.541,0,0,0-7.379,5.23c-.164.133-.327.269-.487.4L29.82,63.478l-.007,0a.952.952,0,0,0-.97.007l-1.328.8a.952.952,0,0,0-.139,1.538l2.382,2.062a2.041,2.041,0,0,0-.338,2.195l0,.008a2.042,2.042,0,0,0,2.091.725l.7,3.064a.951.951,0,0,0,1.42.61l1.337-.805a.95.95,0,0,0,.456-.859l-.151-3.156q.284-.116.584-.242a79.476,79.476,0,0,0,8.073-4.072L46.891,75.79l0,.007a.943.943,0,0,0,.561.617.945.945,0,0,0,.844-.068l2.816-1.695a.954.954,0,0,0,.449-.929l-1.5-12.194c3-2.086,6.132-4.7,4.862-6.814ZM52.953,57a20.96,20.96,0,0,1-4.079,3.4,1.039,1.039,0,0,0-.445.988L49.916,73.5,48.2,74.526l-2.92-10.312a1.042,1.042,0,0,0-1.528-.618,79.706,79.706,0,0,1-8.519,4.343c-.321.136-.632.263-.923.376a1.042,1.042,0,0,0-.662,1.021l.152,3.167-.223.134-.618-2.707a1.037,1.037,0,0,0-1.225-.79,2.739,2.739,0,0,1-.891.075,2.811,2.811,0,0,1,.485-.754,1.036,1.036,0,0,0-.123-1.45l-2.1-1.817.224-.136,2.721,1.619a1.041,1.041,0,0,0,1.213-.105c.247-.213.5-.427.764-.639a79.8,79.8,0,0,1,7.827-5.5,1.043,1.043,0,0,0,.171-1.636L34.3,51.378l1.711-1.031L46,57.34a1.041,1.041,0,0,0,1.082.07,21.008,21.008,0,0,1,4.9-2.014c.394-.082,1.335-.231,1.566.15h0C53.782,55.93,53.21,56.692,52.953,57Z" transform="translate(-21.965 -38.723)" fill="#fff"/>
        <path id="Path_31" data-name="Path 31" d="M73.971,46.256H55.91a1.153,1.153,0,1,0,0,2.306H73.971a1.153,1.153,0,1,0,0-2.306Z" transform="translate(-17.29 -39.121)" fill="#fff"/>
        <path id="Path_32" data-name="Path 32" d="M73.971,52.892H55.91a1.153,1.153,0,1,0,0,2.306H73.971a1.153,1.153,0,1,0,0-2.306Z" transform="translate(-17.29 -38.001)" fill="#fff"/>
        <path id="Path_33" data-name="Path 33" d="M73.971,59.528H55.91a1.152,1.152,0,1,0,0,2.3H73.971a1.152,1.152,0,1,0,0-2.3Z" transform="translate(-17.29 -36.881)" fill="#fff"/>
        <path id="Path_34" data-name="Path 34" d="M73.971,66.164H55.91a1.152,1.152,0,1,0,0,2.3H73.971a1.152,1.152,0,1,0,0-2.3Z" transform="translate(-17.29 -35.761)" fill="#fff"/>
        <path id="Path_35" data-name="Path 35" d="M73.971,72.8H55.91a1.152,1.152,0,1,0,0,2.3H73.971a1.152,1.152,0,1,0,0-2.3Z" transform="translate(-17.29 -34.642)" fill="#fff"/>
      </g>
    </g>
    <g id="X" transform="translate(94.259 67.77)">
      <g id="X_shadow" data-name="X shadow" opacity="0.6" style="mix-blend-mode: multiply;isolation: isolate">
        <path id="Path_36" data-name="Path 36" d="M115.6,64.424a19.123,19.123,0,1,0,5.6,13.521A19,19,0,0,0,115.6,64.424Z" transform="translate(-81.278 -58.823)" fill="#bbbdbf" opacity="0.05"/>
        <path id="Path_37" data-name="Path 37" d="M115.532,64.424a19.123,19.123,0,1,0,5.6,13.521A19,19,0,0,0,115.532,64.424Z" transform="translate(-81.289 -58.823)" fill="#bcbec0" opacity="0.093"/>
        <path id="Path_38" data-name="Path 38" d="M115.467,64.424a19.123,19.123,0,1,0,5.6,13.521A19,19,0,0,0,115.467,64.424Z" transform="translate(-81.3 -58.823)" fill="#bdbfc1" opacity="0.136"/>
        <path id="Path_39" data-name="Path 39" d="M115.4,64.424A19.123,19.123,0,1,0,121,77.945,19,19,0,0,0,115.4,64.424Z" transform="translate(-81.311 -58.823)" fill="#bec0c2" opacity="0.18"/>
        <path id="Path_40" data-name="Path 40" d="M115.337,64.424a19.126,19.126,0,1,0,5.6,13.521A19,19,0,0,0,115.337,64.424Z" transform="translate(-81.322 -58.823)" fill="#bfc1c3" opacity="0.223"/>
        <path id="Path_41" data-name="Path 41" d="M115.271,64.424a19.123,19.123,0,1,0,5.6,13.521A19,19,0,0,0,115.271,64.424Z" transform="translate(-81.333 -58.823)" fill="#c0c2c4" opacity="0.266"/>
        <path id="Path_42" data-name="Path 42" d="M115.206,64.424a19.123,19.123,0,1,0,5.6,13.521A19,19,0,0,0,115.206,64.424Z" transform="translate(-81.344 -58.823)" fill="#c1c3c4" opacity="0.309"/>
        <path id="Path_43" data-name="Path 43" d="M115.141,64.424a19.123,19.123,0,1,0,5.6,13.521A19,19,0,0,0,115.141,64.424Z" transform="translate(-81.355 -58.823)" fill="#c2c4c5" opacity="0.352"/>
        <path id="Path_44" data-name="Path 44" d="M115.076,64.424a19.123,19.123,0,1,0,5.6,13.521A19,19,0,0,0,115.076,64.424Z" transform="translate(-81.366 -58.823)" fill="#c3c5c6" opacity="0.395"/>
        <path id="Path_45" data-name="Path 45" d="M115.011,64.424a19.126,19.126,0,1,0,5.6,13.521A19,19,0,0,0,115.011,64.424Z" transform="translate(-81.377 -58.823)" fill="#c4c6c7" opacity="0.439"/>
        <path id="Path_46" data-name="Path 46" d="M114.945,64.424a19.123,19.123,0,1,0,5.6,13.521A19,19,0,0,0,114.945,64.424Z" transform="translate(-81.388 -58.823)" fill="#c5c7c8" opacity="0.482"/>
        <path id="Path_47" data-name="Path 47" d="M114.88,64.424a19.123,19.123,0,1,0,5.6,13.521A19,19,0,0,0,114.88,64.424Z" transform="translate(-81.399 -58.823)" fill="#c5c8c9" opacity="0.525"/>
        <path id="Path_48" data-name="Path 48" d="M114.815,64.424a19.123,19.123,0,1,0,5.6,13.521A19,19,0,0,0,114.815,64.424Z" transform="translate(-81.41 -58.823)" fill="#c6c8ca" opacity="0.568"/>
        <path id="Path_49" data-name="Path 49" d="M114.75,64.424a19.126,19.126,0,1,0,5.6,13.521A19,19,0,0,0,114.75,64.424Z" transform="translate(-81.421 -58.823)" fill="#c7c9cb" opacity="0.611"/>
        <path id="Path_50" data-name="Path 50" d="M114.684,64.424a19.123,19.123,0,1,0,5.6,13.521A19,19,0,0,0,114.684,64.424Z" transform="translate(-81.432 -58.823)" fill="#c8cacc" opacity="0.655"/>
        <path id="Path_51" data-name="Path 51" d="M114.619,64.424a19.123,19.123,0,1,0,5.6,13.521A19,19,0,0,0,114.619,64.424Z" transform="translate(-81.443 -58.823)" fill="#c9cbcd" opacity="0.698"/>
        <path id="Path_52" data-name="Path 52" d="M114.554,64.424a19.123,19.123,0,1,0,5.6,13.521A19,19,0,0,0,114.554,64.424Z" transform="translate(-81.454 -58.823)" fill="#caccce" opacity="0.741"/>
        <path id="Path_53" data-name="Path 53" d="M114.489,64.424a19.123,19.123,0,1,0,5.6,13.521A19,19,0,0,0,114.489,64.424Z" transform="translate(-81.465 -58.823)" fill="#cbcdce" opacity="0.784"/>
        <path id="Path_54" data-name="Path 54" d="M114.424,64.424a19.126,19.126,0,1,0,5.6,13.521A19,19,0,0,0,114.424,64.424Z" transform="translate(-81.476 -58.823)" fill="#cccecf" opacity="0.827"/>
        <path id="Path_55" data-name="Path 55" d="M114.358,64.424a19.123,19.123,0,1,0,5.6,13.521A19,19,0,0,0,114.358,64.424Z" transform="translate(-81.487 -58.823)" fill="#cdcfd0" opacity="0.87"/>
        <path id="Path_56" data-name="Path 56" d="M114.293,64.424a19.123,19.123,0,1,0,5.6,13.521A19,19,0,0,0,114.293,64.424Z" transform="translate(-81.498 -58.823)" fill="#ced0d1" opacity="0.914"/>
        <path id="Path_57" data-name="Path 57" d="M114.228,64.424a19.123,19.123,0,1,0,5.6,13.521A19,19,0,0,0,114.228,64.424Z" transform="translate(-81.509 -58.823)" fill="#cfd1d2" opacity="0.957"/>
        <path id="Path_58" data-name="Path 58" d="M114.163,64.424a19.123,19.123,0,1,0,5.6,13.521A19,19,0,0,0,114.163,64.424Z" transform="translate(-81.52 -58.823)" fill="#d0d2d3"/>
      </g>
      <g id="X-2" data-name="X">
        <g id="bg-2" data-name="bg">
          <circle id="bg-3" data-name="bg" cx="15.645" cy="15.645" r="15.645" transform="translate(3.476 3.477)" fill="#fff"/>
          <path id="Path_59" data-name="Path 59" d="M114.163,64.424a19.123,19.123,0,1,0,5.6,13.521A19,19,0,0,0,114.163,64.424ZM100.642,93.591a15.645,15.645,0,1,1,15.645-15.646A15.663,15.663,0,0,1,100.642,93.591Z" transform="translate(-81.52 -58.823)" fill="#1f3049"/>
        </g>
        <path id="Path_60" data-name="Path 60" d="M109.459,69.427l-2.9-2.9-7.218,7.218-7.219-7.218-2.9,2.9,7.218,7.218-7.218,7.218,2.9,2.9,7.219-7.219,7.218,7.219,2.9-2.9-7.219-7.218Z" transform="translate(-80.22 -57.523)" fill="#1f3049"/>
      </g>
    </g>
  </g>
</svg>
