<?xml version="1.0" encoding="utf-8"?>
<!-- Generator: Adobe Illustrator 24.0.3, SVG Export Plug-In . SVG Version: 6.00 Build 0)  -->
<svg version="1.1" id="Livello_1" xmlns="http://www.w3.org/2000/svg" xmlns:xlink="http://www.w3.org/1999/xlink" x="0px" y="0px"
	 viewBox="0 0 207.29 193.27" style="enable-background:new 0 0 207.29 193.27;" xml:space="preserve">
<style type="text/css">
	.st0{fill:#C21B17;}
</style>
<title>GGA_Logo_V_LINES positive_dic15</title>
<g>
	<path class="st0" d="M7.37,188.32h2.21c0.03,0.89-0.08,1.78-0.31,2.64c-0.19,0.54-0.54,1.01-1,1.34c-0.47,0.33-1.02,0.5-1.59,0.49
		c-0.49,0-0.98-0.11-1.42-0.32c-0.6-0.29-1.08-0.8-1.32-1.42c-0.22-0.65-0.36-1.32-0.4-2c-0.13-0.86-0.13-2.01-0.13-3.44
		c-0.04-1.57,0.09-3.14,0.38-4.68c0.14-0.84,0.66-1.58,1.4-2c0.54-0.3,1.15-0.45,1.76-0.44c0.98-0.03,1.94,0.33,2.66,1
		c0.4,0.36,0.74,0.79,1,1.27c0.28,0.58,0.49,1.2,0.62,1.83h0.34l-0.11-4.43l-0.25,0.05l-0.75,0.88c-0.96-0.67-2.1-1.06-3.28-1.1
		c-0.85,0.01-1.7,0.21-2.46,0.59c-1.27,0.61-2.32,1.61-3,2.84c-0.73,1.29-1.11,2.75-1.1,4.23c-0.05,2.09,0.71,4.13,2.11,5.68
		c1.67,2.02,4.54,2.58,6.84,1.32c0.81-0.4,1.5-1.02,2-1.77c0.44-0.78,0.67-1.66,0.67-2.56h1.42v-0.44H7.37V188.32z"/>
	<path class="st0" d="M24.46,191.75c-0.26,0.32-0.61,0.55-1,0.68c-0.64,0.13-1.29,0.19-1.94,0.16h-2.65v-14h1.86v-0.45h-6.11v0.45
		h1.87v14h-1.87v0.45h11.1l0.38-4.6h-0.29C25.62,189.63,25.16,190.76,24.46,191.75z"/>
	<path class="st0" d="M38.35,179.94c-1.07-1.27-2.65-2-4.31-2l0-0.01c-0.95,0-1.89,0.25-2.72,0.71c-1.2,0.7-2.17,1.75-2.77,3
		c-1.67,3.15-1.2,7,1.18,9.65c1.07,1.27,2.65,2.01,4.31,2c0.95,0,1.89-0.25,2.72-0.72c1.19-0.71,2.16-1.75,2.76-3
		c0.65-1.19,0.99-2.52,1-3.88c0-0.96-0.15-1.91-0.46-2.81C39.7,181.79,39.12,180.79,38.35,179.94z M37.53,189.3
		c-0.05,0.67-0.24,1.32-0.55,1.92c-0.29,0.49-0.71,0.88-1.21,1.14c-0.53,0.28-1.13,0.42-1.73,0.41c-1.1,0.07-2.15-0.43-2.8-1.32
		c-0.38-0.6-0.62-1.29-0.68-2c-0.15-1.28-0.21-2.57-0.19-3.86c-0.02-1.22,0.04-2.43,0.17-3.64c0.06-0.67,0.24-1.33,0.54-1.94
		c0.29-0.49,0.71-0.88,1.21-1.14c0.54-0.28,1.14-0.43,1.75-0.42v0.02c1.09-0.05,2.13,0.45,2.79,1.32c0.38,0.61,0.61,1.29,0.67,2
		c0.15,1.31,0.22,2.63,0.19,3.95C37.7,186.93,37.65,188.12,37.53,189.3z"/>
	<path class="st0" d="M52.49,186.14c-0.89-0.54-1.89-0.86-2.93-0.92c1.06-0.14,2.06-0.58,2.89-1.26c0.65-0.56,1.02-1.38,1-2.24
		c0.01-0.62-0.17-1.22-0.52-1.73c-0.63-0.81-1.52-1.36-2.52-1.58c-1.09-0.22-2.2-0.31-3.31-0.27h-4.93v0.45h1.86v14h-1.86v0.45h5.32
		c1.06,0.03,2.12-0.04,3.16-0.21c0.66-0.12,1.28-0.38,1.82-0.77c0.98-0.65,1.57-1.74,1.57-2.92
		C54.12,187.93,53.52,186.78,52.49,186.14z M46.41,178.57h0.61c0.67-0.02,1.34,0.02,2,0.13c0.4,0.07,0.78,0.24,1.09,0.5
		c0.68,0.72,1.01,1.7,0.9,2.68c0.05,0.79-0.17,1.58-0.62,2.23c-0.73,0.71-1.75,1.05-2.76,0.93c-0.22,0-0.66,0-1.22,0V178.57z
		 M50.45,191.96c-0.29,0.25-0.63,0.42-1,0.49c-0.56,0.11-1.14,0.16-1.71,0.14h-1.33l0.01-7.11h1.3c1.02-0.11,2.04,0.18,2.85,0.8
		c0.63,0.79,0.93,1.8,0.82,2.81C51.5,190.14,51.16,191.18,50.45,191.96z"/>
	<path class="st0" d="M61.91,178.16h-0.66l-5,14.43h-1.08v0.45h3.63v-0.45h-1.93l1.42-4.35h4.48l1.42,4.35h-1.94v0.45h6.05v-0.45
		h-1.57L61.91,178.16z M58.46,187.8l2.1-6.19l2.08,6.19H58.46z"/>
	<path class="st0" d="M78.69,191.75c-0.26,0.32-0.61,0.56-1,0.68c-0.63,0.13-1.28,0.19-1.93,0.16h-2.65v-14h1.86v-0.45h-6.1v0.45
		h1.89v14h-1.89v0.45h11.09l0.38-4.6h-0.3C79.86,189.63,79.39,190.77,78.69,191.75z"/>
	<path class="st0" d="M93.32,178.16h-0.67l-5,14.43h-1.08v0.45h3.61v-0.45h-1.93l1.44-4.35h4.48l1.43,4.35h-1.94v0.45h6.05v-0.45
		h-1.57L93.32,178.16z M89.87,187.8l2.09-6.19l2.08,6.19L89.87,187.8z"/>
	<path class="st0" d="M107.52,184.28c-0.6-0.23-1.22-0.42-1.85-0.58c-0.88-0.2-1.73-0.48-2.55-0.84c-0.64-0.33-1.03-1.01-1-1.74
		c-0.02-0.73,0.28-1.43,0.83-1.92c0.58-0.51,1.32-0.78,2.09-0.75c1.07-0.03,2.08,0.46,2.73,1.31c0.46,0.61,0.74,1.34,0.82,2.1h0.34
		v-3.93h-0.18l-0.78,0.93c-0.82-0.58-1.79-0.91-2.79-0.93c-1.1-0.02-2.15,0.44-2.88,1.26c-0.39,0.43-0.7,0.94-0.89,1.49
		c-0.22,0.57-0.33,1.16-0.33,1.77c-0.05,0.99,0.31,1.95,1,2.66c0.29,0.29,0.63,0.52,1,0.68c0.65,0.25,1.32,0.46,2,0.62
		c0.86,0.23,1.45,0.4,1.77,0.51c0.28,0.11,0.55,0.25,0.79,0.42c0.68,0.53,1.05,1.35,1,2.21c0.04,0.94-0.36,1.84-1.07,2.45
		c-0.61,0.5-1.38,0.76-2.17,0.73c-1.34,0.03-2.61-0.61-3.38-1.71c-0.5-0.78-0.82-1.66-0.94-2.58h-0.33v4.6h0.48l0.8-1.08
		c0.93,0.81,2.12,1.27,3.36,1.3c1.19,0.03,2.33-0.47,3.11-1.36c0.9-1.02,1.38-2.34,1.33-3.7c0.07-1.24-0.41-2.44-1.31-3.29
		C108.23,184.64,107.89,184.43,107.52,184.28z"/>
	<path class="st0" d="M118.64,184.28c-0.6-0.23-1.22-0.42-1.85-0.58c-0.88-0.2-1.73-0.48-2.55-0.84c-0.64-0.33-1.03-1.01-1-1.74
		c-0.02-0.73,0.28-1.43,0.83-1.92c0.58-0.51,1.32-0.78,2.09-0.75c1.07-0.03,2.08,0.46,2.73,1.31c0.46,0.61,0.74,1.34,0.82,2.1h0.34
		v-3.93l-0.26,0l-0.78,0.93c-0.82-0.58-1.79-0.91-2.79-0.93c-1.1-0.02-2.15,0.44-2.88,1.26c-0.39,0.43-0.7,0.94-0.89,1.49
		c-0.22,0.57-0.33,1.16-0.33,1.77c-0.05,0.99,0.31,1.95,1,2.66c0.29,0.29,0.63,0.52,1,0.68c0.65,0.25,1.32,0.46,2,0.62
		c0.86,0.23,1.45,0.4,1.77,0.51c0.28,0.11,0.55,0.25,0.79,0.42c0.68,0.53,1.05,1.35,1,2.21c0.04,0.94-0.36,1.84-1.07,2.45
		c-0.61,0.5-1.38,0.76-2.17,0.73c-1.34,0.03-2.61-0.61-3.38-1.71c-0.5-0.78-0.82-1.66-0.94-2.58h-0.33v4.6h0.48l0.8-1.08
		c0.93,0.81,2.12,1.27,3.36,1.3c1.19,0.03,2.33-0.47,3.11-1.36c0.9-1.02,1.38-2.34,1.33-3.7c0.09-1.22-0.36-2.43-1.23-3.29
		C119.35,184.64,119.01,184.43,118.64,184.28z"/>
	<polygon class="st0" points="122.53,178.61 124.39,178.61 124.39,192.6 122.53,192.6 122.53,193.04 128.64,193.04 128.64,192.6 
		126.77,192.6 126.77,178.61 128.64,178.61 128.64,178.16 122.53,178.16 	"/>
	<path class="st0" d="M137.25,184.28c-0.6-0.23-1.22-0.42-1.85-0.58c-0.87-0.19-1.72-0.47-2.54-0.84c-0.64-0.33-1.03-1.01-1-1.74
		c-0.01-0.73,0.29-1.43,0.84-1.92c0.58-0.51,1.32-0.78,2.09-0.75c1.07-0.02,2.08,0.46,2.73,1.31c0.46,0.61,0.74,1.34,0.82,2.1h0.34
		v-3.93h-0.19l-0.78,0.93c-0.82-0.58-1.79-0.91-2.79-0.93c-1.1-0.02-2.15,0.44-2.88,1.26c-0.39,0.43-0.7,0.94-0.9,1.49
		c-0.21,0.57-0.32,1.17-0.32,1.77c-0.05,0.99,0.31,1.95,1,2.66c0.29,0.29,0.63,0.52,1,0.68c0.65,0.25,1.32,0.46,2,0.62
		c0.85,0.23,1.44,0.4,1.75,0.51c0.28,0.1,0.55,0.24,0.8,0.42c0.68,0.53,1.05,1.35,1,2.21c0.04,0.94-0.36,1.84-1.07,2.45
		c-0.61,0.5-1.38,0.76-2.17,0.73c-1.34,0.03-2.61-0.61-3.38-1.71c-0.5-0.78-0.82-1.66-0.94-2.58h-0.33v4.6h0.48l0.8-1.08
		c0.93,0.81,2.12,1.27,3.36,1.3c1.19,0.03,2.33-0.47,3.11-1.36c0.9-1.02,1.38-2.34,1.33-3.7c0.07-1.24-0.41-2.44-1.31-3.29
		C137.96,184.64,137.62,184.43,137.25,184.28z"/>
	<path class="st0" d="M140.79,178.14l-0.16,4.7h0.34c0.17-1.2,0.64-2.34,1.35-3.32c0.26-0.34,0.61-0.6,1-0.76
		c0.53-0.14,1.08-0.2,1.63-0.17h0.76v14h-2.1v0.45h6.6v-0.45h-2.09v-14h0.76c0.55-0.03,1.11,0.03,1.64,0.17
		c0.39,0.16,0.74,0.42,1,0.76c0.71,0.98,1.18,2.12,1.35,3.32h0.28l-0.17-4.7H140.79z"/>
	<path class="st0" d="M160.23,178.16h-0.66l-5,14.43h-1.08v0.45h3.61v-0.45h-1.93l1.44-4.35h4.48l1.42,4.35h-1.94v0.45h6.05v-0.45
		h-1.57L160.23,178.16z M156.76,187.8l2.11-6.19l2.09,6.19L156.76,187.8z"/>
	<path class="st0" d="M176.69,178.61h1.87v10.08c-0.59-1.06-1.42-2.37-2.5-4l-4.33-6.55h-4.67v0.45h1.87v14l-1.87,0.02v0.45h4.25
		v-0.45h-1.86v-13.57l9.11,14h0.52v-14.43h1.85v-0.45h-4.24V178.61z"/>
	<path class="st0" d="M192.43,179.19c-0.99-0.81-2.22-1.26-3.49-1.28c-0.77,0.01-1.52,0.17-2.22,0.49c-1.14,0.49-2.13,1.29-2.85,2.3
		c-1.02,1.46-1.54,3.21-1.48,4.99c-0.01,1.17,0.22,2.33,0.67,3.41c0.41,0.99,1.03,1.87,1.81,2.6c1.04,0.99,2.42,1.55,3.86,1.56
		c1.33-0.04,2.62-0.49,3.68-1.3l0.75,1.08h0.34v-4.21l-0.29-0.03c-0.9,2.6-2.34,3.9-4.34,3.9c-0.61-0.01-1.2-0.15-1.75-0.42
		c-0.49-0.21-0.91-0.56-1.22-1c-0.3-0.53-0.49-1.11-0.55-1.72c-0.13-1.14-0.18-2.28-0.16-3.43c0-3.13,0.24-5.15,0.7-6
		c0.62-1.14,1.85-1.8,3.14-1.7c1.07-0.04,2.11,0.39,2.86,1.16c0.64,0.69,1.09,1.54,1.29,2.46h0.34v-3.92h-0.34L192.43,179.19z"/>
	<path class="st0" d="M205.49,190.97c-0.23,0.48-0.57,0.9-1,1.23c-0.22,0.16-0.47,0.28-0.74,0.35c-0.49,0.05-0.99,0.07-1.49,0.06
		h-2.85v-6.87h0.72c0.49-0.02,0.99,0.05,1.46,0.2c0.32,0.13,0.58,0.38,0.73,0.69c0.11,0.22,0.18,0.46,0.22,0.7
		c0.04,0.23,0.13,0.69,0.13,1.37h0.29v-6.19h-0.29c0,0.47-0.04,0.95-0.13,1.41c-0.05,0.28-0.17,0.54-0.36,0.76
		c-0.2,0.24-0.48,0.41-0.79,0.47c-0.66,0.08-1.33,0.13-2,0.12v-6.68h1.72c0.8-0.03,1.61,0.04,2.39,0.21
		c0.49,0.15,0.91,0.46,1.21,0.88c0.52,0.76,0.86,1.63,1,2.54h0.31l-0.15-4.08h-10.69v0.45h1.86v14l-1.86,0.02v0.45h11.08l0.42-4.64
		h-0.29C206.16,189.29,205.86,190.15,205.49,190.97z"/>
	<path class="st0" d="M42.57,166.09h-3.19v-15.25h1.85c3.09,0.08,4.85,1.88,5.48,7.2h1.16v-15.76h-1.12c0,0-0.22,6.78-5.63,6.68
		h-1.74V134.7c8.94,0,12.22-0.45,13.77,10.51h0.95v-12.2H29.78v1.69h4.21v31.38h-4.65v1.62h25.09v-12.79h-1.26
		C51.92,164.61,49.47,166.09,42.57,166.09z"/>
	<path class="st0" d="M21.33,164.28c0,0,4.37,3.44,4.39,3.46v-16.59h3.7l0.01-1.56H15.7v1.56h4.7v11.28c-0.8,2.87-5,4.06-6.28,4.06
		c-8.77,0-8.14-12.83-8.14-16.27c0-3.14-0.32-16.27,8.14-16.27c6,0,9.1,5.93,10.36,11.26h0.95c0-2.2,0-12.64,0-12.62
		c0,0.02-4.08,3-4.1,2.9c-0.02-0.1-1.88-2.8-7.22-2.8c-10.35,0-14.15,10.32-14.12,17.53c0.05,6.6,3.09,17.83,14.12,17.83
		C17.01,168.12,19.73,166.7,21.33,164.28z"/>
	<path class="st0" d="M130.22,150.98c10.25,0.85-1.76,16.77,11.68,16.76h8.46v-1.68c-0.47,0-3.57,0.09-3.77-2.07
		c-0.12-1.56,2-7.17,2-7.17h11.58c0,0,3.58,9.25,3.61,9.25h-4v1.63h31.4v-12.79h-1.26c-1.25,9.7-3.71,11.15-10.61,11.15h-0.44V134.7
		h4.38V133h-14.38v1.7h4.39v31.37h-3.48l-12.81-34h-1.89c0,0-10.65,30.85-10.67,30.94c0-0.09-0.81,2.65-2.56,3
		c-1.63,0.08-1.51-0.76-1.51-1.06V159c0-1.56-0.12-5.11-1.74-6.73c-1.82-1.83-4.92-2-4.85-2c0.07,0,7.88-1.62,7.88-9.12
		c0-5.24-3.65-7.85-9.75-8.09h-17.35v1.64h4.44v31.38h-4.44v1.62h14.21v-1.67h-4.43v-15.05H130.22z M154.34,140.25l5.34,15h-10.34
		L154.34,140.25z M124.29,149.23V134.7h7.2c4.23,0.64,4.4,5.53,4.4,7.08c0,3.76-1.57,7.47-6,7.47l0.03-0.02H124.29z"/>
	<path class="st0" d="M92.01,134.68v31.41h-4.64v1.61h25.09v-12.79h-1.26c-1.25,9.7-3.71,11.18-10.61,11.18H97.4v-15.25h1.85
		c3.1,0.08,4.86,1.88,5.49,7.2h1.14v-15.76h-1.12c0,0-0.22,6.78-5.63,6.68h-1.72l0.04-14.26c8.94,0,12.24-0.43,13.8,10.54h0.94
		v-12.23H76.7v1.69h0.93c1.25,0,4.22,0.09,4.39,2.71v20l-16.6-24.4h-9v1.69h1.45c1.78,0,4.28,0.08,4.39,2.71v25.65
		c0,2.5-3.74,3.45-5.31,3.45v1.19h12.22v-1.25c-1.56,0-5.34-0.95-5.34-3.45v-22.58c6.57,9.39,19,27.29,19.09,27.28h0.63v-30.31
		c0.17-2.62,3.14-2.71,4.39-2.71H92.01z"/>
	<polygon class="st0" points="192.79,134.69 197.24,134.69 197.25,166.05 192.79,166.05 192.79,167.74 206.95,167.74 206.95,166.05 
		202.5,166.05 202.5,134.69 206.95,134.69 206.95,133 192.79,133 	"/>
	<path class="st0" d="M169.56,111.58l4.39-1.66h0.06c6.22-2.58,7.11-4.19,6.82-8.33V84.84c4.73,12,9.21,20.48,18.39,20.48
		c1.35-0.01,2.69-0.17,4-0.48l3.58-0.81l-2.46-2.72c-1.26-1.41-2.34-2.97-3.22-4.64c-0.36-0.63-0.73-1.3-1.18-2
		c-2.15-3.48-7.26-4.66-11.4-2.81c-1.87-3.73-3.76-8.59-6-14.59l-0.49-1.14c-0.4-0.89-0.79-1.8-1.19-2.7v-0.15h-0.07
		c-1.37-3.2-2.95-6.32-4.71-9.33c-1.5-2.51-3.2-4.89-5.08-7.13c-4.81-5.64-11.51-9.33-18.84-10.39c-4.59-0.73-9.23-1.16-13.88-1.3
		l-3.13-0.16c-2.16-0.12-6.63-0.49-11-0.84l-8.25-0.66c0.16-0.67,0.25-1.37,0.25-2.06c0.01-0.86-0.08-1.72-0.25-2.56h30.67
		c7.91,0,13.63-3.5,17-10.38c7.86-0.07,13.54-3.64,16.9-10.6h1.1c8.18,0,14-3.73,17.39-11.1l1.39-3H96.45
		c-6.82,0-12.64,4.46-14.81,11.35l-0.07,0.24c-1.61-4.83-4.85-8.94-9.15-11.66C66.66,0.27,60.1-0.88,54.88,0.62
		c-1.72,0.49-3.35,1.23-4.85,2.2c-1.55,0.99-2.93,2.21-4.1,3.62c-1.37,1.78-2.56,3.69-3.55,5.7c-0.53,0.42-1,0.92-1.39,1.48
		l-1.24,2.34l-0.07,0.13c-1.2,2.67-2.78,5.14-4.71,7.34c-1.07,1.12-1.54,2.68-1.28,4.2c0.21,1.01,0.71,1.95,1.43,2.69v0.07
		c-0.42,0.72-0.63,1.53-0.63,2.36c0.09,2.76,2.41,4.92,5.17,4.83c0.05,0,0.1,0,0.15-0.01c2.13,0,3.87-1,5.72-2.22
		c1.03-0.76,2.15-1.38,3.34-1.86c0.85,0.03,1.53,0.71,1.57,1.56c0,2.25-2.9,3.46-5,3.61l-4.22,0.45c-3,0.29-4.48,1.9-4.48,3.34
		c-0.01,1.04,0.42,2.03,1.18,2.74l0.31,0.32l1.07,1l-4.43,7.19c-3.19-3-6.93-4.74-10.24-4.85c-1.96-0.13-3.89,0.54-5.35,1.86
		c-0.39,0.38-0.72,0.81-1,1.28H18.2c-3.09-0.03-6,1.46-7.77,4c-1.52,2.32-1,6.34,0.95,9.42l-11.3,2.93v54h207.21v-10.76H169.56z
		 M196.29,96.89L196.29,96.89c0.41,0.67,0.76,1.29,1.11,1.89c0.35,0.6,0.83,1.46,1.31,2.22c-3.26-0.21-5.72-2-8-5.42
		C192.81,94.85,195.36,95.37,196.29,96.89z M151.43,50.63c6.33,0.91,12.11,4.08,16.27,8.93c0.88,1,1.72,2.14,2.56,3.33
		c-11.24-1.48-15.16-3.11-21.44-12.66C149.66,50.34,150.52,50.47,151.43,50.63z M146.58,34.53L146.58,34.53h-21.09
		c1.89-1.71,3.44-3.78,4.54-6.08h28.66C156,32.58,152.09,34.53,146.58,34.53z M163.37,24.16h-21.09c1.96-1.77,3.54-3.92,4.65-6.32
		h28.71C172.94,22.14,168.99,24.16,163.37,24.16z M164.81,8h28.57c-2.68,3.77-6.49,5.56-11.76,5.56h-21.1
		C162.28,11.98,163.73,10.1,164.81,8z M49.32,9.1L49.32,9.1c0.88-1.04,1.92-1.95,3.08-2.68c1.14-0.73,2.37-1.28,3.67-1.66
		c2.26-0.59,4.63-0.64,6.91-0.16L55.4,9.27c-0.94-0.09-1.87-0.14-2.76-0.14c-1.19,0-2.38,0.09-3.55,0.27L49.32,9.1z M41.02,42.04
		l3.69,0.12c4.51-0.16,9.09-2,9.61-6.7c0-3.17-2.25-6.26-5.43-6.26c-1.7,0-3.62,1.18-5.77,2.6c-1.4,0.93-2.5,1.66-3.34,1.66
		c-0.57,0-1-0.38-1-0.69c-0.01-0.05-0.01-0.11,0-0.16l2.36-3.15l-2-1.37c-0.44-0.29-1.11-0.83-1.19-1.22c0-0.19,0.24-0.53,0.33-0.63
		c1-1.17,1.93-2.39,2.79-3.67c0.6-0.84,1-1.31,2-1.31c0.99-0.01,1.8,0.79,1.81,1.78c0,0.65,0.71,1.17,1.6,1.17
		c0.89,0,1.28-0.63,1.83-1.17c0,0,2.11-1.93,1-2.84s-6.37,1.08-4.95-3.59l0.35-0.67c0.55-0.72,3-2.53,8-2.53c1,0,2.01,0.07,3,0.2
		l0.75,0.1l10.69-6.59c0.05,0.12,0.09,0.25,0.12,0.38v0.07c0.55,3.23-1.49,7.08-4.75,8.95l-1.3,0.75l0.84,4.82
		c-2.64,0.65-4.54,2.97-4.65,5.69c0.06,1.13,0.22,2.25,0.48,3.35c0.35,1.65,0.6,3.32,0.72,5c0,5-6.92,8.34-12.78,8.15h-0.15
		c-0.24,0-4-0.31-4.88-1c-0.2-0.15-0.3-0.4-0.27-0.65l-0.06-0.06C40.51,42.29,40.74,42.07,41.02,42.04z M6.97,111.58l17.63-4.59
		l17.63,4.59H6.97z M44.83,107.82l-20.23-5.26l-20.23,5.26V71.64l20.23-5.25l20.23,5.25V107.82z M24.55,61.92l-8.68,2.31
		c-1.94-2-2.33-5.17-1.85-5.91l0.02,0.06c1.19-1.63,3.22-2.41,5.2-2l1.83,0.32l0.57-1.76c0.12-0.41,0.35-0.79,0.65-1.1
		c0.63-0.52,1.45-0.76,2.26-0.68c2.59,0.08,5.83,1.88,8.46,4.7c0.96,1.06,1.82,2.2,2.56,3.42c0.14,0.25,0.31,0.52,0.46,0.76
		l0.43,0.68c0.49,0.71,0.93,1.46,1.3,2.24l2.67-3.74c0,0,0-0.15-0.09-0.31c-0.29-0.55-0.6-1.09-0.95-1.61l-0.21-0.33l-0.3-0.47
		c-0.3-0.47-0.73-1.14-0.92-1.51l5.6-8.94c1.04,0.21,2.1,0.33,3.16,0.33h0.14c7.89,0,16.05-4.55,16.05-12.17v-0.19
		c-0.13-1.9-0.4-3.78-0.8-5.64c-0.19-0.83-0.32-1.68-0.4-2.53c0-0.84,1.17-1.77,2.86-1.77h2.55l-1.25-6.68
		c3.55-2.57,5.67-6.68,5.69-11.06c4.11,3.38,6.67,8.28,7.1,13.59c0.06,2.07-0.17,4.14-0.68,6.15l-0.28,1h0.05
		c-0.81,3.26-1.82,6.47-3,9.61l-0.66,1.72l1.61,0.91c2.87,1.63,4.64,2.82,4.64,6.61c0,4.35-3.91,7.68-7.69,8.39l-5.17,1l4.39,2.88
		c1.38,0.9,2.22,2.43,2.24,4.08c-0.04,2.8-2.34,5.04-5.14,5c-0.01,0-0.03,0-0.04,0h-1.65l-0.41,1.42c-1.61,5.23-3.35,7.79-9,8.34
		c0.3-1.74,0.45-3.51,0.44-5.28c0-0.51,0-1.94-0.07-2.39l-0.25-4.88l-3.42,3.49c-1.55,1.35-3.46,2.24-5.49,2.56v-4.25L24.55,61.92z
		 M54.24,100.79v0.03c-1.83,2.62-2.05,6.25-0.68,10.79h-4.43V76.93c1.69-0.26,3.33-0.74,4.89-1.43c-0.11,1.45-0.3,2.89-0.58,4.31
		c-0.07,0.37-0.13,0.75-0.21,1.17l-0.42,2.5h2.54c3.03,0.14,6.05-0.45,8.81-1.72v14.46c0.01,0.36-0.28,0.66-0.64,0.67h-0.65
		C59.1,96.89,55.95,98.31,54.24,100.79z M98.75,111.58h-26.3c2.82-0.28,4.87-0.94,6.29-2.41c1.71-1.79,1.87-4.24,1.81-6
		c0.06-0.16,0.34-0.75,1.63-1.33l2.26-1l-1.35-2.14c-2.25-3.45-1.27-11-0.4-15.08h0.2c8.91,0,14.67-1.85,20.74-3.81
		c1.59-0.51,3.22-1,5-1.53c0,0,1.81-0.58,4.23-1.14l8.57,14.11l0.07,0.12c0.85,1.22,1,2-0.59,3.83l-4.29,4.63l-7-1.3h-0.06
		c-3.26-0.46-6.53,0.74-8.72,3.19C99.28,103.5,97.77,106.6,98.75,111.58z M103.15,111.58c-0.77-3-0.46-5.46,0.93-7
		c1.21-1.34,3-2,4.79-1.78l8.16,1.52h0.2h1.14l5.76-6.22l0.05-0.06c1-1.14,4-4.62,0.92-9.05l-7.7-12.69
		c1.24-0.18,2.49-0.28,3.74-0.29h0.05c2.82,0.12,5.57,0.93,8,2.36c0.56,1.2,1.34,2.78,2.21,4.54c1.62,3.28,3.63,7.36,4.19,9
		c0.18,0.52,0.73,2.09-1.21,4.09l-14.76,15.58H103.15z M153.51,111.6l-0.04-0.02h-27.9l12-12.62c2.33-2.14,3.18-5.45,2.17-8.44
		c-0.58-1.7-2.16-5-3.81-8.3c4.75,2.21,11.94,4.19,26.59,5.37c1.76,0.15,2.23,0.75,2.58,2.35l0.64,6.32l-7.65,1.71
		c-2.53,0.47-4.63,2.22-5.53,4.63C151.51,105.29,151.87,108.46,153.51,111.6z M156.49,104.19l0.08-0.02c0.37-1.05,1.28-1.81,2.37-2
		l11.45-2.56l-1-10.22v-0.22c-0.39-3.28-3.14-5.78-6.45-5.85c-20.48-1.65-25.23-4.69-30.21-7.91l-0.32-0.21
		c-3.37-2.21-7.29-3.42-11.32-3.5c-5.81,0-13.15,2.3-13.74,2.49c-1.78,0.52-3.43,1.05-5,1.56c-6.42,2.07-12,3.85-21.26,3.57h-1.7
		l-0.44,1.64c-0.34,1.26-2.94,11.55-0.43,18.16c-1.35,0.94-2.18,2.46-2.24,4.1c0.1,2.26-0.44,2.82-0.61,3
		c-1.08,1.12-4.65,1.26-7.65,1.26h-1.15l-0.65,0.89c-1.85,2.55-5.85,3.14-8.41,2.49c-1.13-3.43-1.16-6-0.07-7.61
		c1.28-1.85,4-2.05,5.1-2.05h0.65c2.74-0.03,4.94-2.26,4.94-5V77.81c0.86-1.39,1.55-2.87,2.07-4.42c4.52-0.68,7.88-4.54,7.93-9.11
		c0-1.75-0.5-3.45-1.45-4.92c4.15-2,7.71-6.08,7.71-11.44c0.2-3.89-1.84-7.54-5.25-9.42c1.08-3.05,1.99-6.16,2.72-9.31l3.59-12.88
		c1.61-5,5.81-8.31,10.71-8.31h63.34c-2.68,3.77-6.49,5.56-11.76,5.56H109.7l-2,4.28h34.35c-2.7,4.3-6.65,6.32-12.26,6.32h-24.92
		l-2,4.29h22.22c-2.69,4.13-6.6,6.08-12.11,6.08H99.42l-2,4.29h14.24c0.4,0.79,0.57,1.68,0.48,2.56c-0.04,2.81-2.35,5.04-5.16,5
		c0,0,0,0,0,0c-1.14-0.05-2.25-0.33-3.28-0.82l-1.88-0.8l-3.31,3l1.86,0.79c2.85,1.24,4.45,1.88,6.61,1.88
		c2.51,0.01,4.91-1.01,6.66-2.81c2.44,0.16,6.37,0.48,10.18,0.79c4.55,0.38,8.85,0.73,11.08,0.85l3.15,0.16
		c1.89,0.09,3.62,0.18,5.35,0.3c8.64,14,13.07,15.88,29.81,17.89c1.21,2.16,2.29,4.45,3.33,6.75v27.49
		c0.09,1.25,0.09,1.68-0.08,1.91c-0.58,0.76-3.17,1.84-4.06,2.21l-14.12,5.32C156.41,108.75,155.74,106.11,156.49,104.19z"/>
	<polygon class="st0" points="40.3,77.2 26.79,73.7 26.79,78.12 40.3,81.63 	"/>
	<polygon class="st0" points="8.81,81.63 22.33,78.12 22.33,73.69 8.81,77.2 	"/>
	<polygon class="st0" points="8.81,90.54 22.33,87.03 22.33,82.6 8.81,86.1 	"/>
	<polygon class="st0" points="40.3,86.1 26.79,82.6 26.79,87.03 40.3,90.54 	"/>
	<polygon class="st0" points="40.3,95.01 26.79,91.5 26.79,95.93 40.3,99.44 	"/>
	<polygon class="st0" points="8.81,99.44 22.33,95.93 22.33,91.5 8.81,95.01 	"/>
</g>
</svg>
