<?xml version="1.0" encoding="utf-8"?>
<!-- Generator: Adobe Illustrator 24.1.2, SVG Export Plug-In . SVG Version: 6.00 Build 0)  -->
<svg version="1.1" xmlns="http://www.w3.org/2000/svg" xmlns:xlink="http://www.w3.org/1999/xlink" x="0px" y="0px"
	 viewBox="0 0 652 129.6" style="enable-background:new 0 0 652 129.6;" xml:space="preserve">
<style type="text/css">
	.st0{display:none;}
	.st1{display:inline;}
	.st2{fill:#0C0407;}
	.st3{fill:#B5B5B6;}
	.st4{fill:#FFFFFF;}
	.st5{fill:#44587B;}
</style>
<g id="图层_1" class="st0">
	<g class="st1">
		<path class="st2" d="M240,409.8l1.6-0.1c0.1,0.6,0.3,1.2,0.5,1.6c0.3,0.4,0.7,0.7,1.3,1c0.6,0.3,1.2,0.4,2,0.4
			c0.7,0,1.2-0.1,1.7-0.3s0.9-0.5,1.1-0.8s0.4-0.7,0.4-1.1c0-0.4-0.1-0.8-0.4-1.1s-0.6-0.6-1.2-0.8c-0.3-0.1-1.1-0.3-2.3-0.6
			s-2-0.6-2.5-0.8c-0.6-0.3-1.1-0.7-1.4-1.2c-0.3-0.5-0.5-1-0.5-1.6c0-0.7,0.2-1.3,0.6-1.8s0.9-1,1.6-1.3s1.5-0.4,2.4-0.4
			c1,0,1.8,0.2,2.5,0.5c0.7,0.3,1.3,0.8,1.7,1.4s0.6,1.3,0.6,2l-1.6,0.1c-0.1-0.8-0.4-1.4-0.9-1.8c-0.5-0.4-1.3-0.6-2.2-0.6
			c-1,0-1.8,0.2-2.3,0.6c-0.5,0.4-0.7,0.8-0.7,1.4c0,0.5,0.2,0.8,0.5,1.1c0.3,0.3,1.2,0.6,2.6,0.9c1.4,0.3,2.3,0.6,2.9,0.8
			c0.8,0.3,1.3,0.8,1.7,1.3s0.5,1.1,0.5,1.8c0,0.7-0.2,1.3-0.6,1.9c-0.4,0.6-1,1.1-1.7,1.4c-0.7,0.3-1.6,0.5-2.5,0.5
			c-1.2,0-2.1-0.2-2.9-0.5c-0.8-0.3-1.4-0.9-1.9-1.5C240.3,411.4,240,410.6,240,409.8z"/>
		<path class="st2" d="M258.8,410.9l1.6,0.2c-0.3,1-0.7,1.7-1.4,2.2s-1.6,0.8-2.7,0.8c-1.4,0-2.4-0.4-3.2-1.3
			c-0.8-0.8-1.2-2-1.2-3.5c0-1.6,0.4-2.8,1.2-3.7s1.9-1.3,3.1-1.3c1.2,0,2.3,0.4,3.1,1.3s1.2,2,1.2,3.6c0,0.1,0,0.2,0,0.4h-7
			c0.1,1,0.3,1.8,0.9,2.4s1.2,0.8,2,0.8c0.6,0,1.1-0.2,1.5-0.5S258.6,411.6,258.8,410.9z M253.6,408.3h5.2c-0.1-0.8-0.3-1.4-0.6-1.8
			c-0.5-0.6-1.2-0.9-2-0.9c-0.7,0-1.3,0.2-1.8,0.7S253.6,407.5,253.6,408.3z"/>
		<path class="st2" d="M268.8,410.9l1.6,0.2c-0.3,1-0.7,1.7-1.4,2.2s-1.6,0.8-2.7,0.8c-1.4,0-2.4-0.4-3.2-1.3
			c-0.8-0.8-1.2-2-1.2-3.5c0-1.6,0.4-2.8,1.2-3.7s1.9-1.3,3.1-1.3c1.2,0,2.3,0.4,3.1,1.3s1.2,2,1.2,3.6c0,0.1,0,0.2,0,0.4h-7
			c0.1,1,0.3,1.8,0.9,2.4s1.2,0.8,2,0.8c0.6,0,1.1-0.2,1.5-0.5S268.6,411.6,268.8,410.9z M263.6,408.3h5.2c-0.1-0.8-0.3-1.4-0.6-1.8
			c-0.5-0.6-1.2-0.9-2-0.9c-0.7,0-1.3,0.2-1.8,0.7S263.7,407.5,263.6,408.3z"/>
		<path class="st2" d="M272.4,413.9V401h1.6v7.3l3.7-3.8h2l-3.6,3.5l3.9,5.9h-2l-3.1-4.8l-1.1,1.1v3.7H272.4z"/>
		<path class="st2" d="M285.3,413.9l-5-12.9h1.8l3.3,9.4c0.3,0.8,0.5,1.5,0.7,2.1c0.2-0.7,0.4-1.4,0.7-2.1l3.5-9.4h1.7l-5,12.9
			H285.3z"/>
		<path class="st2" d="M298.8,410.9l1.6,0.2c-0.3,1-0.7,1.7-1.4,2.2s-1.6,0.8-2.7,0.8c-1.4,0-2.4-0.4-3.2-1.3
			c-0.8-0.8-1.2-2-1.2-3.5c0-1.6,0.4-2.8,1.2-3.7s1.9-1.3,3.1-1.3c1.2,0,2.3,0.4,3.1,1.3s1.2,2,1.2,3.6c0,0.1,0,0.2,0,0.4h-7
			c0.1,1,0.3,1.8,0.9,2.4s1.2,0.8,2,0.8c0.6,0,1.1-0.2,1.5-0.5S298.6,411.6,298.8,410.9z M293.6,408.3h5.2c-0.1-0.8-0.3-1.4-0.6-1.8
			c-0.5-0.6-1.2-0.9-2-0.9c-0.7,0-1.3,0.2-1.8,0.7S293.7,407.5,293.6,408.3z"/>
		<path class="st2" d="M308.5,410.5l1.6,0.2c-0.2,1.1-0.6,1.9-1.3,2.5c-0.7,0.6-1.6,0.9-2.6,0.9c-1.3,0-2.3-0.4-3.1-1.3
			c-0.8-0.8-1.2-2-1.2-3.6c0-1,0.2-1.9,0.5-2.6s0.8-1.3,1.5-1.7c0.7-0.4,1.4-0.6,2.2-0.6c1,0,1.8,0.3,2.5,0.8s1.1,1.2,1.2,2.2
			l-1.5,0.2c-0.1-0.6-0.4-1.1-0.8-1.4s-0.8-0.5-1.3-0.5c-0.8,0-1.4,0.3-1.9,0.9c-0.5,0.6-0.7,1.5-0.7,2.7c0,1.3,0.2,2.2,0.7,2.7
			s1.1,0.9,1.9,0.9c0.6,0,1.1-0.2,1.6-0.6S308.4,411.3,308.5,410.5z"/>
		<path class="st2" d="M314.9,412.5l0.2,1.4c-0.4,0.1-0.8,0.1-1.2,0.1c-0.6,0-1-0.1-1.3-0.3s-0.5-0.4-0.7-0.7s-0.2-0.9-0.2-1.9v-5.4
			h-1.2v-1.2h1.2v-2.3l1.6-0.9v3.3h1.6v1.2h-1.6v5.5c0,0.5,0,0.7,0.1,0.9s0.1,0.2,0.3,0.3c0.1,0.1,0.3,0.1,0.5,0.1
			C314.4,412.6,314.6,412.5,314.9,412.5z"/>
		<path class="st2" d="M315.9,409.2c0-1.7,0.5-3,1.4-3.8c0.8-0.7,1.8-1,2.9-1c1.3,0,2.3,0.4,3.1,1.3s1.2,2,1.2,3.5
			c0,1.2-0.2,2.1-0.5,2.8c-0.4,0.7-0.9,1.2-1.6,1.6s-1.4,0.6-2.3,0.6c-1.3,0-2.4-0.4-3.2-1.3C316.3,412,315.9,410.8,315.9,409.2z
			 M317.5,409.2c0,1.2,0.3,2.1,0.8,2.7c0.5,0.6,1.2,0.9,2,0.9c0.8,0,1.4-0.3,2-0.9s0.8-1.5,0.8-2.7c0-1.2-0.3-2-0.8-2.6
			c-0.5-0.6-1.2-0.9-2-0.9c-0.8,0-1.4,0.3-2,0.9S317.5,408,317.5,409.2z"/>
		<path class="st2" d="M326.4,413.9v-9.3h1.4v1.4c0.4-0.7,0.7-1.1,1-1.3c0.3-0.2,0.6-0.3,1-0.3c0.5,0,1.1,0.2,1.6,0.5l-0.5,1.5
			c-0.4-0.2-0.8-0.3-1.2-0.3c-0.3,0-0.7,0.1-0.9,0.3s-0.5,0.5-0.6,0.9c-0.2,0.6-0.3,1.2-0.3,1.8v4.9H326.4z"/>
		<path class="st2" d="M332.6,413.9V401h1.7v11.4h6.3v1.5H332.6z"/>
		<path class="st2" d="M341.9,409.2c0-1.7,0.5-3,1.4-3.8c0.8-0.7,1.8-1,2.9-1c1.3,0,2.3,0.4,3.1,1.3s1.2,2,1.2,3.5
			c0,1.2-0.2,2.1-0.5,2.8c-0.4,0.7-0.9,1.2-1.6,1.6s-1.4,0.6-2.3,0.6c-1.3,0-2.4-0.4-3.2-1.3C342.3,412,341.9,410.8,341.9,409.2z
			 M343.5,409.2c0,1.2,0.3,2.1,0.8,2.7c0.5,0.6,1.2,0.9,2,0.9c0.8,0,1.4-0.3,2-0.9s0.8-1.5,0.8-2.7c0-1.2-0.3-2-0.8-2.6
			c-0.5-0.6-1.2-0.9-2-0.9c-0.8,0-1.4,0.3-2,0.9S343.5,408,343.5,409.2z"/>
		<path class="st2" d="M352.2,414.7l1.5,0.2c0.1,0.5,0.2,0.8,0.5,1c0.4,0.3,0.9,0.4,1.6,0.4c0.7,0,1.3-0.1,1.7-0.4s0.7-0.7,0.8-1.2
			c0.1-0.3,0.1-1,0.1-2c-0.7,0.8-1.6,1.2-2.6,1.2c-1.3,0-2.3-0.5-3-1.4s-1.1-2-1.1-3.3c0-0.9,0.2-1.7,0.5-2.5
			c0.3-0.8,0.8-1.3,1.4-1.7s1.3-0.6,2.2-0.6c1.1,0,2,0.4,2.7,1.3v-1.1h1.5v8.1c0,1.5-0.1,2.5-0.4,3.1c-0.3,0.6-0.8,1.1-1.4,1.4
			c-0.6,0.4-1.4,0.5-2.4,0.5c-1.1,0-2-0.3-2.7-0.8C352.5,416.4,352.2,415.7,352.2,414.7z M353.5,409.1c0,1.2,0.2,2.1,0.7,2.7
			s1.1,0.8,1.8,0.8c0.7,0,1.3-0.3,1.8-0.8s0.7-1.4,0.7-2.6c0-1.1-0.3-2-0.8-2.6c-0.5-0.6-1.1-0.9-1.8-0.9c-0.7,0-1.3,0.3-1.8,0.9
			C353.7,407.1,353.5,407.9,353.5,409.1z"/>
		<path class="st2" d="M361.9,409.2c0-1.7,0.5-3,1.4-3.8c0.8-0.7,1.8-1,2.9-1c1.3,0,2.3,0.4,3.1,1.3s1.2,2,1.2,3.5
			c0,1.2-0.2,2.1-0.5,2.8c-0.4,0.7-0.9,1.2-1.6,1.6s-1.4,0.6-2.3,0.6c-1.3,0-2.4-0.4-3.2-1.3C362.3,412,361.9,410.8,361.9,409.2z
			 M363.5,409.2c0,1.2,0.3,2.1,0.8,2.7c0.5,0.6,1.2,0.9,2,0.9c0.8,0,1.4-0.3,2-0.9s0.8-1.5,0.8-2.7c0-1.2-0.3-2-0.8-2.6
			c-0.5-0.6-1.2-0.9-2-0.9c-0.8,0-1.4,0.3-2,0.9S363.5,408,363.5,409.2z"/>
		<path class="st2" d="M372.9,413.9v-1.8h1.8v1.8H372.9z"/>
		<path class="st2" d="M386.9,409.4l1.7,0.4c-0.4,1.4-1,2.5-1.9,3.2s-2.1,1.1-3.4,1.1c-1.4,0-2.5-0.3-3.4-0.8
			c-0.9-0.6-1.5-1.4-2-2.5c-0.5-1.1-0.7-2.2-0.7-3.5c0-1.3,0.3-2.5,0.8-3.5c0.5-1,1.2-1.8,2.2-2.3c0.9-0.5,2-0.8,3.1-0.8
			c1.3,0,2.4,0.3,3.3,1s1.5,1.6,1.8,2.8l-1.7,0.4c-0.3-0.9-0.7-1.6-1.3-2s-1.3-0.6-2.1-0.6c-1,0-1.8,0.2-2.5,0.7
			c-0.7,0.5-1.1,1.1-1.4,1.9c-0.3,0.8-0.4,1.6-0.4,2.5c0,1.1,0.2,2.1,0.5,2.9c0.3,0.8,0.8,1.4,1.5,1.8s1.4,0.6,2.2,0.6
			c1,0,1.8-0.3,2.4-0.8S386.7,410.5,386.9,409.4z"/>
		<path class="st2" d="M389.9,409.2c0-1.7,0.5-3,1.4-3.8c0.8-0.7,1.8-1,2.9-1c1.3,0,2.3,0.4,3.1,1.3s1.2,2,1.2,3.5
			c0,1.2-0.2,2.1-0.5,2.8c-0.4,0.7-0.9,1.2-1.6,1.6s-1.4,0.6-2.3,0.6c-1.3,0-2.4-0.4-3.2-1.3C390.3,412,389.9,410.8,389.9,409.2z
			 M391.5,409.2c0,1.2,0.3,2.1,0.8,2.7c0.5,0.6,1.2,0.9,2,0.9c0.8,0,1.4-0.3,2-0.9s0.8-1.5,0.8-2.7c0-1.2-0.3-2-0.8-2.6
			c-0.5-0.6-1.2-0.9-2-0.9c-0.8,0-1.4,0.3-2,0.9S391.5,408,391.5,409.2z"/>
		<path class="st2" d="M400.5,413.9v-9.3h1.4v1.3c0.3-0.5,0.7-0.8,1.2-1.1s1-0.4,1.7-0.4c0.7,0,1.3,0.1,1.7,0.4
			c0.4,0.3,0.8,0.7,0.9,1.2c0.7-1.1,1.7-1.6,2.9-1.6c0.9,0,1.6,0.3,2.1,0.8s0.7,1.3,0.7,2.4v6.4h-1.6V408c0-0.6-0.1-1.1-0.2-1.4
			c-0.1-0.3-0.3-0.5-0.6-0.7s-0.6-0.3-0.9-0.3c-0.7,0-1.2,0.2-1.6,0.7c-0.4,0.4-0.7,1.1-0.7,2.1v5.4h-1.6v-6.1
			c0-0.7-0.1-1.2-0.4-1.6s-0.7-0.5-1.3-0.5c-0.4,0-0.9,0.1-1.2,0.4c-0.4,0.2-0.7,0.6-0.8,1s-0.3,1.1-0.3,2v4.8H400.5z"/>
	</g>
</g>
<g id="图层_2">
	<g>
		<path class="st3" d="M574.9,15.1h-1.6v1.7h1.6c0.6,0,1-0.3,1-0.9C575.8,15.4,575.5,15.1,574.9,15.1 M576,17.9l1.3,2.7h-1.6
			l-1.2-2.5h-1.2v2.5h-1.4v-6.8h3.1c1.3,0,2.3,0.7,2.3,2.1C577.3,17.1,576.7,17.6,576,17.9 M574.4,12.2c-2.9,0-5.1,2.2-5.1,5.1
			c0,2.9,2.2,5.1,5.1,5.1c2.9,0,5.1-2.2,5.1-5.1C579.5,14.4,577.3,12.2,574.4,12.2 M574.4,23.5c-3.5,0-6.2-2.7-6.2-6.2
			s2.7-6.2,6.2-6.2c3.5,0,6.2,2.7,6.2,6.2S577.9,23.5,574.4,23.5"/>
	</g>
	<rect x="15.5" y="7.3" class="st4" width="115.7" height="115.7"/>
	<rect x="137.6" y="7.3" class="st4" width="115.7" height="115.7"/>
	<rect x="259.8" y="7.3" class="st4" width="115.7" height="115.7"/>
	<rect x="382" y="7.3" class="st4" width="115.7" height="115.7"/>
	<rect x="504.1" y="7.3" class="st4" width="115.7" height="115.7"/>
	<path class="st5" d="M185.1,85.8l-2.5,8.3h-15l19.1-57.9h17.9l19,57.9H208l-2.5-8.3H185.1z M195.3,52.8l-6.8,21.6h13.5L195.3,52.8z
		"/>
	<path class="st5" d="M429.4,85.8l-2.5,8.3h-15l19.1-57.9h17.9l19,57.9h-15.4l-2.5-8.3H429.4z M439.6,52.8l-6.8,21.6h13.5
		L439.6,52.8z"/>
	<polygon class="st5" points="324.8,94.1 310.8,94.1 310.8,68.6 291.8,36.2 308.5,36.2 317.9,54 327.1,36.2 343.6,36.2 324.8,68.6 	
		"/>
	<rect x="50.8" y="36.2" class="st5" width="14.1" height="57.9"/>
	<polygon class="st5" points="95.2,94.1 79.7,94.1 63.7,65.2 79.7,36.2 95.2,36.2 79.1,65.2 	"/>
	<rect x="539.5" y="36.2" class="st5" width="14.1" height="57.9"/>
	<polygon class="st5" points="583.9,94.1 568.3,94.1 552.3,65.2 568.3,36.2 583.9,36.2 567.8,65.2 	"/>
	<g>
		<path class="st4" d="M639.1,14.5c0,4-3.2,7.2-7.2,7.2c-4,0-7.2-3.2-7.2-7.2c0-4.1,3.2-7.2,7.3-7.2
			C635.9,7.3,639.1,10.6,639.1,14.5 M626,14.5c0,3.3,2.6,6,5.9,6c3.2,0,5.8-2.7,5.8-6c0-3.3-2.6-6-5.8-6
			C628.6,8.6,626,11.2,626,14.5 M632.2,10.5c1.9,0,2.9,0.8,2.9,2.3c0,0.9-0.5,1.6-1.4,2c1,0.4,1.2,0.9,1.2,2.6c0,0.7,0.1,1,0.2,1.2
			h-1.6c-0.1-0.2-0.1-0.5-0.2-1.6c-0.1-1.3-0.4-1.7-1.7-1.7h-1.1v3.3h-1.7v-8.1H632.2z M630.5,14.2h1.3c1.1,0,1.6-0.4,1.6-1.4
			c0-0.9-0.5-1.3-1.5-1.3h-1.4V14.2z"/>
	</g>
</g>
</svg>
